<svg width="151" height="151" viewBox="0 0 151 151" fill="none" xmlns="http://www.w3.org/2000/svg">
<g clip-path="url(#clip0_3107_509)">
<path d="M32.2502 68.2242C29.5411 68.2242 26.9138 68.2476 24.2865 68.2242C20.3349 68.1794 16.3384 68.4502 12.4433 67.9515C5.67542 67.0787 0.804511 61.7197 0.0819581 55.0224C-0.609434 48.6211 3.19809 42.4614 9.40504 39.9601L10.0088 39.7205C10.0088 36.6738 9.7186 33.7264 10.0633 30.855C11.2747 20.7467 18.9774 12.4636 28.8419 10.352C39.0395 8.16821 49.2818 12.4558 54.6805 21.2785C55.3622 22.3908 55.9386 22.5525 57.1851 22.3441C65.4798 20.9687 72.1269 23.7622 77.0095 30.6076C77.6386 31.4901 78.3027 31.8057 79.3311 31.9596C82.2291 32.3959 85.1271 32.8946 87.9744 33.5764C89.0398 33.8316 89.6221 33.6232 90.3349 32.9044C99.3211 23.8811 108.323 14.8753 117.342 5.88706C124.638 -1.35963 135.801 -1.97131 143.634 4.3637C152.815 11.7877 153.536 25.1707 145.126 33.6738C136.245 42.6543 127.311 51.5834 118.324 60.4613C117.367 61.41 117.19 62.1892 117.513 63.4885C118.185 66.1826 118.577 68.943 119.071 71.682C119.151 72.1222 119.204 72.5683 119.284 73.1138H124.209C124.209 74.7832 124.209 76.3416 124.209 77.8981C124.209 79.9786 125.138 81.5176 127.045 82.363C129.014 83.2338 130.841 82.8734 132.358 81.3637C133.501 80.2241 134.531 78.9715 135.573 77.8144C139.219 81.4669 142.585 84.8273 146.312 88.5656C145.276 89.4558 144.119 90.3519 143.081 91.3668C141.237 93.1688 140.799 95.0136 141.697 96.9908C142.643 99.0752 144.328 99.9635 146.585 99.8973C147.995 99.8583 149.405 99.8973 150.901 99.8973V114.508C149.506 114.508 148.059 114.541 146.616 114.508C144.369 114.445 142.653 115.275 141.712 117.381C140.812 119.391 141.254 121.217 143.058 123.03C144.057 124.033 145.12 124.978 146.032 125.83L135.421 136.439C134.617 135.531 133.669 134.348 132.601 133.277C130.88 131.541 129.024 131.134 127.08 132.03C125.066 132.955 124.159 134.582 124.203 136.785C124.233 138.244 124.203 139.707 124.203 141.238H109.602C109.602 139.76 109.583 138.26 109.602 136.758C109.637 134.559 108.749 132.903 106.71 132.02C104.599 131.107 102.745 131.652 101.183 133.281C100.168 134.34 99.1789 135.424 97.9675 136.725L95.4454 133.643C94.8786 136.565 93.8737 138.95 91.3885 140.183C89.9512 140.896 89.2598 141.936 88.5275 143.227C85.5886 148.442 81.0488 151.189 75.0561 151.006C69.1296 150.825 64.8021 147.852 62.1475 142.553C61.6723 141.605 61.1621 140.966 60.1552 140.496C56.2016 138.657 54.8655 133.894 57.1539 130.183C57.3643 129.842 57.5941 129.513 57.5688 129.554C56.8715 127.271 56.2658 125.29 55.6582 123.297C55.4634 123.469 55.0739 123.811 54.6941 124.185C50.2147 128.666 45.7352 133.166 41.2266 137.627C40.615 138.218 39.8921 138.681 39.0998 138.99C29.1425 142.855 19.1728 146.692 9.1908 150.501C4.43091 152.309 -0.266659 148.996 0.0644298 144.11C0.155613 143.197 0.380703 142.303 0.732451 141.457C4.47571 131.663 8.24103 121.88 12.0284 112.106C12.4034 111.177 12.9596 110.332 13.6644 109.62C20.1563 103.059 26.6814 96.5278 33.2396 90.0266C33.9796 89.2922 34.1861 88.7136 33.7849 87.6734C31.5062 81.7513 31.2667 75.6189 32.108 69.3988C32.1606 69.0579 32.1937 68.717 32.2502 68.2242ZM34.2172 48.6679C34.0361 44.8517 36.5329 41.1738 40.3658 39.7069C41.2461 39.3718 41.5888 38.955 41.7563 38.0238C42.7009 32.7914 45.3866 28.6284 49.7083 25.5272C50.1426 25.2135 50.5672 24.8882 50.9801 24.5804C46.5162 16.2798 36.233 12.5357 27.3111 15.8668C18.3892 19.198 12.9263 29.0083 14.9946 37.9868C15.1679 38.7485 15.5302 39.0017 16.2917 39.14C17.6784 39.3933 19.0865 39.6991 20.3816 40.2348C25.7511 42.4517 29.5859 48.3347 29.1009 53.5321H24.4637C24.3527 52.8698 24.269 52.2698 24.1502 51.6815C23.0946 46.6887 18.471 43.3049 13.53 43.9166C11.0596 44.2114 8.79386 45.4355 7.19291 47.3403C5.59195 49.2452 4.77575 51.6881 4.91002 54.173C5.16904 59.3879 9.46736 63.3424 14.9654 63.3463C36.6264 63.3606 58.2874 63.3606 79.9484 63.3463C80.2523 63.3463 80.5561 63.3463 80.8599 63.3288C84.5389 63.0794 87.5245 60.0171 87.6765 56.3684C87.7446 54.549 87.1374 52.7686 85.9716 51.3703C84.8059 49.9719 83.164 49.0544 81.3624 48.7945C77.8061 48.2744 74.3102 50.5867 73.352 54.1087C73.1845 54.7262 73.0793 55.3613 72.9625 55.9262H68.185C68.3798 51.8646 69.9009 48.5237 73.202 46.3809C75.0308 45.1906 75.4534 43.7179 75.4963 41.8419C75.6774 34.2914 70.306 28.0557 62.6422 26.92C55.6543 25.8759 48.678 30.6719 46.7655 37.7764C46.4675 38.8868 46.598 39.4342 47.7861 39.9192C51.4222 41.4387 53.7788 45.1984 53.434 48.6542H48.8066C48.1873 45.6796 46.5863 43.938 44.2025 43.9147C43.1956 43.9049 41.9199 44.1095 41.2344 44.7445C40.1145 45.7711 39.3783 47.2146 38.3636 48.6406L34.2172 48.6679ZM80.4392 43.8289C80.634 43.8484 80.8813 43.8757 81.1267 43.8971C87.3882 44.4309 92.2163 49.2737 92.5279 55.3321C92.8531 61.6398 88.586 66.9716 82.2485 68.0391C80.8132 68.2807 79.3272 68.2144 77.8528 68.2339C74.6744 68.2592 71.4979 68.2339 68.2006 68.2339C68.2006 70.4781 68.2006 72.5469 68.2006 74.6176C68.2006 77.2124 68.9602 77.9741 71.5388 77.9761C77.6756 77.9761 83.8085 77.9761 89.9493 77.9761C92.8259 77.9761 95.048 79.2325 96.4678 81.728C99.2276 86.5786 95.7472 92.524 90.0856 92.5688C82.2232 92.6311 74.3628 92.5844 66.5004 92.5883C64.4632 92.5883 63.3239 93.4883 63.3434 95.0486C63.3628 96.609 64.4866 97.4486 66.553 97.4584C67.9728 97.4584 69.3945 97.4272 70.8143 97.47C72.6854 97.5136 74.468 98.2761 75.792 99.5993C77.1161 100.923 77.8799 102.705 77.9249 104.576C77.9833 106.706 77.9405 108.837 77.9405 110.968C77.9405 112.928 77.9405 114.887 77.9405 116.968C81.5805 116.968 85.0219 116.999 88.4574 116.925C88.8353 116.925 89.2949 116.387 89.5578 115.994C91.5054 113.101 93.1394 109.955 95.385 107.323C98.6375 103.513 102.334 100.082 105.816 96.4668C110.966 91.135 114.107 84.8701 114.423 77.3624C114.785 69.0404 112.475 60.8209 107.833 53.9055C103.19 46.9901 96.4574 41.7417 88.6191 38.9277C85.8477 37.9322 82.9185 37.3693 80.0205 36.6095C80.1744 39.2257 80.301 41.4348 80.4392 43.8192V43.8289ZM37.4074 68.3041C35.0138 76.9767 37.1289 86.9429 43.1625 94.0707C46.1033 97.546 49.5506 100.589 52.6044 103.978C55.0408 106.68 57.2942 109.558 59.4949 112.46C60.5408 113.843 60.9303 116.107 62.2391 116.804C63.6569 117.56 65.7973 116.948 67.6241 116.943C69.451 116.937 71.2252 116.943 73.0774 116.943C73.0774 112.793 73.1007 108.887 73.0657 104.984C73.052 103.279 72.1153 102.375 70.4053 102.336C68.7829 102.297 67.1587 102.364 65.5363 102.311C64.0032 102.261 62.5246 101.73 61.3102 100.792C60.0958 99.855 59.2072 98.559 58.7704 97.0882C57.3876 92.3525 60.8465 87.7493 65.8869 87.7221C73.6987 87.6831 81.5085 87.7396 89.3202 87.6734C90.2005 87.6734 91.3243 87.3617 91.8774 86.7675C92.3565 86.2533 92.4422 85.0669 92.2435 84.2955C91.9436 83.1267 90.8471 82.8306 89.6864 82.8344C83.4995 82.8461 77.3114 82.8461 71.122 82.8344C66.3855 82.8228 63.3511 79.7643 63.3317 75.0092C63.3219 72.7904 63.3317 70.5735 63.3317 68.3021L37.4074 68.3041ZM146.063 104.832C137.089 103.908 134.013 96.4006 138.958 88.4273L135.71 84.9909C132.831 87.4805 129.575 88.4175 125.863 87.1338C122.19 85.8636 120.156 83.1403 119.391 79.6494C118.476 83.0624 117.529 86.5883 116.594 90.0753C126.827 90.2448 133.098 97.7895 133.887 105.66C134.679 113.574 129.45 121.322 121.726 123.546C116.785 124.97 112.078 124.31 107.737 121.544C103.395 118.778 100.932 114.667 99.9462 109.429C97.169 112.423 95.0305 115.468 93.6633 119.013C93.5173 119.403 93.638 120.003 93.8581 120.377C94.7929 122.027 95.235 123.724 94.8416 125.627C94.7676 125.983 94.9604 126.502 95.2078 126.796C96.0063 127.77 96.8846 128.68 97.7825 129.669C101.093 126.747 104.613 125.851 108.523 127.483C112.434 129.116 114.249 132.248 114.561 136.318H119.29C119.605 132.12 121.467 129.063 125.327 127.468C129.24 125.851 132.753 126.792 135.86 129.486L139.219 126.174C136.493 123.028 135.554 119.518 137.192 115.598C138.83 111.679 141.942 109.856 146.079 109.56L146.063 104.832ZM138.923 32.8206C144.7 28.5076 147.245 22.2681 145.664 16.1065C144.115 10.0675 139.285 5.83252 132.989 4.97343C127.569 4.23513 120.844 7.56432 118.242 12.1227L138.923 32.8206ZM34.1588 135.677C27.8779 129.389 21.6456 123.149 15.3939 116.894C13.5028 121.811 11.5318 126.895 9.61538 131.999C9.50047 132.303 9.71081 132.887 9.96594 133.148C12.5874 135.827 15.238 138.476 17.9179 141.094C18.1964 141.365 18.8508 141.537 19.2014 141.406C24.2573 139.503 29.2899 137.547 34.1588 135.671V135.677ZM26.61 120.317L44.2064 102.71L36.7063 93.9538L18.4808 112.185C21.1821 114.882 23.9963 117.704 26.61 120.317ZM38.9051 132.5C44.4362 126.961 50.0686 121.326 55.9601 115.429L48.6196 106.548L30.7778 124.406L38.9051 132.5ZM117.003 95.0194C114.707 95.0428 112.734 95.4869 111.229 97.6064C109.836 99.572 108.044 101.265 106.274 102.94C105.22 103.939 104.831 105.071 104.745 106.421C104.319 113.161 109.598 119.083 116.294 119.36C123.111 119.646 128.874 114.342 129.061 107.629C129.253 100.754 123.82 95.0681 117.003 95.0194ZM104.463 42.4673L115.476 31.6401L107.158 23.3531L94.641 35.8868L104.463 42.4673ZM127.639 43.8854L119.358 35.5732L108.473 46.4607L115.114 56.4074C119.266 52.2639 123.51 48.0192 127.647 43.8854H127.639ZM110.876 19.2973L131.466 39.8861L134.827 36.6563L114.183 16.0071L110.876 19.2973ZM75.3521 126.685C79.257 126.685 83.1639 126.685 87.0688 126.685C88.9833 126.685 90.1031 125.765 90.1031 124.25C90.1031 122.734 88.9872 121.82 87.0688 121.819C79.3603 121.811 71.6511 121.811 63.9413 121.819C62.0248 121.819 60.9089 122.734 60.9089 124.25C60.9089 125.765 62.0248 126.679 63.9413 126.685C67.7449 126.693 71.5485 126.685 75.3521 126.685ZM75.6151 136.425C79.4187 136.425 83.2223 136.425 87.026 136.425C88.9599 136.425 90.0739 135.54 90.1031 134.033C90.1324 132.525 89.0047 131.561 87.1116 131.559C79.3525 131.551 71.5927 131.551 63.8322 131.559C62.0151 131.559 60.9361 132.468 60.9108 133.945C60.8836 135.468 62.0034 136.415 63.9004 136.421C67.8033 136.437 71.7102 136.429 75.6151 136.429V136.425ZM66.9736 141.394C69.1939 144.607 72.0374 146.208 75.6793 146.148C79.185 146.089 81.9291 144.509 84.0014 141.394H66.9736ZM7.33281 137.859C6.59857 139.768 5.77474 141.778 5.05803 143.825C4.58477 145.175 5.64231 146.488 6.92771 146.083C9.09927 145.399 11.2124 144.494 13.2204 143.726L7.33281 137.859Z" fill="#1C2B5C"/>
</g>
<defs>
<clipPath id="clip0_3107_509">
<rect width="151" height="151" fill="white"/>
</clipPath>
</defs>
</svg>
