<svg width="1001" height="571" viewBox="0 0 1001 571" fill="none" xmlns="http://www.w3.org/2000/svg">
<g clip-path="url(#clip0_1270_141)">
<rect width="1920" height="10620" transform="translate(-410 -1406)" fill="white"/>
<path d="M871 568C871 459.261 833.177 354.976 765.851 278.086C698.526 201.196 607.213 158 512 158C416.787 158 325.474 201.196 258.149 278.086C190.823 354.976 153 459.261 153 568L512 568H871Z" fill="#3A71FF"/>
<path d="M29 568.962C29 569.683 29.6686 570.263 30.5012 570.263H950.499C951.331 570.263 952 569.683 952 568.962C952 568.241 951.331 567.661 950.499 567.661H30.5012C29.6686 567.661 29 568.241 29 568.962Z" fill="#3F3D58"/>
<path d="M584 87.8652L617 97V57H587.054L584 87.8652Z" fill="#F8A8AB"/>
<path d="M613 68C630.673 68 645 55.2401 645 39.5C645 23.7599 630.673 11 613 11C595.327 11 581 23.7599 581 39.5C581 55.2401 595.327 68 613 68Z" fill="#F8A8AB"/>
<path d="M604.892 41.7339L609.306 46.5056L617.282 34.0566C617.282 34.0566 627.464 34.5259 627.464 27.7874C627.464 21.0488 636.807 20.8588 636.807 20.8588C636.807 20.8588 650.037 0.274373 622.636 5.69428C622.636 5.69428 603.625 -5.90544 594.182 4.00684C594.182 4.00684 565.202 17.0146 573.491 39.6553L587.273 63L590.395 57.7142C590.395 57.7142 588.502 35.5317 604.892 41.7115V41.7339Z" fill="#2F2E43"/>
<path d="M602 516H575V550H602V516Z" fill="#F8A8AB"/>
<path d="M597.596 568.913C593.082 569.272 570.491 570.863 569.356 566.258C568.322 562.035 569.848 557.621 570.062 557.016C572.23 537.814 573.037 537.601 573.529 537.478C574.298 537.277 576.542 538.229 580.185 540.313L580.412 540.447L580.463 540.682C580.526 540.985 582.139 548.031 589.792 546.945C595.036 546.205 596.738 545.175 597.281 544.67C596.839 544.491 596.285 544.177 595.894 543.64C595.326 542.856 595.226 541.847 595.604 540.637C596.587 537.445 599.537 532.728 599.663 532.538L600.004 532L630.008 549.992L648.541 554.697C649.94 555.055 651.062 555.94 651.629 557.128C652.411 558.786 651.932 560.713 650.419 561.923C647.053 564.611 640.371 569.216 633.349 569.787C631.483 569.944 629.012 570 626.239 570C614.653 570 597.734 568.936 597.608 568.913H597.596Z" fill="#2F2E43"/>
<path d="M634.873 229.154L565.967 226C565.967 226 555.404 261.831 568.751 299.167L570.357 524H609.295L646 292.073L634.873 229.154Z" fill="#2F2E43"/>
<path d="M623.021 80.8598L585.436 63C585.436 63 544.934 115.999 550.531 144.708C556.141 173.418 566.089 226.863 566.089 226.863L649 230L634.527 124.75L623.021 80.8598Z" fill="#1C2B5C"/>
<path d="M620 516H593V550H620V516Z" fill="#F8A8AB"/>
<path d="M616.94 568.913C612.373 569.272 589.509 570.863 588.36 566.258C587.314 562.035 588.858 557.621 589.075 557.016C591.269 537.814 592.086 537.601 592.583 537.478C593.362 537.277 595.633 538.229 599.32 540.313L599.55 540.447L599.601 540.682C599.665 540.985 601.298 548.031 609.042 546.945C614.35 546.205 616.073 545.175 616.621 544.67C616.175 544.491 615.613 544.177 615.218 543.64C614.644 542.856 614.542 541.847 614.924 540.637C615.92 537.445 618.905 532.728 619.033 532.538L619.377 532L649.743 549.992L668.499 554.697C669.915 555.055 671.051 555.94 671.625 557.128C672.416 558.786 671.931 560.713 670.4 561.923C666.994 564.611 660.231 569.216 653.125 569.787C651.236 569.944 648.736 570 645.929 570C634.203 570 617.081 568.936 616.953 568.913H616.94Z" fill="#2F2E43"/>
<path d="M649.82 229.154L565.986 226C565.986 226 555.372 261.831 568.784 299.167L584.994 524H624.119L661 292.073L649.82 229.154Z" fill="#2F2E43"/>
<path d="M640.674 377C634.788 377 628.372 375.713 622.031 374.449C617.335 373.511 613.197 373.274 609.881 373.094C604.844 372.812 600.857 372.586 598.642 369.955C596.453 367.359 596.453 362.944 598.642 354.24C601.553 342.679 608.033 324.209 615.956 309.013C626.195 289.414 636.029 280.394 645.205 282.234C657.494 284.695 662.392 302.996 664.227 313.676C666.784 328.59 666.556 346.315 663.67 357.785C659.848 372.97 651.077 376.989 640.661 376.989H640.674V377ZM642.914 285.406C636.168 285.406 627.891 294.19 619.411 310.447C611.602 325.406 605.223 343.594 602.35 354.985C600.515 362.301 600.313 366.286 601.68 367.923C602.844 369.3 605.894 369.481 610.109 369.707C613.564 369.899 617.867 370.136 622.854 371.141C642.673 375.103 655.064 376.548 659.962 357.051C665.214 336.165 661.215 288.918 644.369 285.542C643.888 285.44 643.395 285.395 642.901 285.395H642.914V285.406Z" fill="#DFDFE0"/>
<path d="M721 514.91L533.178 516L504 504.145L521 351L538.101 351.767L714.061 359.674L721 514.91Z" fill="#D92C06"/>
<path opacity="0.2" d="M533.091 516L504 504.145L520.95 351L538 351.767L533.091 516Z" fill="#272223"/>
<path d="M643.314 348C639.906 348 636.177 347.255 632.511 346.52C629.791 345.972 627.392 345.84 625.46 345.731C622.544 345.566 620.23 345.435 618.951 343.911C617.683 342.409 617.683 339.855 618.951 334.813C620.636 328.115 624.389 317.427 628.991 308.635C634.922 297.29 640.632 292.072 645.948 293.135C653.072 294.56 655.915 305.149 656.973 311.343C658.449 319.981 658.326 330.242 656.653 336.874C654.438 345.665 649.356 347.989 643.314 347.989V348ZM644.619 294.977C640.706 294.977 635.907 300.063 630.997 309.479C626.469 318.139 622.765 328.663 621.116 335.262C620.046 339.493 619.935 341.806 620.735 342.749C621.412 343.549 623.171 343.648 625.62 343.78C627.626 343.889 630.111 344.032 633.003 344.613C644.483 346.904 651.669 347.737 654.512 336.457C657.551 324.366 655.238 297.016 645.48 295.064C645.197 295.01 644.914 294.977 644.631 294.977H644.619Z" fill="#DFDFE0"/>
<path d="M691 431.357L579.352 432L562 424.965L572.108 334L582.278 334.454L686.882 339.152L691 431.357Z" fill="#9FCEFF"/>
<path opacity="0.2" d="M579.97 432L562 424.965L572.467 334L583 334.454L579.97 432Z" fill="#1C2B5C"/>
<path d="M650.481 286.01C652.38 294.275 648.901 301.828 642.732 302.878C636.563 303.928 630.024 298.069 628.138 289.804C627.335 286.507 627.462 283.097 628.507 279.846L621 244.721L640.399 242L645.74 276.91C648.149 279.575 649.767 282.691 650.481 286.01Z" fill="#F8A8AB"/>
<path d="M575 79.6662C575 79.6662 602.995 76.5026 606.341 83.9629C609.686 91.4232 649 269 649 269H623.067L575 79.6662Z" fill="#1C2B5C"/>
<path d="M379 117.549L351 126V89H376.408L379 117.549Z" fill="#F8A8AB"/>
<path d="M355.5 100C371.24 100 384 88.8071 384 75C384 61.1929 371.24 50 355.5 50C339.76 50 327 61.1929 327 75C327 88.8071 339.76 100 355.5 100Z" fill="#F8A8AB"/>
<path d="M363.347 72.4219C358.68 72.2975 355.615 68.0347 353.8 64.1451C351.986 60.2555 350.122 55.7892 345.793 54.1836C342.252 52.8719 336.009 61.748 333.219 59.3848C330.303 56.9199 333.144 44.2672 336.234 41.9945C339.324 39.7218 343.553 39.2808 347.532 39.1112C357.241 38.7042 367.013 39.4165 376.534 41.2143C382.427 42.3224 388.483 43.9959 392.737 47.8403C398.117 52.7249 399.493 60.0858 399.881 66.9719C400.281 74.0162 399.831 81.3884 396.04 87.5507C392.249 93.7131 384.316 98.2585 376.709 96.6868C375.946 92.9555 376.722 89.1224 377.022 85.3232C377.31 81.5354 377.01 77.4422 374.445 74.4232C371.88 71.4042 366.412 70.2057 363.434 72.8855" fill="#2F2E43"/>
<path d="M397.444 81.0952C400.211 79.235 403.524 77.6716 406.924 78.0596C410.598 78.4704 413.712 81.255 414.655 84.5531C415.598 87.8512 414.544 91.4802 412.26 94.1735C409.989 96.8667 406.602 98.647 403.028 99.5371C400.956 100.051 398.685 100.268 396.712 99.4915C393.808 98.3389 392.232 94.9266 393.374 92.2106" fill="#2F2E43"/>
<path d="M370 519H344V552H370V519Z" fill="#F8A8AB"/>
<path d="M318.761 571C315.988 571 313.517 570.944 311.651 570.787C304.641 570.216 297.947 565.611 294.581 562.923C293.068 561.713 292.589 559.786 293.371 558.128C293.938 556.94 295.06 556.044 296.459 555.697L314.992 550.992L344.996 533L345.337 533.538C345.463 533.739 348.413 538.456 349.396 541.637C349.774 542.847 349.674 543.856 349.106 544.64C348.715 545.177 348.161 545.491 347.719 545.67C348.262 546.175 349.964 547.205 355.208 547.945C362.861 549.02 364.474 541.973 364.537 541.682L364.588 541.447L364.815 541.312C368.458 539.229 370.702 538.277 371.471 538.478C371.95 538.601 372.757 538.825 374.938 558.016C375.152 558.621 376.678 563.035 375.644 567.258C374.522 571.851 351.93 570.272 347.404 569.913C347.278 569.925 330.36 571 318.774 571H318.761Z" fill="#2F2E43"/>
<path d="M445.759 492.337L423.359 504.734L443.179 532.938L465.579 520.54L445.759 492.337Z" fill="#F8A8AB"/>
<path d="M416.019 566.989C412.893 566.989 410.021 566.656 407.975 566.345C405.967 566.035 404.391 564.637 404.061 562.884C403.832 561.62 404.252 560.344 405.243 559.401L418.268 546.821L433.136 517.733L433.746 518.022C433.975 518.133 439.325 520.718 442.083 522.936C443.137 523.779 443.658 524.678 443.633 525.599C443.62 526.242 443.341 526.752 443.061 527.119C443.824 527.296 445.895 527.363 450.826 525.543C458.018 522.892 455.172 516.214 455.044 515.936L454.943 515.714L455.057 515.504C456.925 512.054 458.26 510.212 459.047 510.023C459.543 509.901 460.356 509.713 473.738 524.833C474.284 525.233 478.236 528.239 479.888 532.266C481.68 536.648 461.411 545.845 457.332 547.642C457.205 547.73 435.996 561.187 427.278 565.014C423.822 566.534 419.73 567 416.006 567L416.019 566.989Z" fill="#2F2E43"/>
<path d="M389.769 241H315.719L309 301.917L338.403 527H376.204L361.086 397.001L422.404 514.368L456 493.57L408.12 384C408.12 384 425.221 288.548 411.783 264.768C398.344 240.989 389.769 241 389.769 241Z" fill="#2F2E43"/>
<path d="M427 243H309L344.396 109H395.811L427 243Z" fill="#9FCEFF"/>
<path d="M280.501 105.99C278.666 97.7251 282.029 90.1717 287.993 89.1217C293.956 88.0717 300.277 93.9315 302.1 102.196C302.876 105.493 302.753 108.903 301.743 112.154L309 147.279L290.247 150L285.085 115.09C282.756 112.425 281.191 109.309 280.501 105.99Z" fill="#F8A8AB"/>
<path d="M395.502 109.011H350.268L319.776 162.793L308.271 122.49L283 124.854C283 124.854 288.98 203.598 315.111 200.934C341.242 198.269 402.189 127.329 395.489 109H395.502V109.011Z" fill="#9FCEFF"/>
<path d="M437.314 366C433.906 366 430.178 365.241 426.511 364.493C423.791 363.935 421.392 363.801 419.46 363.69C416.544 363.522 414.23 363.388 412.951 361.837C411.683 360.308 411.683 357.707 412.951 352.573C414.636 345.753 418.389 334.871 422.991 325.92C428.922 314.368 434.632 309.055 439.948 310.138C447.072 311.589 449.915 322.37 450.973 328.677C452.449 337.472 452.326 347.919 450.653 354.671C448.438 363.623 443.356 365.989 437.314 365.989V366ZM438.619 312.013C434.706 312.013 429.907 317.192 424.997 326.779C420.469 335.597 416.765 346.311 415.116 353.031C414.046 357.339 413.935 359.694 414.735 360.654C415.412 361.468 417.171 361.569 419.62 361.703C421.626 361.814 424.111 361.96 427.003 362.551C438.483 364.884 445.669 365.732 448.512 354.247C451.551 341.936 449.238 314.089 439.48 312.102C439.197 312.046 438.914 312.013 438.631 312.013H438.619Z" fill="#DFDFE0"/>
<path d="M485 448.357L372.487 449L355 441.965L365.186 351L375.435 351.454L480.85 356.152L485 448.357Z" fill="#0027A8"/>
<path opacity="0.2" d="M372.97 449L355 441.965L365.467 351L376 351.454L372.97 449Z" fill="#272223"/>
<path d="M445.481 315.289C447.38 323.418 443.901 330.847 437.732 331.88C431.563 332.913 425.024 327.149 423.138 319.02C422.335 315.777 422.462 312.424 423.507 309.225L416 274.676L435.399 272L440.74 306.338C443.149 308.959 444.767 312.024 445.481 315.289Z" fill="#F8A8AB"/>
<path d="M369 109.429C369 109.429 394.63 108.464 395.967 109.429C402.964 114.512 444 298 444 298H418.004L369 109.429Z" fill="#9FCEFF"/>
</g>
<defs>
<clipPath id="clip0_1270_141">
<rect width="1920" height="10620" fill="white" transform="translate(-410 -1406)"/>
</clipPath>
</defs>
</svg>
