<svg width="129" height="156" viewBox="0 0 129 156" fill="none" xmlns="http://www.w3.org/2000/svg">
<g clip-path="url(#clip0_3108_531)">
<rect width="129" height="156" fill="#E2F3FF"/>
<path d="M55.8621 14.2854C58.2996 14.8416 60.7448 15.3673 63.1747 15.9577C68.0803 17.1501 72.9706 18.3958 77.8761 19.5767C78.7175 19.7647 79.5107 20.1259 80.2053 20.6375C80.8998 21.149 81.4807 21.7996 81.9108 22.5481C84.4789 26.8222 87.0331 31.1028 89.5733 35.3897C92.9501 41.0619 96.2737 46.7608 99.7304 52.3835C101.187 54.7606 101.415 57.111 100.734 59.7814C96.8656 75.0192 93.0426 90.2683 89.2653 105.529C86.6034 116.195 83.9414 126.855 81.2795 137.509C80.2984 141.437 79.3782 145.379 78.3362 149.288C77.0129 154.24 72.5333 156.926 67.5821 155.711C56.6987 153.044 45.8381 150.255 34.9623 147.547C25.8586 145.279 16.7485 143.031 7.63207 140.804C4.43017 140.042 1.87854 138.519 0.578008 135.288C-0.231974 133.288 -0.117888 131.3 0.38027 129.273C3.45034 116.763 6.51154 104.254 9.56386 91.7464C13.2145 76.8413 16.8676 61.9338 20.5233 47.0236C21.0937 44.6923 21.7136 42.3685 22.2346 40.0219C22.7822 37.5496 24.2994 35.8315 26.2731 34.403C34.705 28.2546 43.1229 22.0935 51.527 15.9196C52.7791 14.9578 54.2876 14.3892 55.8621 14.2854ZM44.1117 119.94C43.5108 122.477 42.9366 124.892 42.3738 127.277C42.081 128.53 42.4194 129.041 43.6972 129.345C45.5415 129.784 47.3858 130.222 49.2225 130.679C50.8311 131.06 51.1239 130.858 51.4585 129.201C51.9871 126.606 52.5765 124.02 53.1127 121.548C55.3145 121.269 57.4288 121.125 59.4899 120.709C64.076 119.791 68.0765 117.7 71.1491 114.104C77.0775 107.171 77.3931 95.8377 68.4035 88.9617C65.2434 86.5427 61.5814 85.217 57.9232 83.8418C54.6756 82.619 51.3711 81.5104 48.23 80.0324C45.5681 78.7867 44.0888 76.4743 44.3969 73.4039C44.6935 70.4364 46.4579 68.5126 49.1807 67.4574C51.1092 66.7427 53.1894 66.5393 55.2194 66.867C59.8968 67.5298 63.6235 69.4612 64.9088 74.4858C65.1598 75.4801 65.8062 75.9639 66.8672 75.9487C69.2705 75.9144 71.6814 75.7887 74.0734 75.9487C77.6821 76.1887 78.013 73.903 77.4616 71.6059C77.3969 71.3278 77.3057 71.0535 77.2144 70.7831C75.313 65.1413 71.6244 61.1795 66.1865 58.8443C64.9468 58.3148 63.6653 57.8881 62.3229 57.3815C62.8249 55.0196 63.3192 52.7073 63.8098 50.395C64.0456 49.2941 63.8288 48.9284 62.6994 48.6465C60.8931 48.2008 59.0792 47.7817 57.2653 47.3474C55.4514 46.9132 55.0597 47.1874 54.6832 49.0007C54.3068 50.814 53.858 52.5587 53.5424 54.3568C53.3789 55.2977 52.972 55.5453 52.0517 55.5263C47.1881 55.4349 42.6438 56.5739 38.708 59.5262C32.7339 64.0061 29.9959 69.9564 31.19 77.4305C32.0988 83.1447 35.5403 87.1598 40.4915 89.7578C43.8379 91.514 47.4657 92.7368 50.9642 94.1958C53.3751 95.2015 55.8735 96.0358 58.1665 97.2434C60.5318 98.5005 61.8818 100.672 61.7031 103.434C61.5243 106.196 59.8854 107.955 57.4706 109.068C54.8277 110.279 52.0441 110.374 49.2491 109.887C44.2714 109.018 40.3241 106.794 38.8373 101.529C38.5445 100.481 37.8257 100.036 36.7572 100.036C34.4755 100.036 32.1673 100.013 29.8704 100.005C26.9842 100.005 25.8205 101.487 26.4974 104.291C26.574 104.605 26.6692 104.914 26.7826 105.217C29.1707 111.83 33.8747 116.108 40.3241 118.595C41.5524 119.106 42.8149 119.494 44.1117 119.94ZM63.9885 39.6867C64.7959 39.6913 65.5961 39.5349 66.3425 39.2266C67.0889 38.9182 67.7666 38.4642 68.336 37.8909C68.9055 37.3175 69.3554 36.6364 69.6595 35.8872C69.9635 35.1379 70.1157 34.3356 70.1071 33.5268C70.1603 30.186 67.2779 27.3632 63.8288 27.3746C62.2378 27.3887 60.7166 28.0311 59.5958 29.1625C58.475 30.2938 57.8452 31.8225 57.8433 33.4164C57.8348 34.2326 57.9871 35.0424 58.2915 35.7996C58.5959 36.5568 59.0464 37.2463 59.6172 37.8288C60.1881 38.4112 60.868 38.8752 61.6181 39.194C62.3682 39.5128 63.1737 39.6802 63.9885 39.6867Z" fill="#1C2B5C"/>
<path d="M101.301 77.5828C101.932 75.0343 102.468 72.7715 103.081 70.5277C103.166 70.3597 103.289 70.2137 103.44 70.1014C103.591 69.989 103.766 69.9133 103.951 69.8801C109.887 69.0916 114.759 66.4821 118.311 61.5642C122.113 56.2957 122.63 48.6997 119.505 43.6598C119.303 43.3284 119.067 43.016 118.79 42.6161C117.881 43.5303 117.033 44.3798 116.185 45.2255C114.561 46.8483 112.964 48.4978 111.306 50.0825C110.027 51.375 108.293 52.1136 106.476 52.1396C106.118 52.163 105.76 52.0842 105.444 51.9123C105.129 51.7404 104.868 51.4824 104.693 51.1682C100.985 45.0731 97.2548 38.978 93.5624 32.8829C92.8398 31.683 93.0148 30.2659 94.2354 29.1688C95.2397 28.2707 96.3997 27.5645 97.6579 27.085C99.354 26.5144 101.085 26.055 102.841 25.7098C104.682 25.2831 105.237 24.5098 104.978 22.5632C104.431 18.4566 102.43 15.1348 99.3729 12.4339C91.8397 5.77123 80.4277 5.95789 73.3242 13.0396C73.2304 13.1387 73.117 13.2173 72.9914 13.2704C72.8657 13.3235 72.7305 13.35 72.5941 13.3482C69.9322 12.7311 67.2703 12.072 64.5171 11.4016C65.9393 9.03211 67.8559 7.36357 69.8942 5.8398C80.5684 -2.27428 94.5359 -1.92001 104.594 6.94454C109.964 11.6797 113.04 17.6833 112.77 25.0622C112.622 29.2107 110.488 31.782 106.495 32.8677C105.145 33.2487 103.777 33.5153 102.438 33.9191C100.244 34.582 99.3957 36.0067 99.8597 38.2695C100.204 40.0918 101.247 41.7067 102.765 42.7684C104.628 44.0789 106.389 43.9417 107.99 42.3494C110.051 40.2999 112.055 38.1933 114.093 36.1248C115.234 34.9819 116.493 34.0867 118.147 33.8734C120.501 33.5725 122.269 34.6658 123.665 36.3762C127.935 41.6104 129.597 47.6521 128.836 54.3643C127.456 66.4669 117.938 75.5943 105.575 77.1866C104.218 77.3619 102.868 77.4571 101.301 77.5828Z" fill="#1C2B5C"/>
</g>
<defs>
<clipPath id="clip0_3108_531">
<rect width="129" height="156" fill="white"/>
</clipPath>
</defs>
</svg>
