<svg width="100" height="100" viewBox="0 0 100 100" fill="none" xmlns="http://www.w3.org/2000/svg">
<g clip-path="url(#clip0_882_167)">
<path d="M95.8193 66.2158H80.4063C81.3326 65.907 82.2572 65.5721 83.159 65.2105C89.0573 62.8485 92.0481 60.072 92.0481 56.9577C92.0481 52.1709 88.1777 50.5625 84.7627 49.1445C83.2994 48.5368 81.7873 47.9076 80.5483 47.0538C79.8814 46.5951 78.969 46.764 78.5112 47.4314C78.0527 48.0995 78.2213 49.013 78.8881 49.4724C80.3804 50.5013 82.0383 51.1901 83.6405 51.8559C87.1393 53.3091 89.1184 54.2623 89.1184 56.9577C89.1184 58.6769 86.5503 60.6912 82.0718 62.4853C76.7061 64.6342 70.479 65.7984 67.93 66.2158H63.1326C66.4186 63.6481 68.7471 60.1309 70.2371 55.4755C72.0514 49.8095 74.6377 45.648 78.6249 41.9825C79.7311 40.965 80.2232 39.5287 80.0508 38.1657L88.405 31.9386C88.6324 31.7697 88.9452 31.7636 89.184 31.9241C90.9937 33.1418 92.8553 33.4751 94.5665 32.8873C95.9162 32.424 96.9736 31.4547 97.5451 30.1575C98.1379 28.8106 98.1318 27.2374 97.5267 25.8408C96.734 24.0107 95.0464 22.7654 93.1215 22.5415C93.4847 20.6342 92.8034 18.6474 91.2981 17.3418C90.1499 16.3457 88.6537 15.868 87.1927 16.0316C85.7874 16.189 84.5476 16.9107 83.7015 18.0619C82.6296 19.522 82.3892 21.4009 83.0072 23.4955C83.0889 23.7714 82.9897 24.0688 82.7631 24.2339L74.3288 30.357C73.0821 29.7845 71.5669 29.8242 70.2669 30.5772C65.5824 33.2909 60.8453 34.5171 54.9066 34.5545C49.8063 34.5866 45.6132 35.8625 42.0876 38.4569C38.1524 41.3511 35.5149 45.5287 34.6604 50.2185C33.8006 54.9404 34.8466 59.6149 37.6061 63.3805C38.3759 64.4308 39.264 65.3795 40.2482 66.2158H21.6942C10.4225 63.9408 4.94309 58.3093 4.94309 49.0023C4.94309 41.9214 8.10091 34.6226 13.6078 28.9772C19.5595 22.8748 27.5094 19.5143 35.991 19.5143C45.7078 19.5143 55.8091 23.0659 63.7056 29.2585C64.3426 29.7585 65.2635 29.6453 65.7617 29.007C66.2607 28.3687 66.1485 27.4468 65.5115 26.9469C57.1099 20.3582 46.3502 16.5789 35.991 16.5789C26.7136 16.5789 18.0207 20.2535 11.5128 26.9255C5.47563 33.1143 2.0134 41.1615 2.0134 49.0023C2.0134 56.9516 5.51759 62.7124 12.4443 66.2158H4.18092C1.87531 66.2158 0 68.0948 0 70.4049C0 72.715 1.87531 74.5947 4.18092 74.5947H9.49251C9.57491 74.5947 9.64815 74.6437 9.67943 74.7201L10.6095 77.0012C11.7089 79.6981 14.2975 81.4402 17.2051 81.4402H82.7951C85.7027 81.4402 88.2913 79.6981 89.3907 77.0012L90.3208 74.7209C90.352 74.6444 90.4253 74.5947 90.5077 74.5947H95.8193C98.1241 74.5947 100 72.715 100 70.4049C100 68.0955 98.1249 66.2158 95.8193 66.2158ZM84.4843 26.609C85.7126 25.7131 86.2482 24.1277 85.8164 22.663C85.5737 21.8405 85.4189 20.6755 86.0613 19.801C86.5167 19.1803 87.105 18.9953 87.5185 18.9486C88.1708 18.876 88.8483 19.0992 89.3808 19.5609C90.3322 20.3865 90.4138 21.5026 90.1728 22.2716C89.9423 23.007 90.0797 23.8165 90.5405 24.4403C90.996 25.0664 91.7253 25.4394 92.4936 25.4394H92.4944C93.2993 25.4394 94.3377 25.8522 94.8389 27.0096C95.1189 27.6563 95.1288 28.3726 94.8641 28.9726C94.6962 29.3533 94.343 29.8601 93.6159 30.1101C92.5913 30.4617 91.5277 29.9656 90.8167 29.4871C89.5525 28.6363 87.8824 28.673 86.6587 29.5811L78.7378 35.4848L76.4871 32.4141L84.4843 26.609ZM39.9682 61.6437C37.69 58.5348 36.8287 54.6644 37.5428 50.746C38.2623 46.7961 40.4923 43.2713 43.821 40.8229C46.8316 38.6075 50.464 37.5175 54.9249 37.4899C61.4007 37.4487 66.5841 36.101 71.7332 33.1181C72.3001 32.7902 72.97 32.8384 73.3964 33.2076C73.4025 33.2129 73.4087 33.2175 73.4148 33.2229C73.4735 33.2764 73.5284 33.336 73.5765 33.4018L76.9258 37.9731C76.9724 38.0365 77.0143 38.1076 77.0486 38.1848C77.0502 38.1879 77.0517 38.1902 77.0532 38.1924C77.2836 38.713 77.1295 39.3735 76.6435 39.8199C72.262 43.8485 69.4253 48.4007 67.4478 54.5788C66.0852 58.8352 63.9589 61.9808 60.9483 64.1954C59.8253 65.0217 58.6007 65.7013 57.3075 66.2158H45.8001C43.4617 65.2419 41.4498 63.6656 39.9682 61.6437ZM95.8193 71.6593H31.2394C30.4307 71.6593 29.7745 72.316 29.7745 73.127C29.7745 73.9373 30.4307 74.5947 31.2394 74.5947H87.2072L86.6793 75.8912C86.0315 77.4789 84.5072 78.5048 82.7951 78.5048H17.2051C15.493 78.5048 13.9687 77.4789 13.3209 75.8912L12.793 74.5947H24.424C25.2327 74.5947 25.8889 73.9373 25.8889 73.127C25.8889 72.316 25.2327 71.6593 24.424 71.6593H4.18092C3.49045 71.6593 2.92969 71.0967 2.92969 70.4049C2.92969 69.7138 3.49045 69.1512 4.18092 69.1512H95.8193C96.509 69.1512 97.0705 69.7138 97.0705 70.4049C97.0705 71.0967 96.509 71.6593 95.8193 71.6593Z" fill="white"/>
</g>
<defs>
<clipPath id="clip0_882_167">
<rect width="100" height="100" fill="white"/>
</clipPath>
</defs>
</svg>
