<svg width="198" height="167" viewBox="0 0 198 167" fill="none" xmlns="http://www.w3.org/2000/svg">
<g clip-path="url(#clip0_2089_1227)">
<path d="M105.899 23.4567C112.468 18.6181 121.716 16.7631 128.952 20.538C120.806 24.0649 114.173 30.3514 110.228 38.2853C108.717 41.3505 107.358 44.9167 104.241 46.3333C102.302 47.2149 100.013 47.0446 98.0055 46.3329C95.9975 45.621 94.2114 44.4118 92.4501 43.2154L91.9219 43.152C95.0563 35.6322 99.3308 28.2953 105.899 23.4567Z" fill="#F0F0F0"/>
<path d="M128.892 20.6986C122.136 20.9097 115.618 23.2382 110.265 27.3534C109.097 28.2189 108.072 29.2627 107.23 30.4462C106.447 31.6255 105.995 32.9925 105.921 34.405C105.825 35.7207 105.88 37.0776 105.465 38.3471C105.243 38.9938 104.886 39.5865 104.419 40.0861C103.951 40.5858 103.382 40.9812 102.751 41.2464C101.194 41.9481 99.4767 42.0501 97.7942 42.0917C95.9261 42.1378 93.985 42.1563 92.2861 43.0334C92.0802 43.1397 91.9269 42.815 92.1324 42.7089C95.0883 41.1828 98.5424 42.1785 101.649 41.2702C103.099 40.8464 104.429 39.9844 105.011 38.5421C105.52 37.2809 105.465 35.8817 105.55 34.5487C105.602 33.1696 105.992 31.8243 106.686 30.6302C107.465 29.4077 108.447 28.3264 109.59 27.4325C112.131 25.3791 114.98 23.7369 118.033 22.5661C121.509 21.2105 125.193 20.458 128.924 20.341C129.155 20.3339 129.122 20.6915 128.892 20.6986Z" fill="white"/>
<path d="M111.912 25.9272C111.341 24.9378 111.142 23.7784 111.35 22.6561C111.557 21.5337 112.158 20.5215 113.045 19.8003C113.225 19.6549 113.46 19.927 113.28 20.0725C112.453 20.7426 111.893 21.6855 111.702 22.731C111.511 23.7766 111.7 24.8558 112.237 25.774C112.353 25.9736 112.027 26.1257 111.912 25.9272Z" fill="white"/>
<path d="M105.882 33.7316C108.136 34.3596 110.543 34.1177 112.626 33.054C112.832 32.9485 112.985 33.2732 112.779 33.3786C110.61 34.4814 108.104 34.7281 105.761 34.0694C105.538 34.0065 105.66 33.669 105.882 33.7316Z" fill="white"/>
<path d="M121.493 21.6862C121.634 22.1148 121.879 22.502 122.207 22.8128C122.535 23.1235 122.935 23.3483 123.371 23.4667C123.595 23.5268 123.472 23.8643 123.25 23.8046C122.768 23.6715 122.327 23.4227 121.964 23.0802C121.601 22.7376 121.327 22.3116 121.168 21.8394C121.149 21.7961 121.147 21.7474 121.163 21.703C121.179 21.6586 121.212 21.622 121.254 21.6005C121.297 21.5804 121.346 21.5782 121.391 21.5942C121.436 21.6102 121.473 21.6433 121.493 21.6862Z" fill="white"/>
<path d="M134.688 47.5099C134.547 47.4764 134.406 47.4428 134.263 47.4113C132.366 46.97 130.436 46.6832 128.492 46.5536C128.342 46.5412 128.189 46.5309 128.039 46.5228C123.353 46.2604 118.659 46.8678 114.195 48.3143C112.419 48.8915 110.69 49.6026 109.023 50.4414C106.72 51.5999 104.315 53.0388 101.836 53.3616C101.578 53.3981 101.317 53.4187 101.057 53.4232L91.8845 43.7994C91.8746 43.7671 91.8625 43.7367 91.8526 43.7043L91.4688 43.3368C91.5517 43.2875 91.6388 43.2382 91.7218 43.189C91.7698 43.1602 91.8199 43.1336 91.8679 43.1048C91.9005 43.0863 91.9333 43.0679 91.9617 43.0494C91.9726 43.0432 91.9835 43.0371 91.9922 43.0329C92.0206 43.0144 92.049 43.0002 92.0752 42.9837C92.5614 42.7068 93.0503 42.4328 93.5421 42.1617C93.5443 42.1596 93.5443 42.1596 93.5486 42.1597C97.3011 40.1037 101.259 38.3421 105.359 37.2355C105.482 37.2023 105.607 37.1668 105.735 37.138C107.586 36.6494 109.474 36.3125 111.379 36.1306C112.423 36.0343 113.472 35.9908 114.52 36.0003C117.229 36.0299 119.916 36.4841 122.483 37.3464C127.6 39.0661 132.109 42.3986 134.508 47.1455C134.569 47.2669 134.629 47.3864 134.688 47.5099Z" fill="#F0F0F0"/>
<path d="M134.545 47.6045C129.023 43.7168 122.414 41.6629 115.654 41.7345C114.199 41.7242 112.751 41.9427 111.364 42.382C110.027 42.8534 108.84 43.6734 107.928 44.7567C107.057 45.7497 106.282 46.866 105.184 47.6306C104.617 48.0137 103.974 48.2728 103.299 48.3909C102.624 48.509 101.931 48.4835 101.267 48.3159C99.5998 47.9415 98.1673 46.9921 96.7989 46.0151C95.2794 44.9304 93.7184 43.7797 91.8323 43.4601C91.6038 43.4214 91.6774 43.07 91.9056 43.1087C95.1871 43.6648 97.3439 46.5336 100.373 47.6736C101.786 48.2055 103.369 48.316 104.704 47.5139C105.872 46.8124 106.673 45.662 107.546 44.6489C108.42 43.5791 109.544 42.7391 110.818 42.2022C112.179 41.6939 113.616 41.4201 115.068 41.3926C118.337 41.2787 121.603 41.678 124.747 42.5759C128.341 43.5807 131.737 45.1913 134.786 47.3379C134.975 47.4709 134.733 47.7365 134.545 47.6045Z" fill="white"/>
<path d="M117.83 41.5836C117.972 40.4512 118.512 39.4059 119.356 38.6344C120.199 37.863 121.29 37.4156 122.434 37.3722C122.665 37.3642 122.689 37.7225 122.457 37.7305C121.392 37.7689 120.376 38.1857 119.592 38.9057C118.808 39.6257 118.308 40.6014 118.182 41.6567C118.154 41.886 117.802 41.8116 117.83 41.5836Z" fill="white"/>
<path d="M108.302 44.1951C109.722 46.0493 111.791 47.3018 114.095 47.7027C114.324 47.7422 114.25 48.0935 114.022 48.054C111.624 47.6324 109.474 46.3247 108.001 44.3919C107.861 44.2076 108.163 44.0118 108.302 44.1951Z" fill="white"/>
<path d="M128.04 43.9501C127.893 44.3769 127.855 44.8332 127.929 45.2782C128.004 45.7232 128.187 46.1428 128.464 46.4995C128.607 46.6819 128.305 46.8775 128.163 46.6963C127.859 46.3008 127.657 45.8371 127.574 45.3457C127.491 44.8542 127.53 44.35 127.687 43.877C127.698 43.8312 127.727 43.7913 127.766 43.7655C127.806 43.7396 127.853 43.7298 127.9 43.7379C127.947 43.7478 127.987 43.7756 128.014 43.8154C128.04 43.8551 128.049 43.9035 128.04 43.9501Z" fill="white"/>
<path d="M104.166 30.6551H103.455V11.2381C103.455 9.76227 103.164 8.30092 102.597 6.93745C102.031 5.57398 101.201 4.33511 100.154 3.29156C99.1079 2.24801 97.8655 1.42022 96.4982 0.855451C95.1309 0.290684 93.6655 7.95612e-07 92.1855 0H50.9319C49.4519 -3.18232e-06 47.9864 0.290674 46.6191 0.855437C45.2518 1.4202 44.0095 2.24799 42.963 3.29153C41.9165 4.33508 41.0863 5.57396 40.52 6.93742C39.9536 8.30089 39.6621 9.76224 39.6621 11.238V117.762C39.6621 120.742 40.8495 123.601 42.9629 125.708C45.0764 127.816 47.9429 129 50.9318 129H92.1854C95.1744 129 98.0409 127.816 100.154 125.708C102.268 123.601 103.455 120.742 103.455 117.762V44.4765H104.166V30.6551Z" fill="#3F3D56"/>
<path d="M92.6399 2.92372H87.2549C87.5026 3.52914 87.5971 4.18601 87.5302 4.83645C87.4633 5.48689 87.237 6.11094 86.8713 6.65362C86.5055 7.19631 86.0115 7.64098 85.4329 7.94845C84.8542 8.25593 84.2086 8.41677 83.5529 8.41683H59.9192C59.2635 8.41678 58.6179 8.25593 58.0392 7.94846C57.4605 7.64098 56.9666 7.19632 56.6008 6.65363C56.2351 6.11094 56.0088 5.48689 55.9419 4.83645C55.875 4.186 55.9695 3.52913 56.2172 2.92371H51.1876C48.9555 2.92371 46.8148 3.80791 45.2365 5.3818C43.6582 6.95569 42.7715 9.09034 42.7715 11.3162V117.683C42.7715 118.786 42.9892 119.877 43.4121 120.895C43.8351 121.913 44.455 122.838 45.2365 123.618C46.018 124.397 46.9458 125.015 47.9669 125.437C48.988 125.859 50.0824 126.076 51.1876 126.076H92.6399C93.7451 126.076 94.8395 125.859 95.8606 125.437C96.8817 125.015 97.8095 124.397 98.591 123.618C99.3725 122.838 99.9924 121.913 100.415 120.895C100.838 119.877 101.056 118.786 101.056 117.683V11.3162C101.056 9.09034 100.169 6.95569 98.591 5.3818C97.0126 3.80791 94.872 2.92371 92.6399 2.92372Z" fill="white"/>
<path d="M72.7109 91.9067C69.6584 91.9096 66.6353 91.3121 63.8147 90.1486C60.994 88.985 58.4311 87.2782 56.2727 85.1258C54.1142 82.9735 52.4026 80.4178 51.2358 77.605C50.069 74.7923 49.4698 71.7777 49.4727 68.7338C49.4683 64.4595 50.6513 60.2676 52.8903 56.6228C55.1294 52.9781 58.337 50.023 62.1575 48.0853C64.9269 46.6803 67.9503 45.8422 71.0495 45.6204C74.1488 45.3986 77.2612 45.7975 80.2034 46.7938C85.4141 48.5644 89.8253 52.122 92.6514 56.8328C95.4775 61.5436 96.535 67.1019 95.6356 72.5175C94.7361 77.9332 91.9381 82.8547 87.7399 86.4055C83.5417 89.9562 78.2158 91.9057 72.7109 91.9067ZM72.7109 46.4695C69.1856 46.4592 65.709 47.2907 62.5719 48.8946C59.8297 50.2878 57.406 52.2311 55.4529 54.6027C53.4997 56.9743 52.0593 59.723 51.2221 62.6761C50.3849 65.6292 50.1689 68.7231 50.5878 71.7634C51.0066 74.8037 52.0512 77.7248 53.656 80.3434C55.2608 82.962 57.3912 85.2215 59.9133 86.98C62.4355 88.7385 65.2949 89.9581 68.3122 90.5623C71.3295 91.1664 74.4395 91.142 77.4469 90.4906C80.4542 89.8392 83.2941 88.5749 85.7882 86.777C86.994 85.9094 88.109 84.9228 89.1164 83.8322C92.0627 80.6533 94.0154 76.6868 94.7356 72.4182C95.4557 68.1496 94.912 63.7642 93.1709 59.7991C91.4299 55.8339 88.5671 52.4611 84.9331 50.0936C81.2991 47.7261 77.0517 46.4667 72.7109 46.4695Z" fill="#F0F0F0"/>
<path d="M22.357 48.1685C22.9948 48.2483 23.6074 48.4665 24.1515 48.8079C24.6956 49.1493 25.1581 49.6055 25.5063 50.1443C25.8545 50.6832 26.08 51.2916 26.1669 51.9268C26.2537 52.562 26.1999 53.2084 26.0091 53.8206L33.7301 60.2338L30.9662 65.8632L20.1903 56.6537C19.1802 56.266 18.3479 55.5223 17.8509 54.5634C17.354 53.6046 17.2271 52.4974 17.4941 51.4514C17.7612 50.4055 18.4038 49.4937 19.3 48.8886C20.1963 48.2835 21.2839 48.0273 22.357 48.1685Z" fill="#FFB6B6"/>
<path d="M94.466 74.9132C94.3111 73.2533 93.671 70.2694 93.1278 69.1661C91.458 64.8078 80.6687 61.2258 79.2199 60.764L78.8523 56.6898L63.8613 55.0813L61.9596 60.2915L56.583 62.3028C56.218 62.4386 55.8876 62.6532 55.6156 62.9313C55.3435 63.2094 55.1365 63.544 55.0095 63.9113L50.1857 65.3017L45.4256 66.6739L28.8885 55.0541L28.1077 55.563L22.8891 58.9587L22.084 59.4827L43.4845 78.736L51.4341 76.8761L57.4123 75.4736L57.9226 77.5394L56.6013 84.7973C60.4294 88.6161 65.4968 90.9499 70.8944 91.3801C76.292 91.8103 81.6668 90.3088 86.0546 87.1449L89.4507 84.1399C91.8176 81.5878 93.5647 78.5273 94.557 75.1949L94.466 74.9132Z" fill="#E4E4E4"/>
<path d="M76.0669 51.7494C81.7259 49.881 84.7946 43.7917 82.9209 38.1486C81.0473 32.5054 74.9408 29.4454 69.2818 31.3138C63.6227 33.1821 60.5541 39.2714 62.4277 44.9146C64.3014 50.5577 70.4078 53.6178 76.0669 51.7494Z" fill="#FFB6B6"/>
<path d="M64.1497 29.2611C65.1991 27.7668 66.7738 26.7208 68.5609 26.3311C70.328 25.9687 72.1671 26.305 73.6901 27.2692C75.3462 26.604 77.1319 26.1626 78.8862 26.387C80.6406 26.6114 82.3601 27.5885 83.1718 29.1984C83.3426 29.6155 83.5498 30.0167 83.791 30.3976C84.5062 31.3491 85.8353 31.4725 87.0091 31.5182C86.4156 31.8633 85.8221 32.2085 85.2285 32.5536C85.82 32.8284 86.4116 33.1033 87.0032 33.3782C86.198 33.6847 85.393 33.9911 84.5879 34.2976C86.4617 35.9401 86.915 38.8632 86.2054 41.314C85.5337 43.6343 83.9936 45.5875 82.2739 47.2597C81.9384 46.0119 82.3075 44.6592 82.5532 43.3674C82.8128 42.0024 82.8544 40.4064 81.896 39.4427C81.2494 38.7926 80.3011 38.5963 79.4068 38.4385C74.8962 37.643 70.3438 37.104 65.7718 36.8241C65.1599 36.7398 64.5366 36.8032 63.9544 37.0091C62.8417 37.5022 62.3947 38.8562 62.0723 40.0567C61.9178 37.9494 62.0412 35.831 62.4393 33.7556C62.7443 32.1673 63.2248 30.5775 64.1497 29.2611Z" fill="#2F2E41"/>
<path d="M78.179 102.824H65.4207C64.9776 102.824 64.5527 102.649 64.2393 102.337C63.926 102.024 63.75 101.6 63.75 101.158C63.75 100.717 63.926 100.293 64.2393 99.9804C64.5527 99.668 64.9776 99.4924 65.4207 99.4924H78.179C78.6221 99.4924 79.047 99.668 79.3604 99.9804C79.6737 100.293 79.8497 100.717 79.8497 101.158C79.8497 101.6 79.6737 102.024 79.3604 102.337C79.047 102.649 78.6221 102.824 78.179 102.824Z" fill="black"/>
<path d="M36.3133 13.6691H1.2206C0.897216 13.6686 0.587249 13.5402 0.358766 13.312C0.130282 13.0838 0.00195313 12.7745 0.00195312 12.452C0.00195313 12.1295 0.130282 11.8202 0.358766 11.592C0.587249 11.3638 0.897216 11.2354 1.2206 11.2349H36.3133C36.637 11.2349 36.9475 11.3631 37.1764 11.5914C37.4053 11.8196 37.5339 12.1292 37.5339 12.452C37.5339 12.7748 37.4053 13.0844 37.1764 13.3126C36.9475 13.5409 36.637 13.6691 36.3133 13.6691Z" fill="black"/>
<path d="M56.5746 21.4428H1.22049C0.896793 21.4428 0.586357 21.3146 0.357471 21.0863C0.128585 20.8581 0 20.5485 0 20.2257C0 19.9029 0.128585 19.5934 0.357471 19.3651C0.586357 19.1369 0.896793 19.0087 1.22049 19.0087H56.5746C56.8983 19.0087 57.2087 19.1369 57.4376 19.3651C57.6665 19.5934 57.7951 19.9029 57.7951 20.2257C57.7951 20.5485 57.6665 20.8581 57.4376 21.0863C57.2087 21.3146 56.8983 21.4428 56.5746 21.4428Z" fill="black"/>
<path d="M45.9373 28.7665H1.22049C0.896794 28.7665 0.586356 28.6383 0.357471 28.41C0.128585 28.1818 0 27.8722 0 27.5495C0 27.2267 0.128585 26.9171 0.357471 26.6889C0.586356 26.4606 0.896794 26.3324 1.22049 26.3324H45.9373C46.261 26.3324 46.5714 26.4606 46.8003 26.6889C47.0292 26.9171 47.1578 27.2267 47.1578 27.5495C47.1578 27.8722 47.0292 28.1818 46.8003 28.41C46.5714 28.6383 46.261 28.7665 45.9373 28.7665Z" fill="#CACACA"/>
<path d="M26.436 36.0631H1.22049C0.896794 36.0631 0.586356 35.9349 0.357471 35.7067C0.128585 35.4784 0 35.1689 0 34.8461C0 34.5233 0.128585 34.2137 0.357471 33.9855C0.586356 33.7573 0.896794 33.629 1.22049 33.629H26.436C26.7597 33.629 27.0701 33.7573 27.299 33.9855C27.5279 34.2137 27.6565 34.5233 27.6565 34.8461C27.6565 35.1689 27.5279 35.4784 27.299 35.7067C27.0701 35.9349 26.7597 36.0631 26.436 36.0631Z" fill="#CACACA"/>
<path d="M40.3656 43.3593H1.22051C0.897152 43.3588 0.587217 43.2303 0.358747 43.0021C0.130278 42.774 0.00195313 42.4647 0.00195312 42.1422C0.00195313 41.8198 0.130278 41.5105 0.358747 41.2823C0.587217 41.0541 0.897152 40.9257 1.22051 40.9252H40.3656C40.689 40.9257 40.9989 41.0541 41.2274 41.2823C41.4558 41.5105 41.5842 41.8198 41.5842 42.1422C41.5842 42.4647 41.4558 42.774 41.2274 43.0021C40.9989 43.2303 40.689 43.3588 40.3656 43.3593Z" fill="#CACACA"/>
<path d="M150.687 162.431L147.541 162.431L146.045 150.333L150.687 150.333L150.687 162.431Z" fill="#9F616A"/>
<path d="M151.924 166.772L139.916 166.771V166.62C139.916 165.384 140.409 164.198 141.285 163.324C142.162 162.45 143.35 161.959 144.59 161.959H144.59L146.784 160.3L150.876 161.959L151.924 161.959L151.924 166.772Z" fill="#2F2E41"/>
<path d="M148.854 105.574L147.467 88.7078L146.377 82.3773L152.478 81.0336L154.503 89.7004L152.739 106.042C153.095 106.477 153.312 107.008 153.363 107.566C153.414 108.125 153.296 108.687 153.025 109.178C152.753 109.67 152.341 110.069 151.84 110.325C151.339 110.581 150.773 110.682 150.214 110.615C149.655 110.548 149.13 110.315 148.704 109.948C148.279 109.58 147.974 109.094 147.827 108.552C147.681 108.01 147.701 107.437 147.884 106.906C148.067 106.376 148.405 105.912 148.854 105.574Z" fill="#9F616A"/>
<path d="M133.979 162.431L130.834 162.431L129.338 150.333L133.98 150.333L133.979 162.431Z" fill="#9F616A"/>
<path d="M128.946 109.397L127.552 111.802C127.552 111.802 126.02 112.22 126.52 117.2C127.021 122.18 127.043 151.687 129.466 155.318L129.905 158.435L134.482 158.872L134.597 156.105L140.055 117.67C140.055 117.67 143.269 155.401 145.928 156.324L146.888 159.468L151.082 159.47L150.835 155.765L151.105 109.007L128.946 109.397Z" fill="#2F2E41"/>
<path d="M127.413 111.619L127.316 111.594C130.194 100.86 129.364 86.9604 127.332 72.0347L127.332 71.9728L134.678 65.2631H141.057L147.381 69.3327C151.47 71.371 152.399 75.6876 152.408 75.731L152.414 75.7618L149.909 84.4809L151.796 109.696L151.798 109.726L151.787 109.753C151.177 111.297 149.54 111.077 147.645 110.822C145.753 110.568 138.782 112.894 136.645 112.894C132.468 112.894 127.711 111.695 127.413 111.619Z" fill="#E4E4E4"/>
<path d="M146.057 72.7312L148.798 71.5424L152.408 75.9567L155.335 90.1021L145.311 88.5875L146.057 72.7312Z" fill="#E4E4E4"/>
<path d="M103.907 98.8154L116.434 87.3999L120.788 82.6664L125.588 86.656L119.953 93.5566L105.913 102.166C105.786 102.713 105.498 103.209 105.086 103.591C104.674 103.973 104.156 104.224 103.6 104.311C103.044 104.397 102.475 104.316 101.965 104.078C101.456 103.84 101.029 103.455 100.741 102.973C100.452 102.491 100.315 101.934 100.346 101.374C100.377 100.814 100.576 100.276 100.916 99.8286C101.257 99.3816 101.723 99.0463 102.256 98.8658C102.789 98.6852 103.364 98.6677 103.907 98.8154Z" fill="#9F616A"/>
<path d="M116.162 87.5242L119.632 83.031C119.661 82.9665 122.539 76.5516 125.035 73.7644C127.594 70.9052 129.609 72.3674 129.63 72.3832L129.68 72.4209L129.819 82.9794L120.211 94.4271L116.162 87.5242Z" fill="#E4E4E4"/>
<path d="M143.009 58.9431C143.526 55.7641 141.361 52.7688 138.173 52.2529C134.985 51.7371 131.981 53.8959 131.464 57.0749C130.947 60.2539 133.112 63.2491 136.3 63.765C139.488 64.2809 142.491 62.122 143.009 58.9431Z" fill="#9F616A"/>
<path d="M131.89 57.1433C131.89 57.1433 131.843 55.0933 131.583 54.1862C131.323 53.2791 130.803 52.5015 131.063 52.5015C131.323 52.5015 131.453 51.8536 131.453 51.8536C131.453 51.8536 131.713 51.724 131.843 51.8536C131.973 51.9832 132.103 50.9465 132.103 50.9465C132.103 50.9465 132.233 50.5578 132.363 50.8169C132.492 51.0761 132.492 50.9465 132.622 50.5578C132.752 50.169 133.402 49.9098 133.402 49.9098C133.402 49.9098 135.871 50.0394 136.261 49.5211C136.651 49.0027 141.069 49.3915 141.979 50.0394C142.889 50.6873 146.917 53.0199 146.267 54.9637C145.617 56.9074 143.747 61.3829 143.278 61.8317C142.537 62.5412 142.024 62.7971 138.517 63.4929C137.831 63.6291 134.327 61.395 134.327 61.0062C134.327 60.6175 134.75 59.3846 134.071 59.2154C133.045 58.9595 132.929 60.2533 132.669 59.8646C132.409 59.4758 131.89 57.1433 131.89 57.1433Z" fill="#2F2E41"/>
<path d="M135.217 166.772L123.209 166.771V166.62C123.209 165.384 123.702 164.198 124.578 163.324C125.455 162.45 126.643 161.959 127.883 161.959H127.883L130.077 160.3L134.169 161.959L135.217 161.959L135.217 166.772Z" fill="#2F2E41"/>
<path d="M197.638 167H1.01013C0.9142 167 0.822208 166.962 0.754378 166.894C0.686548 166.827 0.648438 166.735 0.648438 166.639C0.648438 166.544 0.686548 166.452 0.754378 166.384C0.822208 166.317 0.9142 166.279 1.01013 166.279H197.638C197.733 166.279 197.825 166.317 197.893 166.384C197.961 166.452 197.999 166.544 197.999 166.639C197.999 166.735 197.961 166.827 197.893 166.894C197.825 166.962 197.733 167 197.638 167Z" fill="#CACACA"/>
</g>
<defs>
<clipPath id="clip0_2089_1227">
<rect width="198" height="167" fill="white"/>
</clipPath>
</defs>
</svg>
