<svg width="204" height="160" viewBox="0 0 204 160" fill="none" xmlns="http://www.w3.org/2000/svg">
<g clip-path="url(#clip0_2089_779)">
<path d="M202.743 9.94017H72.6914C72.4058 9.93353 72.1794 9.68477 72.1857 9.38453C72.1918 9.09363 72.4147 8.85933 72.6914 8.85291H202.743C203.028 8.85954 203.255 9.1083 203.248 9.40854C203.242 9.69944 203.019 9.93374 202.743 9.94017Z" fill="#E6E6E6"/>
<path d="M95.5938 65.8049H148.063C148.196 65.8049 148.304 65.9186 148.304 66.0588V98.1283C148.304 98.2685 148.196 98.3822 148.063 98.3822H95.5938V65.8049Z" fill="#E6E6E6"/>
<path d="M148.002 98.5555L95.5254 66.051L95.6636 65.559L148.14 98.0635C148.27 98.1036 148.343 98.2463 148.305 98.3822C148.267 98.518 148.131 98.5956 148.002 98.5555Z" fill="white"/>
<path d="M95.6636 98.6282L95.5254 98.1362L148.002 65.6317C148.131 65.5915 148.267 65.6691 148.305 65.805C148.343 65.9409 148.27 66.0835 148.14 66.1236L95.6636 98.6282Z" fill="white"/>
<path d="M142.105 33.7238H101.736C101.105 33.7238 100.594 34.2614 100.594 34.9247V34.9247C100.594 35.5879 101.105 36.1256 101.736 36.1256H142.105C142.736 36.1256 143.247 35.5879 143.247 34.9247C143.247 34.2614 142.736 33.7238 142.105 33.7238Z" fill="#E6E6E6"/>
<path d="M147.531 41.2208H96.3085C95.6775 41.2208 95.166 41.7585 95.166 42.4217V42.4217C95.166 43.085 95.6775 43.6227 96.3085 43.6227H147.531C148.162 43.6227 148.673 43.085 148.673 42.4217C148.673 41.7585 148.162 41.2208 147.531 41.2208Z" fill="#E6E6E6"/>
<path d="M147.531 48.7179H96.3085C95.6775 48.7179 95.166 49.2556 95.166 49.9188C95.166 50.5821 95.6775 51.1197 96.3085 51.1197H147.531C148.162 51.1197 148.673 50.5821 148.673 49.9188C148.673 49.2556 148.162 48.7179 147.531 48.7179Z" fill="black"/>
<path d="M196.104 74.0265C196.1 83.2976 190.526 91.5551 182.202 94.6214C182.025 94.688 181.849 94.7486 181.67 94.8072C170.753 98.4759 159.073 92.147 155.583 80.6712C152.093 69.1954 158.114 56.9184 169.031 53.2497C179.948 49.5811 191.628 55.91 195.118 67.3857C195.771 69.5325 196.103 71.7727 196.104 74.0265Z" fill="#E6E6E6"/>
<path d="M147.522 51.6014C147.439 52.6125 148.151 53.5034 149.113 53.5912C149.215 53.6006 149.319 53.6004 149.421 53.5907L151.977 59.5432L153.702 56.6749L151.011 51.462C150.86 50.454 149.96 49.7654 149.001 49.9241C148.199 50.0569 147.587 50.7503 147.522 51.6014Z" fill="#FFB6B6"/>
<path d="M172.707 74.0183C172.67 73.8424 172.623 73.6691 172.565 73.4993C172.199 72.4052 171.453 71.497 170.477 70.9565C170.454 70.9424 170.429 70.9282 170.406 70.9161L158.731 64.6894L157.695 62.5667L153.51 53.9971L152.484 54.3182L150.06 55.0756L150.004 55.0918L154.024 69.3104L154.946 70.0537L165.393 78.4516L165.733 78.7263C167.468 80.1188 169.911 79.9677 171.48 78.3708C171.636 78.2131 171.78 78.043 171.912 77.8618C172.708 76.7692 173 75.3601 172.707 74.0183Z" fill="black"/>
<path d="M179.196 89.6347L179.135 87.2919L178.958 80.4976C179.598 76.1492 180.051 75.6665 176.966 72.6935C176.727 72.6397 176.521 72.4828 176.399 72.2613C176.118 71.6594 176.793 70.6374 176.21 69.0641L171.616 69.3408L170.475 70.9565L165.883 77.46C165.703 77.7815 165.539 78.1125 165.391 78.4516C163.425 82.9394 166.09 85.3247 166.298 85.7347L167.57 89.9458L168.271 94.0296L168.498 94.5971L169.138 94.8435C173.219 96.1834 177.595 96.1707 181.669 94.8072C180.983 93.0136 180.156 91.2834 179.196 89.6347Z" fill="black"/>
<path d="M188.095 106.151C188.488 105.224 188.092 104.138 187.21 103.725C187.116 103.681 187.019 103.645 186.919 103.619L186.352 97.1158L183.83 99.2347L184.755 105.086C184.584 106.09 185.221 107.05 186.177 107.229C186.976 107.379 187.77 106.933 188.095 106.151Z" fill="#FFB6B6"/>
<path d="M179.308 74.2627C178.642 73.2031 177.589 72.4791 176.399 72.2612C176.144 72.2127 175.886 72.1884 175.627 72.1885C174.763 72.1886 173.919 72.4563 173.2 72.958C172.972 73.1163 172.759 73.2976 172.564 73.4993C170.818 75.277 170.773 78.206 172.464 80.0414L172.466 80.0431L179.135 87.2918L181.566 89.9336L182.202 94.6213L183.18 101.834L184.248 101.882L186.777 101.999L186.834 102.001L187.255 91.8947L187.451 87.1828L179.308 74.2627Z" fill="black"/>
<path d="M170.194 57.9778C168.57 61.3429 169.631 65.2408 172.645 67.2905C175.904 69.507 180.136 69.0217 181.504 64.7144C183.029 59.9177 181.776 57.86 179.054 55.4016C175.863 52.5207 171.949 54.3419 170.194 57.9778Z" fill="#2F2E41"/>
<path d="M178.19 65.4741C176.468 67.8477 173.241 68.3039 170.983 66.4931C168.727 64.6847 168.291 61.2984 170.008 58.9246L170.052 58.863C171.825 56.5306 175.061 56.1504 177.28 58.0138C179.448 59.8349 179.851 63.1361 178.189 65.4731L178.19 65.4741Z" fill="#FFB6B6"/>
<path d="M168.621 57.4329C169.457 58.2688 170.476 58.8755 171.587 59.1995C171.81 58.9286 172.074 58.6984 172.369 58.5186C172.228 58.8271 172.131 59.1559 172.082 59.4943C172.578 60.5759 174.603 61.3532 176.538 62.1485L179.102 57.3929L175.709 55.3719C172.982 53.3905 169.773 54.2362 168.621 57.4329Z" fill="#2F2E41"/>
<path d="M181.035 55.4075C181.538 55.2128 182.1 55.2991 182.529 55.6369C182.942 55.967 183.276 56.394 183.504 56.8838C183.919 57.6764 184.218 58.5306 184.389 59.4173C184.535 60.1843 184.51 61.1117 183.856 61.512C183.309 61.846 182.528 61.6357 182.026 61.1899C181.561 60.7223 181.208 60.1451 180.996 59.5059C180.751 58.8942 180.519 58.2599 180.084 57.7519L180.536 57.9739C180.393 57.5176 180.327 57.0387 180.339 56.5584C180.36 56.0722 180.625 55.6342 181.035 55.4075Z" fill="#2F2E41"/>
<path d="M175.166 56.0309L178.806 58.1991C180.856 59.4199 181.576 62.1563 180.415 64.311C178.731 67.4336 175.065 68.6984 171.948 67.2316L175.275 64.1449L170.762 66.5617L169.799 65.9878C174.638 65.0629 175.572 61.0725 175.166 56.0309Z" fill="#2F2E41"/>
<path d="M182.043 59.8415C182.655 60.5913 183.614 60.8827 184.48 61.2729C187.58 62.7026 189.809 65.6491 190.436 69.1463C190.676 70.5495 190.644 72.0019 191.022 73.3698C191.398 74.7377 192.328 76.0797 193.663 76.3171C194.566 76.4793 195.472 76.1126 196.321 75.7507C196.789 75.5533 197.256 75.355 197.723 75.1561C197.236 73.8704 196.749 72.5848 196.263 71.2992C197.044 72.5125 197.952 73.6296 198.971 74.6296C200.646 73.9198 202.322 73.21 203.999 72.5002C199.872 72.5167 200.576 68.3049 199.653 64.0791C199.145 61.757 194.823 60.1847 193.976 57.9754C192.652 54.5117 188.908 52.8317 185.613 54.2229C184.193 54.8225 183.023 55.9346 182.313 57.3596C181.466 57.7145 181.441 59.1012 182.043 59.8415Z" fill="#2F2E41"/>
<path d="M62.1434 100.525C61.37 99.4954 61.537 98.002 62.5162 97.189C62.6111 97.1103 62.7118 97.0397 62.8174 96.9779L61.6387 85.2057L64.6562 84.0624L65.959 98.0552C66.4827 99.2437 65.9907 100.653 64.86 101.204C63.9139 101.665 62.7909 101.384 62.1434 100.525Z" fill="#FFB6B6"/>
<path d="M60.5305 57.3644C60.5305 57.3644 65.4292 59.8768 65.4451 62.8304C65.461 65.784 65.8667 68.4554 65.4834 69.5982C65.1 70.741 66.4576 79.0479 65.8221 79.8705C65.1866 80.6932 66.4958 81.1142 65.8079 82.522C65.1199 83.9298 64.8153 84.1948 65.0674 84.515C65.3195 84.8352 65.6899 90.9381 65.6899 90.9381L61.6533 91.4687L57.3594 71.7707L60.5305 57.3644Z" fill="#3F3D56"/>
<path d="M37.2349 101.721C38.153 100.832 38.2121 99.33 37.3671 98.3649C37.2852 98.2714 37.1963 98.185 37.1013 98.1065L40.0311 86.6768L37.2228 85.0477L33.8374 98.6496C33.142 99.7364 33.4164 101.21 34.4503 101.941C35.3155 102.553 36.4667 102.462 37.2349 101.721Z" fill="#FFB6B6"/>
<path d="M45.3027 59.3677C45.3027 59.3677 40.0885 61.0367 39.6298 63.9508C39.171 66.8648 38.3696 69.4355 38.5767 70.6276C38.7839 71.8197 36.1973 79.7976 36.7014 80.7153C37.2056 81.633 35.8496 81.8317 36.3178 83.336C36.7859 84.8402 37.047 85.1524 36.75 85.4268C36.453 85.7012 35.1719 91.6664 35.1719 91.6664L39.0783 92.8593L46.2733 74.1194L45.3027 59.3677Z" fill="#3F3D56"/>
<path d="M65.3267 152.856L68.8045 152.856L70.4591 138.755L65.3262 138.755L65.3267 152.856Z" fill="#FFB6B6"/>
<path d="M69.9609 153.185V150.707L69.0466 150.766L65.3247 150.998L64.4633 151.053L63.8048 159.354L63.7695 159.799H66.239L66.3184 159.357L66.677 157.348L67.6031 159.357L67.8059 159.799H74.353C75.1638 159.793 75.8194 159.103 75.8229 158.25C76.0993 156.894 70.6547 153.961 69.9609 153.185Z" fill="#2F2E41"/>
<path d="M24.582 148.877L27.607 150.681L35.6661 139.275L31.2017 136.613L24.582 148.877Z" fill="#FFB6B6"/>
<path d="M28.459 151.566L29.6203 149.412L28.803 148.989L25.4545 147.261L24.6784 146.86L20.8654 152.728L19.9688 154.106L20.983 154.712L22.1149 155.389L23.6494 153.485L23.4789 156.201L28.8265 159.394H28.8295L29.1734 159.598C29.8806 160.017 30.7777 159.756 31.1784 159.013C32.0545 157.975 28.6972 152.604 28.459 151.566Z" fill="#2F2E41"/>
<path d="M48.0677 83.6381C40.3595 83.9292 37.6505 116.965 40.0044 117.564L29.0195 139.083L44.6549 146.45L54.9354 108.928L56.6488 122.736L54.3643 144.649L64.4707 147.218L71.4611 146.693C69.6447 120.573 65.1095 93.0249 61.351 82.3688L48.0677 83.6381Z" fill="#2F2E41"/>
<path d="M44.5293 85.9544L44.4786 86.1549C49.4055 89.0363 52.7699 88.4199 58.1557 86.6758L62.0874 85.8071C62.9456 84.6308 62.2462 83.4803 61.2954 82.36L63.6524 61.9816C63.6366 59.3414 61.5876 57.2146 59.0759 57.2313C58.9727 57.232 58.8695 57.2364 58.7666 57.2444L55.226 54.4874L50.1856 54.6702L46.8141 58.5849L44.7998 59.3414L43.2348 59.9278C42.9184 60.2274 42.5731 60.5727 42.2422 60.9535L44.7177 76.4394L45.7707 81.07C44.3592 82.7617 43.5815 84.413 44.5293 85.9544Z" fill="#3F3D56"/>
<path d="M15.9346 157.241C12.2669 156.782 8.99223 154.607 7.02283 151.323C5.7583 149.167 5.10581 146.607 4.47478 144.131C4.29105 143.411 4.10119 142.666 3.90012 141.948C3.43502 140.342 3.94596 138.6 5.1906 137.549C6.39383 136.489 8.08963 136.305 9.47347 137.084L9.62112 137.167L9.87985 143.279C10.2632 142.461 11.1045 140.611 11.771 138.763L11.8269 138.609L11.9547 138.706C13.2947 139.718 14.5081 140.903 15.5664 142.233C19.3485 147.067 20.9166 153.404 19.8542 159.561L19.822 159.743L15.9346 157.241Z" fill="#F2F2F2"/>
<path d="M1.29636e-06 159.698C-0.000469657 159.864 0.127439 159.999 0.285693 160H203.713C203.871 160 204 159.865 204 159.698C204 159.531 203.871 159.396 203.713 159.396H0.287406C0.129144 159.395 0.000472249 159.53 3.7115e-06 159.696L1.29636e-06 159.698Z" fill="#CCCCCC"/>
<path d="M59.8735 51.011L59.8785 51.0096C60.4274 50.8569 60.7546 50.2654 60.6093 49.6884L59.145 43.8571C58.8836 42.8121 58.4249 41.833 57.7964 40.978C56.5671 39.3103 54.773 38.2055 52.788 37.894C51.7634 37.7344 50.7188 37.7945 49.717 38.0707C45.6184 39.2007 44.4737 40.6256 44.2424 47.9174C44.011 55.2093 45.709 53.7577 45.709 53.7577C45.7441 53.8983 45.8058 54.03 45.8905 54.145C46.056 54.3691 46.2975 54.5173 46.5646 54.5587C46.7016 54.5798 46.8412 54.5717 46.9752 54.535C52.0934 53.9811 57.2769 53.4768 59.8743 51.0108L59.8735 51.011Z" fill="#2F2E41"/>
<path d="M47.8392 44.8547C47.088 48.0417 48.937 51.2653 51.9689 52.0549C53.422 52.4333 54.9586 52.1906 56.2418 51.3802C57.5246 50.5757 58.4478 49.265 58.8053 47.7404C59.5539 44.5527 57.7025 41.3307 54.6699 40.5438C53.2204 40.1676 51.6883 40.4092 50.4076 41.2158C49.123 42.0191 48.198 43.3295 47.8392 44.8547Z" fill="#FFB6B6"/>
<path d="M61.0233 43.8435C60.8165 43.0171 60.4538 42.2427 59.9566 41.5665C59.2504 39.7159 58.1426 38.2201 55.9962 39.1282C55.1911 39.0031 54.3704 39.0496 53.5827 39.2647L52.4709 39.567C52.4584 39.5703 52.446 39.5738 52.4335 39.5772C49.2005 40.4765 47.2732 43.9604 48.1288 47.3588L48.1581 47.4756L50.5095 46.8338L50.7198 44.2595L51.4717 46.5717L52.6864 46.2407L52.7922 44.942L53.1716 46.1076C55.4746 47.0482 58.1438 46.1151 61.0516 43.9608L61.0233 43.8435Z" fill="#2F2E41"/>
<path d="M55.6287 51.9923C55.7128 52.1706 55.7476 52.3702 55.7292 52.5682C55.7204 52.6695 55.6982 52.7689 55.6631 52.8636C55.6331 52.9443 55.594 53.0211 55.5468 53.0922C55.4067 53.3023 55.2001 53.4531 54.9638 53.5175C54.9491 53.5215 54.9342 53.5251 54.9194 53.5284C54.9045 53.5318 54.8895 53.5348 54.8744 53.5374C54.8593 53.5403 54.8441 53.5426 54.8288 53.5445C54.8136 53.5465 54.7982 53.5481 54.7826 53.5495L53.909 53.6215L52.1131 51.3614L52.7063 53.7234L48.7358 54.0579L46.2188 44.0345L52.5811 42.3035L52.4721 42.5388C52.1123 43.327 51.9663 44.2042 52.0503 45.074C52.1394 45.9538 52.3712 46.8111 52.7357 47.6086C53.0985 48.4172 53.5342 49.1874 54.037 49.9085C54.4789 50.5483 54.9555 51.1609 55.4645 51.7431C55.53 51.8177 55.5853 51.9016 55.6287 51.9923Z" fill="#2F2E41"/>
<path d="M87.1283 4.38942C88.2563 4.38942 89.1707 3.40681 89.1707 2.19471C89.1707 0.982604 88.2563 0 87.1283 0C86.0004 0 85.0859 0.982604 85.0859 2.19471C85.0859 3.40681 86.0004 4.38942 87.1283 4.38942Z" fill="#3F3D56"/>
<path d="M94.183 4.38942C95.311 4.38942 96.2254 3.40681 96.2254 2.19471C96.2254 0.982604 95.311 0 94.183 0C93.055 0 92.1406 0.982604 92.1406 2.19471C92.1406 3.40681 93.055 4.38942 94.183 4.38942Z" fill="#3F3D56"/>
<path d="M101.24 4.38942C102.368 4.38942 103.282 3.40681 103.282 2.19471C103.282 0.982604 102.368 0 101.24 0C100.112 0 99.1973 0.982604 99.1973 2.19471C99.1973 3.40681 100.112 4.38942 101.24 4.38942Z" fill="#3F3D56"/>
<path d="M109.284 3.92932C109.221 3.92932 109.158 3.90379 109.111 3.85297L107.733 2.37215C107.641 2.27348 107.641 2.1158 107.733 2.01713L109.111 0.536439C109.205 0.43628 109.358 0.434668 109.453 0.532474C109.548 0.630525 109.55 0.7913 109.456 0.891458L108.243 2.19464L109.456 3.49795C109.55 3.5981 109.548 3.75888 109.453 3.85693C109.406 3.90528 109.345 3.92932 109.284 3.92932Z" fill="#3F3D56"/>
<path d="M111.601 3.92939C111.54 3.92939 111.479 3.90534 111.432 3.85699C111.337 3.75894 111.335 3.59829 111.428 3.49801L112.641 2.1947L111.428 0.891522C111.335 0.791364 111.337 0.630589 111.432 0.532537C111.527 0.434362 111.68 0.436222 111.774 0.536503L113.152 2.01719C113.243 2.11587 113.243 2.27354 113.152 2.37221L111.774 3.85303C111.726 3.90385 111.664 3.92939 111.601 3.92939Z" fill="#3F3D56"/>
<path d="M183.695 0.25415H181.132C180.84 0.25415 180.604 0.502936 180.604 0.810122V3.5062C180.604 3.81339 180.84 4.06217 181.132 4.06217H183.695C183.987 4.06217 184.226 3.81339 184.226 3.5062V0.810122C184.226 0.502936 183.987 0.25415 183.695 0.25415Z" fill="#3F3D56"/>
<path d="M177.416 0.25415H174.853C174.561 0.25415 174.324 0.502936 174.324 0.810122V3.5062C174.324 3.81339 174.561 4.06217 174.853 4.06217H177.416C177.708 4.06217 177.947 3.81339 177.947 3.5062V0.810122C177.947 0.502936 177.708 0.25415 177.416 0.25415Z" fill="#3F3D56"/>
<path d="M189.611 0.380981H187.048C186.756 0.380981 186.52 0.629767 186.52 0.936953V3.63303C186.52 3.94022 186.756 4.189 187.048 4.189H189.611C189.903 4.189 190.142 3.94022 190.142 3.63303V0.936953C190.142 0.629767 189.903 0.380981 189.611 0.380981Z" fill="#3F3D56"/>
<path d="M150.989 1.40662H130.506C130.149 1.40662 129.861 1.71126 129.861 2.08445C129.861 2.45765 130.149 2.76228 130.506 2.76228H150.989C151.344 2.76228 151.634 2.45763 151.634 2.08445C151.634 1.71128 151.344 1.40662 150.989 1.40662Z" fill="#3F3D56"/>
</g>
<defs>
<clipPath id="clip0_2089_779">
<rect width="204" height="160" fill="white"/>
</clipPath>
</defs>
</svg>
