<svg width="551" height="349" viewBox="0 0 551 349" fill="none" xmlns="http://www.w3.org/2000/svg">
<g clip-path="url(#clip0_1631_80)">
<path d="M461.349 27.3228H0.511719C1.16261 23.6287 2.43378 20.1338 4.21039 16.9685C9.88483 6.85178 20.7053 0 33.1032 0H428.758C441.148 0 451.976 6.85178 457.643 16.9685C459.419 20.1338 460.698 23.6287 461.349 27.3228Z" fill="#F2F2F2"/>
<path d="M438 345.724C438 346.23 437.594 346.636 437.089 346.636H247.72C247.214 346.636 246.809 346.23 246.809 345.724C246.809 345.479 246.901 345.264 247.054 345.103H315.759C317.222 345.103 318.654 345.004 320.063 344.812H437.089C437.594 344.812 438 345.218 438 345.724Z" fill="#3F3D56"/>
<path d="M225.641 159.822H10.2167C8.21456 159.822 6.58594 157.759 6.58594 155.223C6.58594 152.687 8.21456 150.625 10.2167 150.625H225.641C227.643 150.625 229.271 152.687 229.271 155.223C229.271 157.759 227.643 159.822 225.641 159.822Z" fill="#E6E6E6"/>
<path d="M348.35 25.3228C347.699 21.6287 346.421 18.1338 344.644 14.9685C338.977 4.85178 328.149 -2 315.759 -2H-79.8954C-92.2933 -2 -103.114 4.85178 -108.788 14.9685C-110.565 18.1338 -111.836 21.6287 -112.487 25.3228C-112.824 27.2082 -113 29.1473 -113 31.1323V313.504C-113 331.775 -98.1516 346.636 -79.8954 346.636H315.759C319.542 346.636 323.187 345.992 326.579 344.812C339.536 340.321 348.863 327.981 348.863 313.504V31.1323C348.863 29.1549 348.687 27.2082 348.35 25.3228ZM347.332 313.504C347.332 329.491 335.462 342.712 320.063 344.812C318.654 345.004 317.222 345.103 315.759 345.103H-32.869C-76.281 345.103 -111.468 309.879 -111.468 266.43V31.1323C-111.468 29.1473 -111.285 27.2082 -110.932 25.3228C-110.243 21.598 -108.903 18.1108 -107.027 14.9685C-101.521 5.72551 -91.428 -0.467163 -79.8954 -0.467163H315.759C327.292 -0.467163 337.384 5.72551 342.89 14.9685C344.767 18.1108 346.107 21.598 346.796 25.3228C347.148 27.2082 347.332 29.1473 347.332 31.1323V313.504Z" fill="#3F3D56"/>
<path d="M328.033 163.607L325.441 154.098L337.102 149.776L338.398 158.42L328.033 163.607Z" fill="#FFB6B6"/>
<path opacity="0.1" d="M328.033 163.607L325.441 154.098L332.309 151.199L330.175 162.41L328.033 163.607Z" fill="black"/>
<path d="M293.895 245.107C291.668 243.781 291.55 239.866 293.633 236.363C294.544 234.829 295.726 233.629 296.954 232.875L298.177 230.876L313.647 203.119C313.647 203.119 320.419 176.941 323.176 173.776C325.933 170.611 329.919 171.357 329.919 171.357L333.455 174.5L320.836 211.577L305.263 233.526L303.176 236.58C303.1 238.02 302.61 239.632 301.698 241.166C299.616 244.669 296.122 246.433 293.895 245.107Z" fill="#FFB6B6"/>
<path d="M327.394 160.891C327.394 160.891 332.315 160.701 335.419 164.526C338.524 168.352 322.259 211.469 322.259 211.469L309.012 210.999L327.394 160.891Z" fill="#6C63FF"/>
<path d="M328.679 155.611C335.357 155.611 340.772 150.192 340.772 143.508C340.772 136.824 335.357 131.405 328.679 131.405C322 131.405 316.586 136.824 316.586 143.508C316.586 150.192 322 155.611 328.679 155.611Z" fill="#FFB6B6"/>
<path d="M300.391 319.217L292.185 339.532L287.435 334.777L285.707 325.7L292.617 317.055L300.391 319.217Z" fill="#FFB6B6"/>
<path d="M377.267 311.868L385.472 321.378L381.586 329.158L372.948 327.862L368.629 315.759L377.267 311.868Z" fill="#FFB6B6"/>
<path d="M322.634 198.403L321.555 215.909L348.332 211.155L346.604 200.348L322.634 198.403Z" fill="#FFB6B6"/>
<path d="M321.339 216.125L348.332 207.264C348.332 207.264 358.265 227.148 347.468 239.683C336.671 252.218 300.825 323.539 300.825 323.539L290.027 318.352L305.575 272.966L322.851 231.038L321.339 216.125Z" fill="#2F2E41"/>
<path d="M347.466 232.335L357.831 277.721L379.426 312.733L368.197 319.216L337.965 277.721L328.031 245.734L347.466 232.335Z" fill="#2F2E41"/>
<path d="M281.82 323.971H274.34C274.34 323.971 265.612 320.513 263.567 323.971C261.521 327.429 272.693 337.237 272.693 337.237C272.693 337.237 288.298 346.016 290.457 345.584C292.617 345.151 293.481 339.964 293.481 339.964L296.072 333.913L292.185 335.21C292.185 335.21 287.002 332.184 288.298 326.997L281.82 323.971Z" fill="#2F2E41"/>
<path d="M383.744 322.675V318.352L388.765 322.675C388.765 322.675 397.132 325.7 390.654 332.184C384.176 338.668 375.97 345.584 375.97 345.584C375.97 345.584 363.013 349.042 362.15 345.151C361.286 341.261 362.15 339.687 362.15 339.687L366.9 337.371L371.219 326.133L378.129 326.997L383.744 322.675Z" fill="#2F2E41"/>
<path d="M332.351 145.885L328.464 145.453L321.338 138.321C321.338 138.321 314.859 141.779 314.859 139.185C314.859 127.082 322.201 127.515 328.248 126.65C334.294 125.786 333.646 125.57 335.59 128.811C336.479 130.294 339.693 131.189 339.693 131.189C339.693 131.189 345.739 122.976 348.762 132.918C351.786 142.86 347.899 173.549 350.922 176.143C353.945 178.736 338.509 181.326 340.18 171.17C341.852 161.014 344.875 145.453 343.148 141.995C341.42 138.537 340.988 139.402 340.988 139.402C343.129 138.527 344.528 153.936 336.456 154.691L336.238 147.182C336.238 147.182 334.942 143.292 332.351 145.885Z" fill="#2F2E41"/>
<path d="M326.953 160.798L339.91 155.611L357.185 207.481L321.641 206.185L318.44 190.703C318.44 190.703 315.316 182.646 317.907 177.891C320.498 173.136 326.953 160.798 326.953 160.798Z" fill="#6C63FF"/>
<path d="M360.667 247.686C358.084 247.908 355.709 244.796 355.36 240.735C355.207 238.957 355.469 237.292 356.027 235.964L355.856 233.625L352.257 202.047C352.257 202.047 345.558 176.217 345.954 172.036C346.351 167.856 346.977 166.746 346.977 166.746L351.68 167.237L363.024 204.725L363.157 231.644L363.241 235.344C364.017 236.558 364.558 238.153 364.711 239.931C365.059 243.992 363.249 247.464 360.667 247.686Z" fill="#FFB6B6"/>
<path d="M338.828 159.717C338.828 159.717 342.715 156.691 347.466 157.988C352.217 159.285 364.117 203.806 364.117 203.806L353.08 211.155L338.828 159.717Z" fill="#6C63FF"/>
<path d="M113.829 234.547H62.0195C58.8577 234.547 56.2852 231.973 56.2852 228.808V223.622C56.2852 220.458 58.8577 217.884 62.0195 217.884H113.829C116.991 217.884 119.563 220.458 119.563 223.622V228.808C119.563 231.973 116.991 234.547 113.829 234.547Z" fill="#6C63FF"/>
<path d="M425.93 67.0701H374.121C370.959 67.0701 368.387 64.4954 368.387 61.3309V56.1449C368.387 52.9804 370.959 50.4065 374.121 50.4065H425.93C429.092 50.4065 431.665 52.9804 431.665 56.1449V61.3309C431.665 64.4954 429.092 67.0701 425.93 67.0701Z" fill="#6C63FF"/>
<path d="M190.688 234.931H138.879C135.506 234.931 132.762 232.184 132.762 228.808V223.622C132.762 220.247 135.506 217.501 138.879 217.501H190.688C194.061 217.501 196.805 220.247 196.805 223.622V228.808C196.805 232.184 194.061 234.931 190.688 234.931ZM138.879 219.033C136.351 219.033 134.293 221.092 134.293 223.622V228.808C134.293 231.339 136.351 233.398 138.879 233.398H190.688C193.217 233.398 195.274 231.339 195.274 228.808V223.622C195.274 221.092 193.217 219.033 190.688 219.033H138.879Z" fill="#6C63FF"/>
<path d="M254.239 136.063H-18.378C-20.9116 136.063 -22.9727 134 -22.9727 131.464C-22.9727 128.928 -20.9116 126.866 -18.378 126.866H254.239C256.772 126.866 258.833 128.928 258.833 131.464C258.833 134 256.772 136.063 254.239 136.063Z" fill="#E6E6E6"/>
<path d="M77.2578 63.3368H42.7978C40.2641 63.3368 38.2031 61.274 38.2031 58.7383C38.2031 56.2025 40.2641 54.1398 42.7978 54.1398H77.2578C79.7914 54.1398 81.8524 56.2025 81.8524 58.7383C81.8524 61.274 79.7914 63.3368 77.2578 63.3368Z" fill="#E6E6E6"/>
<path d="M283.254 63.3368H248.794C246.26 63.3368 244.199 61.274 244.199 58.7383C244.199 56.2025 246.26 54.1398 248.794 54.1398H283.254C285.788 54.1398 287.849 56.2025 287.849 58.7383C287.849 61.274 285.788 63.3368 283.254 63.3368Z" fill="#E6E6E6"/>
<path d="M348.344 63.3368H313.884C311.35 63.3368 309.289 61.274 309.289 58.7383C309.289 56.2025 311.35 54.1398 313.884 54.1398H348.344C350.877 54.1398 352.938 56.2025 352.938 58.7383C352.938 61.274 350.877 63.3368 348.344 63.3368Z" fill="#E6E6E6"/>
<path d="M193.742 183.581H42.1181C39.5845 183.581 37.5234 181.518 37.5234 178.982C37.5234 176.446 39.5845 174.384 42.1181 174.384H193.742C196.276 174.384 198.337 176.446 198.337 178.982C198.337 181.518 196.276 183.581 193.742 183.581Z" fill="#E6E6E6"/>
<path d="M200.347 284.177H35.5086C33.9767 284.177 32.7305 282.93 32.7305 281.397C32.7305 279.864 33.9767 278.616 35.5086 278.616H200.347C201.879 278.616 203.125 279.864 203.125 281.397C203.125 282.93 201.879 284.177 200.347 284.177Z" fill="#E6E6E6"/>
<path d="M314.882 16.3982H150.044C148.512 16.3982 147.266 15.1509 147.266 13.6177C147.266 12.0844 148.512 10.8372 150.044 10.8372H314.882C316.414 10.8372 317.66 12.0844 317.66 13.6177C317.66 15.1509 316.414 16.3982 314.882 16.3982Z" fill="white"/>
</g>
<defs>
<clipPath id="clip0_1631_80">
<rect width="551" height="349" fill="white"/>
</clipPath>
</defs>
</svg>
