<svg width="71" height="58" viewBox="0 0 71 58" fill="none" xmlns="http://www.w3.org/2000/svg">
<path d="M69.5 15.0013C74 32.5008 58.4345 57.9999 38 57.9999C17.5655 57.9999 0.5 47.4356 0.5 27.0011C0.5 6.56654 10 27.0011 25.5 23.501C44 16.5 60.5 2.00052 69.5 15.0013Z" fill="#3A71FF"/>
<g clip-path="url(#clip0_0_1)">
<path d="M46.8486 16.4098L49.5938 13.7777C54.3847 18.8705 55.2109 28.2246 49.8311 34.9248C43.4729 42.8482 32.1534 43.191 25.3475 37.6002C18.221 31.7479 17.0251 21.0029 22.7908 13.8697C28.7505 6.49288 38.624 6.05269 44.4894 9.59586C43.7972 10.644 43.105 11.6904 42.3984 12.7566C38.5805 11.0175 34.7391 10.8316 30.885 12.5238C28.1235 13.7114 25.8757 15.8374 24.543 18.5223C21.7326 24.0337 23.2402 30.9216 28.0565 34.6272C33.1119 38.5167 40.2602 38.3074 45.004 34.223C49.9417 29.9781 51.1666 22.0493 46.8486 16.4098Z" fill="black"/>
<path d="M19.3734 35.2783L23.7421 39.7416C22.7473 40.7464 21.7815 41.726 20.8139 42.6948C19.1916 44.3257 17.5681 45.9553 15.9433 47.5838C15.3888 48.1412 14.7981 48.6428 14.0172 48.8737C13.379 49.0616 12.697 49.0403 12.0719 48.8129C11.4468 48.5855 10.9116 48.1641 10.5454 47.6109C9.80249 46.5284 9.82061 44.9535 10.6741 43.9739C11.3644 43.1801 12.1472 42.4639 12.8956 41.717C14.9322 39.6784 16.9774 37.6368 19.0309 35.5922C19.1378 35.4912 19.2466 35.3974 19.3734 35.2783Z" fill="black"/>
<path d="M51.0923 11.5407L48.4685 8.7119L54.1926 2.93891C53.707 2.93891 53.3119 2.93891 52.9242 2.93891C52.0291 2.91365 51.4293 2.33094 51.4184 1.48304C51.4165 1.29169 51.4525 1.10186 51.5243 0.924374C51.5962 0.746893 51.7024 0.585254 51.8371 0.448698C51.9717 0.312142 52.1321 0.203349 52.309 0.128542C52.4859 0.053735 52.6758 0.0143805 52.868 0.0127301C53.5203 -0.0161348 54.1726 0.00190623 54.8268 0.00190623C56.0009 0.00190623 57.1824 0.00190623 58.3511 0.00190623C58.7395 -0.0168587 59.1206 0.111518 59.4178 0.361209C59.715 0.610901 59.9062 0.963378 59.9529 1.34773C59.9895 1.5901 60.0052 1.83514 60 2.08018C60 3.62445 60 5.17053 59.9891 6.7148C59.9782 7.70523 59.5923 8.28253 58.8439 8.50082C58.654 8.56349 58.4525 8.58407 58.2537 8.5611C58.0549 8.53814 57.8635 8.4722 57.693 8.36789C57.5225 8.26358 57.3769 8.12342 57.2665 7.95722C57.156 7.79103 57.0834 7.60282 57.0537 7.40576C56.9932 6.86298 56.9618 6.31739 56.9595 5.77128L51.0923 11.5407Z" fill="black"/>
<path d="M40.3762 32.6949V31.5241C40.3762 27.0885 40.3792 22.6523 40.3852 18.2155C40.3852 16.803 41.1626 15.8594 42.3784 15.771C43.6468 15.679 44.6506 16.6731 44.6669 18.0568C44.6814 19.2998 44.6669 20.541 44.6669 21.784C44.6669 24.7318 44.6669 27.6796 44.6778 30.6238C44.6881 30.7729 44.6657 30.9223 44.6122 31.0619C44.5587 31.2015 44.4754 31.3278 44.368 31.4321C43.9947 31.7929 43.6432 32.1862 43.2808 32.5542C43.2017 32.6313 43.0977 32.678 42.9872 32.6859C42.1465 32.7057 41.3075 32.6949 40.3762 32.6949Z" fill="black"/>
<path d="M38.269 32.5019H34.0217C34.0217 32.3377 34 32.1844 34 32.031C34 28.4806 34 24.9303 34 21.3871C34 20.559 34.2573 19.814 35.002 19.3395C35.3142 19.1376 35.6745 19.0214 36.0463 19.0027C36.4182 18.984 36.7884 19.0634 37.1194 19.233C37.4505 19.4026 37.7307 19.6562 37.9316 19.9683C38.1325 20.2803 38.2471 20.6397 38.2636 21.01C38.298 21.6433 38.2636 22.2729 38.2636 22.9151V32.5109L38.269 32.5019Z" fill="black"/>
<path d="M31.0209 32.7057C30.4773 32.7057 29.9844 32.722 29.4952 32.6949C29.3429 32.6663 29.2056 32.5851 29.1074 32.4658C28.3736 31.6666 27.6451 30.862 26.933 30.0447C26.8274 29.9133 26.7676 29.7512 26.7627 29.5829C26.75 28.2118 26.7355 26.8389 26.7627 25.4679C26.7953 23.7576 28.2811 22.7112 29.7579 23.3445C30.5951 23.7053 30.9973 24.4161 31.01 25.2694C31.0444 27.7139 31.0209 30.1692 31.0209 32.7057Z" fill="black"/>
<path d="M16.9508 15.6574C16.5367 15.6377 16.1466 15.4576 15.864 15.1556C15.5813 14.8536 15.4284 14.4536 15.4379 14.0409C15.4473 13.6282 15.6184 13.2356 15.9146 12.9467C16.2108 12.6579 16.6087 12.4957 17.0233 12.4949C17.4406 12.5113 17.8351 12.6892 18.1227 12.9907C18.4104 13.2923 18.5685 13.6937 18.5635 14.1095C18.544 14.5238 18.3662 14.9149 18.0663 15.2027C17.7664 15.4906 17.3673 15.6532 16.9508 15.6574Z" fill="black"/>
<path d="M18.1249 10.1443C18.1275 9.93794 18.171 9.73413 18.2529 9.54456C18.3348 9.35499 18.4535 9.18337 18.6021 9.03957C18.7508 8.89576 18.9265 8.78258 19.1191 8.70654C19.3118 8.63049 19.5177 8.59306 19.7249 8.5964C20.1333 8.62536 20.5158 8.8062 20.7964 9.10299C21.0771 9.39978 21.2353 9.7908 21.2398 10.1984C21.2164 10.6132 21.0362 11.0038 20.7353 11.2917C20.4345 11.5795 20.0352 11.7432 19.618 11.7499C18.8171 11.7409 18.1068 10.9778 18.1249 10.1443Z" fill="black"/>
<path d="M13.8432 17.9991C13.9375 17.476 14.3071 17.1314 14.7347 17.236C15.1701 17.3418 15.5947 17.4873 16.0031 17.6708C16.0927 17.7031 16.1746 17.7535 16.2436 17.8189C16.3126 17.8843 16.3672 17.9632 16.404 18.0507C16.4408 18.1382 16.4589 18.2324 16.4573 18.3272C16.4557 18.422 16.4343 18.5155 16.3945 18.6017C16.3599 18.6931 16.307 18.7765 16.2391 18.8469C16.1712 18.9173 16.0896 18.9733 15.9993 19.0114C15.909 19.0495 15.8119 19.069 15.7138 19.0687C15.6157 19.0683 15.5187 19.0482 15.4287 19.0094C15.067 18.9058 14.7168 18.7662 14.3832 18.5927C14.164 18.4538 14.0208 18.2012 13.8432 17.9991Z" fill="black"/>
<path d="M15.5193 21.416C15.5048 22.0204 15.0681 22.3667 14.5934 22.2729C14.2393 22.2002 13.8933 22.0926 13.5606 21.9518C13.4671 21.9209 13.3811 21.8711 13.3079 21.8056C13.2346 21.74 13.1759 21.66 13.1352 21.5707C13.0945 21.4814 13.0728 21.3847 13.0715 21.2867C13.0702 21.1887 13.0893 21.0914 13.1275 21.0011C13.2021 20.827 13.3416 20.6884 13.5165 20.6144C13.6915 20.5404 13.8885 20.5368 14.0661 20.6042C14.4045 20.6787 14.7337 20.7894 15.0482 20.9343C15.232 21.0666 15.3914 21.2296 15.5193 21.416Z" fill="black"/>
<path d="M22.1603 5.90282C22.2128 5.92988 22.3976 5.96596 22.4755 6.08323C22.7543 6.44884 22.997 6.84032 23.2003 7.25226C23.3598 7.61307 23.1387 7.89631 22.8216 8.06589C22.5045 8.23547 22.1983 8.22464 21.9809 7.89811C21.7524 7.58358 21.5488 7.25184 21.372 6.90588C21.1329 6.39352 21.4989 5.89019 22.1603 5.90282Z" fill="black"/>
<path d="M25.3566 4.79525C25.3566 4.95401 25.3566 5.11276 25.3566 5.27152C25.3569 5.44589 25.2903 5.6138 25.1704 5.7409C25.0505 5.868 24.8863 5.94467 24.7115 5.95526C24.5362 5.96169 24.3647 5.90276 24.2306 5.78999C24.0966 5.67721 24.0096 5.51871 23.9867 5.34548C23.9514 4.95781 23.9514 4.56774 23.9867 4.18006C23.993 4.09639 24.0166 4.01492 24.056 3.94079C24.0955 3.86667 24.15 3.80152 24.2161 3.74946C24.2822 3.6974 24.3584 3.65956 24.44 3.63835C24.5215 3.61713 24.6066 3.613 24.6898 3.62622C25.0703 3.65147 25.3149 3.8409 25.3548 4.23238C25.3648 4.41987 25.3648 4.60776 25.3548 4.79525H25.3566Z" fill="black"/>
</g>
<defs>
<clipPath id="clip0_0_1">
<rect width="50" height="49" fill="white" transform="translate(10)"/>
</clipPath>
</defs>
</svg>
