<svg width="188" height="177" viewBox="0 0 188 177" fill="none" xmlns="http://www.w3.org/2000/svg">
<rect width="188" height="177" fill="#1E1E1E"/>
<circle cx="96" cy="91" r="84" fill="#3A71FF"/>
<circle cx="88" cy="88" r="84" fill="#161935"/>
<path d="M98.913 127.44C90.913 127.44 84.073 126.24 78.393 123.84C72.713 121.44 68.073 118.16 64.473 114C60.953 109.84 58.353 105.12 56.673 99.84C55.073 94.56 54.273 89.08 54.273 83.4C54.273 73.8 56.193 65.56 60.033 58.68C63.873 51.72 69.233 46.4 76.113 42.72C82.993 39.04 90.913 37.2 99.873 37.2C104.513 37.2 108.833 37.56 112.833 38.28C116.913 39 120.073 39.92 122.313 41.04L119.433 60.12C116.953 59.16 114.153 58.4 111.033 57.84C107.993 57.2 104.793 56.88 101.433 56.88C97.433 56.88 93.753 57.76 90.393 59.52C87.033 61.2 84.353 63.92 82.353 67.68C80.433 71.36 79.473 76.24 79.473 82.32C79.473 87.92 80.353 92.6 82.113 96.36C83.873 100.12 86.433 102.96 89.793 104.88C93.153 106.8 97.153 107.76 101.793 107.76C104.673 107.76 107.713 107.52 110.913 107.04C114.113 106.48 116.873 105.76 119.193 104.88L121.233 123.84C119.313 124.72 116.313 125.52 112.233 126.24C108.153 127.04 103.713 127.44 98.913 127.44Z" fill="#3A71FF"/>
<path d="M94.913 125.44C86.913 125.44 80.073 124.24 74.393 121.84C68.713 119.44 64.073 116.16 60.473 112C56.953 107.84 54.353 103.12 52.673 97.84C51.073 92.56 50.273 87.08 50.273 81.4C50.273 71.8 52.193 63.56 56.033 56.68C59.873 49.72 65.233 44.4 72.113 40.72C78.993 37.04 86.913 35.2 95.873 35.2C100.513 35.2 104.833 35.56 108.833 36.28C112.913 37 116.073 37.92 118.313 39.04L115.433 58.12C112.953 57.16 110.153 56.4 107.033 55.84C103.993 55.2 100.793 54.88 97.433 54.88C93.433 54.88 89.753 55.76 86.393 57.52C83.033 59.2 80.353 61.92 78.353 65.68C76.433 69.36 75.473 74.24 75.473 80.32C75.473 85.92 76.353 90.6 78.113 94.36C79.873 98.12 82.433 100.96 85.793 102.88C89.153 104.8 93.153 105.76 97.793 105.76C100.673 105.76 103.713 105.52 106.913 105.04C110.113 104.48 112.873 103.76 115.193 102.88L117.233 121.84C115.313 122.72 112.313 123.52 108.233 124.24C104.153 125.04 99.713 125.44 94.913 125.44Z" fill="white"/>
<path d="M60 143H125.5" stroke="#3A71FF" stroke-width="2" stroke-linecap="round"/>
<path d="M59 141.5H124.5" stroke="white" stroke-width="2" stroke-linecap="round"/>
</svg>
