<svg width="141" height="140" viewBox="0 0 141 140" fill="none" xmlns="http://www.w3.org/2000/svg">
<g clip-path="url(#clip0_3106_606)">
<rect width="141" height="140" fill="#1C2B5C"/>
<path d="M78.5778 111.012C79.767 112.271 80.2808 113.725 80.4171 115.518C81.4008 115.065 82.3278 114.709 83.1877 114.23C85.9519 112.693 88.6889 111.103 91.4427 109.542C93.9909 108.096 97.0614 108.398 99.0433 110.278C101.363 112.477 101.216 116.362 98.5673 118.143C96.0337 119.84 93.3512 121.321 90.6961 122.833C88.1143 124.302 85.4884 125.701 82.8752 127.121C80.1613 128.59 77.3152 129.391 74.1693 129.163C70.7402 128.913 67.2817 129.018 63.8673 128.672C59.2301 128.198 54.6056 127.549 50.0145 126.759C48.0368 126.417 46.2918 126.805 44.5175 127.447C44.4154 127.514 44.3301 127.604 44.268 127.709C44.2058 127.815 44.1685 127.933 44.1589 128.055C43.9491 131.449 43.1773 132.177 39.8007 132.156C37.4789 132.139 35.1572 132.156 32.8376 132.156C30.713 132.144 29.6014 131.055 29.5972 128.915C29.5805 121.542 29.5805 114.167 29.5972 106.789C29.5972 104.78 30.6249 103.632 32.6279 103.58C35.52 103.504 38.4164 103.548 41.3086 103.634C41.9168 103.651 42.567 103.974 43.0997 104.324C43.5192 104.61 43.8002 104.606 44.1735 104.348C44.3833 104.209 44.614 104.138 44.8195 103.997C46.8854 102.626 49.3652 102.019 51.8308 102.281C52.0405 102.304 52.2608 102.281 52.632 102.281C52.1601 101.381 51.6421 100.603 51.3296 99.7638C50.0963 96.4073 49.4252 92.9543 49.8258 89.3523C50.0945 86.7111 50.8927 84.1511 52.1727 81.8253C52.4705 81.2946 52.4118 80.9485 51.9525 80.5667C51.1995 79.9373 50.4655 79.2786 49.7713 78.5842C48.8694 77.6822 49.0603 76.7801 50.2243 76.2766C51.1492 75.8759 52.1119 75.5298 53.0011 75.0788C53.3773 74.8851 53.6827 74.5774 53.8736 74.1998C54.2511 73.3879 54.4902 72.5215 54.8237 71.6824C55.2033 70.7342 55.9017 70.5307 56.6882 71.181C57.4747 71.8313 58.1836 72.5362 58.905 73.2432C59.2679 73.5998 59.5342 73.6313 60.0166 73.3481C72.6865 65.7959 88.863 73.3963 91.2183 88.0034C92.7367 97.4436 88.1499 106.269 79.5216 110.54C79.2343 110.668 78.9532 110.821 78.5778 111.012ZM44.1106 124.264C46.3841 123.083 48.559 123.364 50.7633 123.723C54.119 124.268 57.4873 124.923 60.8744 125.191C65.7402 125.59 70.6311 125.668 75.5073 125.936C76.9309 126.035 78.3533 125.73 79.6118 125.057C85.2046 122.036 90.7765 118.987 96.3273 115.911C97.0845 115.491 97.5857 114.818 97.4494 113.89C97.3089 112.911 96.6923 112.271 95.7715 111.958C94.7544 111.614 93.7938 111.788 92.8689 112.334C90.4716 113.746 88.0451 115.109 85.6583 116.53C83.9637 117.545 82.204 118.258 80.1822 118.208C80.0209 118.226 79.8653 118.279 79.7258 118.362C79.5862 118.445 79.4659 118.557 79.3727 118.69C78.1038 120.612 76.405 121.627 74.0434 121.606C70.0858 121.558 66.1261 121.594 62.1685 121.592C61.8409 121.601 61.5132 121.591 61.1869 121.56C60.7881 121.529 60.4162 121.347 60.1475 121.05C59.8788 120.754 59.7337 120.366 59.7419 119.966C59.7544 119.078 60.2704 118.573 61.2624 118.497C61.6693 118.468 62.0804 118.466 62.4893 118.466C66.3106 118.466 70.1326 118.466 73.9553 118.466C75.3228 118.466 76.3148 117.923 76.8265 116.607C77.0893 115.989 77.1572 115.305 77.0212 114.646C76.8851 113.988 76.5517 113.387 76.0652 112.923C75.3144 112.172 74.3874 111.942 73.3786 111.94C70.9751 111.94 68.5722 111.933 66.1701 111.919C65.8452 111.913 65.5222 111.869 65.2075 111.788C61.2519 110.815 57.9633 108.707 55.1005 105.862C54.8636 105.614 54.552 105.451 54.2134 105.396C50.9856 105.187 47.8543 105.35 45.0754 107.373C44.4042 107.863 44.0729 108.266 44.0813 109.097C44.119 112.919 44.1043 116.744 44.1085 120.566L44.1106 124.264ZM52.3866 77.7073C52.4479 77.8638 52.5252 78.0136 52.6173 78.1542C52.7599 78.3184 52.9269 78.4599 53.1123 78.5737C54.4315 79.2471 55.067 80.3128 54.9411 81.7897C54.8992 82.2806 54.8551 82.8218 54.6223 83.2372C53.4998 85.2127 52.8006 87.4002 52.5691 89.6607C52.1704 93.7437 53.1748 97.8407 55.4166 101.276C57.6585 104.711 61.004 107.28 64.9012 108.558C65.5451 108.762 66.2161 108.868 66.8916 108.873C69.184 108.912 71.4826 108.784 73.7645 108.931C75.0665 109.014 76.3677 108.756 77.5396 108.182C84.4188 104.933 88.4184 99.5813 88.7141 91.918C89.0245 83.9043 83.7078 76.5556 76.0547 74.1264C70.8324 72.4691 65.822 73.1404 61.1156 75.9661C59.6475 76.8514 58.7645 76.6941 57.6718 75.3976C57.3363 74.9991 56.8958 74.6865 56.3904 74.2313C56.145 74.762 55.908 75.1102 55.8262 75.4899C55.6626 76.2535 55.197 76.6353 54.4902 76.8619C53.7834 77.0885 53.1395 77.399 52.3866 77.7073Z" fill="#E2F3FF"/>
<path d="M86.9523 23.9844C86.7699 26.0675 86.6335 27.5087 86.5224 28.9499C86.5056 29.1702 86.5224 29.5016 86.6461 29.6128C88.4226 31.0645 88.3743 32.9693 87.9528 34.9308C87.4955 37.0643 86.644 38.967 84.5971 40.1208C84.2846 40.2991 84.1315 40.834 83.993 41.2326C82.8668 44.5136 81.3903 47.5869 78.9301 50.1085C74.1063 55.0573 67.137 55.0657 62.2796 50.1505C59.7628 47.5953 58.236 44.4864 57.1726 41.1298C57.1087 40.8719 56.991 40.6304 56.8272 40.4211C56.6635 40.2118 56.4575 40.0394 56.2226 39.9152C54.9243 39.1978 54.2008 37.9537 53.6639 36.6174C53.02 35.0084 52.7809 33.3302 53.2339 31.6456C53.408 30.9953 53.9239 30.4436 54.2469 29.8268C54.4168 29.5037 54.637 29.124 54.6076 28.7905C54.3664 26.0402 54.1064 23.29 54.6517 20.5481C55.7549 14.9973 58.819 11.2989 64.4566 9.80522C69.1483 8.56331 73.7309 8.64093 78.2821 10.2772C82.4368 11.7688 84.9935 14.777 86.0862 18.9769C86.5727 20.7999 86.7426 22.7131 86.9523 23.9844ZM62.4914 22.367C62.7557 22.6082 62.9109 22.7509 63.0724 22.8977C63.2339 23.0445 63.4184 23.2459 63.603 23.4075C66.9356 26.3067 70.8702 26.8101 75.0417 26.1745C76.7049 25.9207 78.3303 25.4256 79.9767 25.0522C80.6709 24.8948 81.1931 25.1487 81.5685 25.757C81.7972 26.1262 82.0048 26.5731 82.3446 26.7871C82.7262 27.0176 83.1786 27.1019 83.6176 27.0241C83.8588 26.9675 84.165 26.4388 84.1461 26.1388C84.0245 24.041 82.9779 21.6789 79.9515 22.0879C78.6617 22.2621 77.3928 22.6124 76.1197 22.9019C73.1206 23.5816 70.1634 23.6466 67.3299 22.2453C64.9159 21.0474 63.173 19.0986 61.6567 16.9357C61.4847 16.6882 61.2897 16.4595 61.0527 16.1553C60.9954 16.2725 60.947 16.3938 60.908 16.5182C60.306 20.1957 59.1588 23.7033 57.7997 27.1647C57.2859 28.4737 57.158 29.9359 56.856 31.3267L57.1223 31.4169C60.0963 29.1765 61.6944 26.0948 62.4914 22.367Z" fill="#E2F3FF"/>
<path d="M87.1789 55.0929C91.2518 56.9096 95.1612 58.59 98.6574 61.0591C101.204 62.8569 102.433 65.5002 103.299 68.3763C106.099 77.6402 107.416 87.1161 107.462 96.7807C107.462 97.0535 107.445 97.3262 107.433 97.5989C107.412 98.0982 107.162 98.3268 106.65 98.3247C102.774 98.3247 98.8902 98.3247 95.0207 98.3247C94.1818 98.3247 93.9175 97.8674 94.0413 96.8395C94.2237 95.3228 94.4607 93.8081 94.532 92.2872C94.7819 87.6189 93.6684 82.9788 91.3273 78.9325C90.5639 77.6046 90.5765 77.571 92.0509 77.0445C93.2338 76.6249 94.4209 76.2263 95.5954 75.7858C96.7699 75.3452 97.2501 74.3173 96.8537 73.2474C96.4574 72.1775 95.4318 71.651 94.2615 72.0538C92.8185 72.5488 91.3714 73.0502 89.9788 73.6712C88.9301 74.139 88.6826 73.2055 88.1227 72.8027C87.5627 72.3999 87.785 71.9636 88.0283 71.5146C89.0182 69.6622 89.9767 67.7931 91.0044 65.9617C91.342 65.3554 91.3945 64.8708 91.0945 64.2184C89.8802 61.5647 88.7309 58.8816 87.5627 56.2047C87.4452 55.9173 87.3592 55.6048 87.1789 55.0929Z" fill="#E2F3FF"/>
<path d="M54.0959 55.2041C53.6198 56.3432 53.1752 57.4739 52.6739 58.5794C51.7763 60.5682 50.8262 62.5317 49.9474 64.5289C49.8771 64.7079 49.844 64.8994 49.8502 65.0916C49.8563 65.2838 49.9015 65.4728 49.9831 65.647C50.6815 66.849 51.491 67.984 52.202 69.1776C52.3488 69.4998 52.3983 69.8577 52.3446 70.2077C52.1852 71.9782 51.1638 73.0313 49.5049 73.539C49.2443 73.6231 49.0003 73.7516 48.7834 73.9187C48.1374 74.4054 47.546 74.3194 46.8434 73.9607C46.5998 73.8363 46.3334 73.7629 46.0605 73.745C45.7876 73.7271 45.5139 73.765 45.2561 73.8565C44.9984 73.948 44.762 74.0911 44.5614 74.2771C44.3609 74.4631 44.2003 74.6881 44.0896 74.9382C43.6555 75.9704 44.1987 77.3528 45.3333 77.6654C46.2478 77.9255 46.8686 78.3703 47.2545 79.2115C47.3335 79.4169 47.4625 79.5993 47.6299 79.7422C48.9847 80.6905 48.6785 81.754 48.1479 83.0987C46.4827 87.3405 46.2876 91.7543 47.0217 96.2248C47.2691 97.7226 47.5649 98.3415 45.3983 98.3037C41.9336 98.2471 38.4646 98.3037 34.9978 98.3163C33.8107 98.3163 33.6639 98.1968 33.6723 97.0157C33.7163 90.7789 34.1337 84.5651 35.4361 78.4605C36.275 74.5459 37.3803 70.6985 38.45 66.826C38.7991 65.5251 39.406 64.3077 40.2347 63.2461C41.0633 62.1844 42.0968 61.3002 43.2738 60.6458C46.728 58.6864 50.3312 56.9851 53.8715 55.1768C53.9134 55.16 53.9742 55.1894 54.0959 55.2041Z" fill="#E2F3FF"/>
<path d="M124.662 70.4196C124.538 79.1402 122.839 87.4749 118.546 95.1738C117.996 96.1464 117.374 97.0769 116.686 97.9577C115.912 98.9625 114.735 99.1618 113.871 98.5492C113.007 97.9367 112.863 96.871 113.523 95.7675C116.309 91.1253 118.28 86.0412 119.354 80.7346C121.738 69.1399 120.146 58.0781 114.656 47.6247C110.3 39.3236 103.959 32.8728 95.9163 28.1024C94.8676 27.4731 93.7665 26.9129 92.722 26.2689C91.9293 25.778 91.6398 24.9242 91.8831 23.9613C92.0824 23.2103 92.5878 22.7026 93.3659 22.6313C93.8478 22.6055 94.3283 22.7022 94.7627 22.9124C99.8918 25.364 104.579 28.6489 108.634 32.6337C116.197 40.0348 121.038 48.9442 123.414 59.2172C124.274 62.8885 124.692 66.6491 124.662 70.4196Z" fill="#E2F3FF"/>
<path d="M16.5415 71.0489C16.6967 57.9564 20.6438 46.8065 28.5297 37.0831C33.3766 31.1043 39.2994 26.445 46.1723 22.9899C47.5124 22.3144 48.5338 22.5557 49.1085 23.6549C49.6832 24.7542 49.2217 25.9017 47.9634 26.5646C42.0636 29.6778 36.812 33.6196 32.5272 38.7697C26.3338 46.2002 22.4349 54.6859 21.2373 64.2939C19.8699 75.2739 21.8288 85.6371 27.3971 95.2598C27.5461 95.5199 27.6887 95.7842 27.8292 96.0486C28.3263 96.9968 28.192 97.7793 27.4349 98.3897C26.6778 99.0002 25.5473 99.0988 24.9181 98.3394C23.9768 97.2119 23.1426 95.999 22.4265 94.7164C19.1296 88.7482 17.4056 82.3037 16.8288 75.534C16.6799 73.8494 16.6107 72.1586 16.5415 71.0489Z" fill="#E2F3FF"/>
<path d="M3.42279 60.0878C3.8087 58.3529 4.20929 56.2614 4.7399 54.2034C6.59704 46.9174 9.69152 40.0046 13.8884 33.7665C22.1161 21.5404 32.9277 12.4065 46.6546 6.85564C49.1274 5.85708 51.6882 5.08508 54.2259 4.24386C55.4361 3.84108 56.3652 4.27952 56.6735 5.29277C56.9818 6.30601 56.4428 7.13255 55.2473 7.57729C51.6483 8.9136 47.9655 10.0716 44.4734 11.6471C36.0968 15.4231 29.0016 20.9823 22.9047 27.8422C16.3737 35.1846 11.5792 43.515 8.76674 52.9447C8.05994 55.3173 7.57756 57.7571 6.99241 60.1654C6.92111 60.457 6.87497 60.7549 6.78268 61.0381C6.64387 61.4605 6.35826 61.8191 5.97769 62.0489C5.59711 62.2787 5.14679 62.3644 4.70844 62.2905C3.93454 62.1311 3.38085 61.3423 3.42279 60.0878Z" fill="#E2F3FF"/>
<path d="M86.4805 4.13896C87.678 4.49559 89.207 4.91306 90.6981 5.39765C99.2687 8.15787 107.189 12.6314 113.978 18.5468C123.594 26.938 130.757 37.0537 134.781 49.2609C134.921 49.6455 135.028 50.0413 135.1 50.4441C135.153 50.8546 135.054 51.2702 134.823 51.6131C134.591 51.956 134.242 52.2027 133.842 52.307C133.463 52.439 133.048 52.4187 132.684 52.2504C132.32 52.0821 132.036 51.7789 131.891 51.4049C131.262 49.8378 130.732 48.2288 130.1 46.6617C126.954 38.8411 122.323 31.9917 116.52 25.9059C111.623 20.7726 106.113 16.449 99.8403 13.1092C95.3924 10.7761 90.7112 8.91766 85.8743 7.5647C84.681 7.22275 84.1587 6.33118 84.4796 5.28437C84.725 4.49979 85.3018 4.09701 86.4805 4.13896Z" fill="#E2F3FF"/>
<path d="M131.203 100.313C131.047 100.743 130.865 101.164 130.658 101.572C127.898 106.567 124.515 111.191 120.591 115.334C112.898 123.515 103.739 129.448 93.2044 133.27C91.0043 134.067 88.7434 134.701 86.493 135.368C85.35 135.708 84.5572 135.292 84.293 134.319C84.0182 133.31 84.5027 132.521 85.6352 132.144C88.5253 131.172 91.4637 130.319 94.2929 129.194C105.662 124.669 115.016 117.432 122.451 107.748C124.454 105.141 126.115 102.269 127.915 99.5058C128.286 98.9373 128.655 98.4317 129.406 98.3814C130.417 98.3205 131.216 99.0443 131.203 100.313Z" fill="#E2F3FF"/>
<path d="M76.6462 67.7302C77.5459 65.0554 78.4918 62.2444 79.4398 59.4333C79.9809 57.8347 80.5178 56.2341 81.0694 54.6377C81.2498 54.109 81.4763 53.6265 82.1747 53.637C82.8731 53.6475 83.3722 53.8468 83.6428 54.5496C84.8571 57.7299 86.105 60.8955 87.3026 64.082C87.405 64.4361 87.3706 64.8158 87.2061 65.1456C86.4448 66.6141 85.629 68.07 84.8257 69.5238C84.3014 70.4741 83.3576 70.7153 82.3949 70.2685C80.5535 69.4168 78.6827 68.6238 76.6462 67.7302Z" fill="#E2F3FF"/>
<path d="M64.5552 67.8896C62.9025 68.5777 61.3526 69.2385 59.7838 69.8532C59.5202 69.9105 59.2447 69.8623 59.0162 69.7189C58.2868 69.3143 57.5861 68.8601 56.9189 68.3595C56.2666 67.8498 55.7045 67.2267 55.0921 66.6645C53.8023 65.4792 53.5548 64.2394 54.3434 62.5507C55.5179 60.0333 56.4134 57.3942 57.3824 54.7888C57.6844 53.979 58.1898 53.6182 59.033 53.6371C59.8006 53.6538 59.9222 54.2664 60.1026 54.7909C61.5595 58.9865 63.0074 63.1821 64.4461 67.3778C64.4925 67.5461 64.5289 67.717 64.5552 67.8896Z" fill="#E2F3FF"/>
<path d="M11.4933 98.3688C12.3322 98.352 12.7999 98.8723 13.2235 99.531C14.8699 102.103 16.3968 104.776 18.2571 107.18C20.3544 109.894 22.7558 112.37 25.0272 114.942C25.3703 115.291 25.6944 115.659 25.9983 116.043C26.4932 116.741 26.4429 117.511 25.927 118.069C25.3271 118.722 24.4253 118.885 23.7038 118.416C23.3265 118.15 22.9754 117.848 22.6552 117.516C17.7401 112.724 13.5597 107.233 10.2496 101.22C9.46097 99.8163 10.0881 98.3919 11.4933 98.3688Z" fill="#E2F3FF"/>
<path d="M73.5464 67.2581H67.5669C67.8249 66.2302 68.0388 65.175 68.3639 64.1533C68.448 63.9168 68.4757 63.6639 68.4447 63.4148C68.4138 63.1656 68.3251 62.9272 68.1856 62.7184C67.0845 60.7968 67.7788 58.8396 69.7397 58.2165C70.9058 57.8452 71.9126 58.1725 72.7074 59.043C73.5023 59.9136 73.9218 61.0884 73.2234 62.045C72.3509 63.2408 72.7494 64.2771 73.0661 65.4141C73.2255 65.9889 73.3681 66.5679 73.5464 67.2581Z" fill="#E2F3FF"/>
<path d="M5.84939 68.0637C7.242 68.0637 8.63462 68.049 10.0251 68.0637C11.0738 68.0784 11.7449 68.7098 11.7575 69.6308C11.7722 70.5937 11.0885 71.2713 10.0209 71.2797C7.29444 71.2986 4.56793 71.2965 1.82885 71.2923C1.02348 71.2923 0.381705 70.986 0.10486 70.1762C-0.0290123 69.8568 -0.0435642 69.4998 0.0638626 69.1705C0.171289 68.8412 0.393528 68.5616 0.690008 68.3826C1.01002 68.1849 1.37729 68.0769 1.75335 68.07C3.11869 68.0343 4.47985 68.0553 5.84939 68.0553V68.0637Z" fill="#E2F3FF"/>
<path d="M107.76 56.167C108.584 56.167 109.264 56.1377 109.939 56.167C110.847 56.2153 111.38 56.7041 111.369 57.4257C111.359 58.1474 110.82 58.5439 109.88 58.5711C109.211 58.5921 108.339 58.3991 107.932 58.7432C107.59 59.0327 107.791 59.962 107.751 60.6081C107.753 60.7991 107.734 60.9897 107.695 61.1766C107.525 61.7766 107.12 62.106 106.489 62.0451C106.225 62.0413 105.973 61.9337 105.788 61.7457C105.603 61.5576 105.499 61.3042 105.499 61.0403C105.456 60.4964 105.456 59.95 105.499 59.4061C105.57 58.6949 105.27 58.5019 104.614 58.5523C104.069 58.5806 103.524 58.5764 102.98 58.5397C102.273 58.5124 101.871 58.0907 101.768 57.4341C101.678 56.8656 102.265 56.2971 102.965 56.2447C103.563 56.1995 104.164 56.1911 104.763 56.2195C105.342 56.2468 105.535 56.0097 105.495 55.4496C105.464 54.9323 105.471 54.4135 105.516 53.8972C105.57 53.2028 105.935 52.7854 106.678 52.8105C107.378 52.8357 107.691 53.2699 107.745 53.9182C107.777 54.2979 107.764 54.6797 107.768 55.0615C107.762 55.4055 107.76 55.7538 107.76 56.167Z" fill="#E2F3FF"/>
<path d="M46.3442 45.3947C46.3442 46.1814 46.3694 46.8632 46.3442 47.5366C46.3086 48.275 45.8178 48.7952 45.2117 48.7952C44.6056 48.7952 44.1232 48.296 44.0687 47.5366C44.0435 47.1841 44.0687 46.8275 44.0687 46.473V45.3989C43.2864 45.3989 42.5859 45.4199 41.8875 45.3989C41.0108 45.3653 40.4991 44.9101 40.497 44.2157C40.4949 43.5213 41.0443 43.0598 41.8938 43.0304C42.5733 43.0053 43.2507 43.0304 43.9911 43.0304C44.0519 42.1913 44.0288 41.4004 44.2008 40.6515C44.2703 40.4491 44.3825 40.264 44.5298 40.1087C44.677 39.9534 44.856 39.8316 45.0544 39.7516C45.713 39.525 46.2457 39.9865 46.3128 40.7459C46.3841 41.4739 46.3904 42.2144 46.4302 43.0137C47.137 43.0137 47.7872 43.0137 48.4374 43.0137C49.2763 43.0325 49.9055 43.5759 49.8803 44.2493C49.8614 44.8786 49.2385 45.3884 48.4374 45.4052C47.7956 45.4073 47.1433 45.3947 46.3442 45.3947Z" fill="#E2F3FF"/>
<path d="M36.145 56.1376C36.7302 56.1376 37.244 56.1208 37.7558 56.1376C38.1098 56.1385 38.4623 56.185 38.8044 56.276C39.3812 56.4523 39.7566 56.8823 39.6979 57.4886C39.635 58.1305 39.1819 58.5102 38.5339 58.5375C37.7537 58.5732 36.9714 58.5375 36.0339 58.5375C36.0339 59.3766 36.0486 60.1318 36.0339 60.8849C36.0192 61.6381 35.5871 62.0157 34.9013 62.0157C34.1673 62.0157 33.8527 61.5311 33.8736 60.8199C33.8736 60.3018 33.838 59.7815 33.8736 59.2675C33.9093 58.7116 33.7436 58.4725 33.1396 58.5312C32.5419 58.5731 31.942 58.5731 31.3443 58.5312C31.0386 58.538 30.7425 58.424 30.5203 58.2139C30.2981 58.0038 30.1676 57.7145 30.1572 57.4089C30.088 56.8131 30.6627 56.2718 31.3632 56.2299C31.9072 56.1942 32.453 56.1942 32.997 56.2299C33.6136 56.2739 33.9135 56.0893 33.859 55.4138C33.8321 54.8962 33.844 54.3773 33.8946 53.8615C33.9408 53.2321 34.2721 52.8524 34.9202 52.8125C35.5683 52.7727 35.9689 53.1356 36.0276 53.7524C36.0989 54.5118 36.101 55.2733 36.145 56.1376Z" fill="#E2F3FF"/>
<path d="M135.05 83.2519C136.428 83.2309 137.336 84.2379 137.009 85.2784C136.315 87.4832 135.541 89.6629 134.702 91.8257C134.393 92.6418 133.416 92.9795 132.644 92.7068C132.441 92.6418 132.254 92.5367 132.092 92.3977C131.93 92.2588 131.798 92.0888 131.704 91.8978C131.609 91.7069 131.554 91.4989 131.541 91.2861C131.528 91.0734 131.558 90.8602 131.629 90.6593C132.281 88.5804 132.972 86.514 133.685 84.4561C133.953 83.703 134.503 83.2372 135.05 83.2519Z" fill="#E2F3FF"/>
<path d="M51.6567 131.105C52.8627 131.458 54.442 131.863 55.9772 132.391C56.77 132.664 57.0846 133.52 56.8644 134.279C56.6232 135.118 55.8346 135.748 55.0187 135.538C53.4667 135.156 51.9273 134.699 50.4172 134.168C49.637 133.895 49.3686 133.031 49.6286 132.165C49.8258 131.487 50.4969 131.046 51.6567 131.105Z" fill="#E2F3FF"/>
<path d="M137.374 68.0553C138.053 68.0553 138.733 68.0344 139.412 68.0553C139.813 68.0553 140.198 68.2066 140.491 68.479C140.785 68.7514 140.964 69.1246 140.994 69.5238C141.067 70.2706 140.545 71.1244 139.735 71.1769C138.168 71.2839 136.596 71.2839 135.029 71.1769C134.19 71.1182 133.741 70.2664 133.84 69.4126C133.928 68.6427 134.494 68.1141 135.333 68.0763C136.01 68.0448 136.692 68.0763 137.372 68.0763L137.374 68.0553Z" fill="#E2F3FF"/>
<path d="M4.85947 87.9971C5.02096 87.1202 5.60401 86.451 6.44713 86.2937C6.81167 86.216 7.19194 86.269 7.52133 86.4435C7.85071 86.618 8.10821 86.9029 8.24872 87.2482C8.70593 88.4146 9.13378 89.5929 9.53227 90.783C9.82799 91.6683 9.45887 92.3921 8.59477 92.7801C7.82506 93.1263 6.91693 92.9165 6.5499 92.1508C5.9228 90.7914 5.41525 89.3817 4.85947 87.9971Z" fill="#E2F3FF"/>
<path d="M68.9385 136.266C68.9385 135.557 68.9197 134.846 68.9385 134.137C68.9349 133.939 68.9708 133.742 69.044 133.559C69.1172 133.375 69.2264 133.208 69.3651 133.066C69.5037 132.925 69.6691 132.813 69.8516 132.737C70.034 132.661 70.2299 132.622 70.4276 132.622C71.3274 132.607 72.0153 133.186 72.0426 134.09C72.0866 135.559 72.0929 137.04 72.0426 138.513C72.0174 139.427 71.3064 140.019 70.4213 139.981C69.5824 139.956 68.97 139.362 68.9281 138.46C68.8945 137.724 68.9281 136.992 68.9281 136.249L68.9385 136.266Z" fill="#E2F3FF"/>
<path d="M68.9302 3.16137C68.9302 2.61384 68.9113 2.06631 68.9302 1.52297C68.9721 0.597835 69.5174 0.0544985 70.4172 0.0041509C71.3169 -0.0461967 71.9985 0.423715 72.0489 1.34046C72.1111 2.61989 72.0957 3.90191 72.0027 5.17947C71.9503 5.94937 71.2792 6.42767 70.5199 6.42348C70.1318 6.44253 69.7517 6.30866 69.4612 6.0506C69.1706 5.79253 68.9928 5.43083 68.9658 5.04311C68.9299 4.41438 68.9257 3.78423 68.9532 3.15508L68.9302 3.16137Z" fill="#E2F3FF"/>
<path d="M137.871 61.5059C137.888 62.4478 137.38 63.0772 136.629 63.287C135.878 63.4967 135.161 63.4023 134.87 62.6891C134.43 61.5577 134.106 60.3846 133.903 59.1878C133.771 58.4347 134.482 57.7634 135.276 57.604C136.008 57.4592 136.82 57.7718 137.047 58.4431C137.401 59.5256 137.642 60.6437 137.871 61.5059Z" fill="#E2F3FF"/>
<path d="M3.03062 78.7773C3.02268 78.5326 3.06431 78.289 3.15297 78.0608C3.24164 77.8327 3.37553 77.6249 3.54658 77.4499C3.71762 77.2749 3.9223 77.1363 4.14828 77.0425C4.37427 76.9487 4.6169 76.9015 4.86157 76.9039C5.11296 76.8983 5.36293 76.943 5.5968 77.0354C5.83068 77.1278 6.04374 77.266 6.22349 77.4418C6.40323 77.6177 6.54603 77.8278 6.6435 78.0596C6.74098 78.2914 6.79115 78.5404 6.79109 78.7919C6.7698 79.2986 6.5617 79.7793 6.20694 80.1415C5.85218 80.5037 5.3759 80.7217 4.86996 80.7534C3.81501 80.7618 3.03062 79.9122 3.03062 78.7773Z" fill="#E2F3FF"/>
<path d="M134.628 77.4367C134.621 77.2187 134.659 77.0015 134.739 76.7986C134.819 76.5957 134.94 76.4115 135.095 76.2574C135.249 76.1033 135.433 75.9827 135.636 75.903C135.84 75.8233 136.057 75.7862 136.275 75.7941C136.7 75.8066 137.105 75.9841 137.402 76.289C137.699 76.5939 137.867 77.0024 137.869 77.4283C137.869 78.2675 137.03 79.0332 136.128 79.0248C135.924 79.0224 135.723 78.9791 135.536 78.8974C135.35 78.8156 135.181 78.6971 135.041 78.549C134.901 78.4008 134.793 78.2259 134.722 78.0348C134.651 77.8438 134.619 77.6404 134.628 77.4367Z" fill="#E2F3FF"/>
<path d="M58.0955 91.4837C58.129 84.4078 63.6953 78.7038 70.5451 78.7227C72.2198 78.7301 73.8765 79.0687 75.4199 79.719C76.9633 80.3693 78.3629 81.3184 79.5381 82.5119C80.7133 83.7053 81.641 85.1195 82.2677 86.6729C82.8944 88.2263 83.2078 89.8884 83.1898 91.5635C83.1457 98.6058 77.4725 104.278 70.5346 104.213C63.538 104.15 58.0619 98.545 58.0955 91.4837ZM69.0958 99.3841C69.0728 100.657 69.5908 101.448 70.4843 101.471C71.4113 101.492 71.8874 100.892 72.0593 99.6002C72.0866 99.3904 72.3656 99.168 72.5795 99.0317C73.2632 98.5953 74.1 98.3247 74.6453 97.773C76.8223 95.5367 76.0317 92.1278 73.0807 90.8691C71.9041 90.3677 70.6667 90.0132 69.4797 89.537C68.561 89.1677 68.2213 88.5678 68.3345 87.779C68.4478 86.9902 69.0686 86.4322 69.9306 86.2497C71.3085 85.9581 72.3719 86.3797 73.215 87.5084C73.6239 88.0601 74.5048 88.1062 75.1382 87.7181C75.7716 87.3301 75.9436 86.7154 75.5828 86.1028C75.2717 85.5347 74.8426 85.0397 74.3244 84.6511C73.6659 84.2022 72.8689 83.9526 72.0845 83.6022C72.0845 83.4323 72.0656 83.2183 72.0468 83.0023C71.9671 82.1128 71.4176 81.6198 70.5388 81.624C69.66 81.6282 69.1336 82.0582 69.1483 82.9729C69.1588 83.6148 68.8526 83.7868 68.3492 83.9756C66.3463 84.7267 65.2683 86.2392 65.3249 88.1713C65.3836 90.2691 66.686 91.404 68.4918 92.0942C69.5845 92.5138 70.7045 92.8578 71.8014 93.2648C72.4641 93.5102 72.892 93.9718 72.8941 94.7333C72.8941 95.5304 72.4977 96.0696 71.7909 96.3989C70.436 97.0283 69.1147 96.7199 68.1416 95.5388C67.843 95.2091 67.4348 94.9993 66.993 94.9483C66.5512 94.8974 66.1059 95.0088 65.7402 95.2619C65.1466 95.7171 65.1445 96.443 65.7674 97.2947C65.9481 97.5673 66.1812 97.8012 66.4532 97.9828C67.288 98.4653 68.1625 98.8932 69.0958 99.3841Z" fill="#E2F3FF"/>
<path d="M98.6679 43.1479C99.4922 43.1479 100.172 43.1185 100.847 43.1479C101.753 43.1961 102.286 43.6849 102.277 44.3961C102.269 45.1072 101.728 45.5142 100.788 45.5415C100.117 45.5625 99.2468 45.3695 98.8378 45.7135C98.498 46.003 98.6994 46.9323 98.6574 47.5785C98.6595 47.7694 98.6413 47.9599 98.6029 48.147C98.433 48.7469 98.0282 49.0763 97.3969 49.0134C97.1331 49.0106 96.881 48.9037 96.6956 48.7158C96.5102 48.528 96.4064 48.2746 96.407 48.0106C96.364 47.4667 96.364 46.9203 96.407 46.3764C96.4783 45.6653 96.1784 45.4702 95.5241 45.5226C94.9797 45.5509 94.4341 45.5467 93.8902 45.51C93.1835 45.4806 92.7808 45.0611 92.678 44.4045C92.5878 43.8359 93.1751 43.2653 93.8756 43.215C94.4729 43.1699 95.0725 43.1615 95.6709 43.1898C96.2497 43.2171 96.4448 42.98 96.4049 42.4199C96.3735 41.9027 96.3798 41.3839 96.4238 40.8675C96.4804 40.1711 96.8433 39.7557 97.5878 39.7809C98.2862 39.806 98.6008 40.2403 98.6532 40.8885C98.6847 41.2661 98.6742 41.65 98.6763 42.0318C98.6679 42.3759 98.6679 42.7283 98.6679 43.1479Z" fill="#E2F3FF"/>
</g>
<defs>
<clipPath id="clip0_3106_606">
<rect width="141" height="140" fill="white"/>
</clipPath>
</defs>
</svg>
