<svg width="79" height="52" viewBox="0 0 79 52" fill="none" xmlns="http://www.w3.org/2000/svg">
<path d="M75.6971 39.9024H63.5209C64.2526 39.657 64.9831 39.3909 65.6955 39.1036C70.3552 37.2266 72.7178 35.0204 72.7178 32.5458C72.7178 28.742 69.6602 27.464 66.9624 26.3372C65.8064 25.8543 64.6118 25.3544 63.633 24.6759C63.1062 24.3114 62.3854 24.4457 62.0237 24.976C61.6615 25.5068 61.7947 26.2327 62.3215 26.5978C63.5004 27.4154 64.8101 27.9627 66.0758 28.4918C68.8399 29.6465 70.4034 30.404 70.4034 32.5458C70.4034 33.9119 68.3746 35.5125 64.8366 36.9381C60.5977 38.6456 55.6783 39.5707 53.6646 39.9024H49.8747C52.4706 37.862 54.3101 35.0672 55.4872 31.368C56.9205 26.8657 58.9637 23.5588 62.1135 20.6462C62.9875 19.8377 63.3762 18.6963 63.24 17.6133L69.8398 12.6651C70.0194 12.5309 70.2666 12.526 70.4552 12.6536C71.8849 13.6212 73.3555 13.8861 74.7074 13.419C75.7736 13.0508 76.609 12.2806 77.0604 11.2498C77.5288 10.1795 77.5239 8.92942 77.046 7.81964C76.4197 6.36545 75.0865 5.37594 73.5659 5.19797C73.8528 3.68242 73.3145 2.10371 72.1254 1.06621C71.2183 0.274728 70.0363 -0.104917 68.8821 0.0250737C67.7719 0.150205 66.7925 0.723621 66.124 1.63841C65.2772 2.79861 65.0874 4.29168 65.5756 5.95604C65.6401 6.17532 65.5617 6.41161 65.3827 6.54282L58.7196 11.4083C57.7348 10.9534 56.5378 10.985 55.5107 11.5833C51.81 13.7397 48.0677 14.714 43.3761 14.7438C39.3469 14.7693 36.0343 15.7831 33.2492 17.8447C30.1403 20.1444 28.0567 23.4641 27.3817 27.1906C26.7024 30.9428 27.5287 34.6572 29.7088 37.6494C30.3169 38.484 31.0185 39.2379 31.796 39.9024H17.1384C8.23379 38.0947 3.90504 33.6197 3.90504 26.2242C3.90504 20.5976 6.3997 14.7978 10.7502 10.3119C15.452 5.4628 21.7324 2.79253 28.4328 2.79253C36.1091 2.79253 44.0891 5.61466 50.3273 10.5355C50.8306 10.9327 51.5581 10.8428 51.9516 10.3356C52.3458 9.82842 52.2572 9.09586 51.7539 8.6986C45.1168 3.46314 36.6166 0.459995 28.4328 0.459995C21.1037 0.459995 14.2363 3.37992 9.09508 8.68159C4.32574 13.5994 1.59058 19.9938 1.59058 26.2242C1.59058 32.5409 4.35889 37.1185 9.831 39.9024H3.30292C1.48149 39.9024 0 41.3955 0 43.2311C0 45.0668 1.48149 46.5604 3.30292 46.5604H7.49907C7.56416 46.5604 7.62202 46.5993 7.64674 46.6601L8.38145 48.4726C9.24998 50.6157 11.295 52 13.592 52H65.408C67.705 52 69.75 50.6157 70.6185 48.4726L71.3533 46.6607C71.378 46.5999 71.4358 46.5604 71.5009 46.5604H75.6971C77.5179 46.5604 79 45.0668 79 43.2311C79 41.3961 77.5185 39.9024 75.6971 39.9024ZM66.7424 8.43011C67.7128 7.7182 68.1359 6.45839 67.7948 5.29455C67.6031 4.64095 67.4808 3.71522 67.9883 3.02032C68.3481 2.52709 68.8128 2.38009 69.1395 2.34303C69.6548 2.28533 70.19 2.4627 70.6107 2.82959C71.3623 3.48561 71.4268 4.37247 71.2363 4.98354C71.0543 5.56789 71.1628 6.21116 71.5268 6.70683C71.8867 7.20431 72.4629 7.50074 73.0698 7.50074H73.0704C73.7063 7.50074 74.5266 7.82875 74.9226 8.74841C75.1438 9.26229 75.1516 9.83146 74.9425 10.3083C74.8099 10.6108 74.5308 11.0135 73.9564 11.2121C73.147 11.4916 72.3068 11.0973 71.745 10.7171C70.7463 10.041 69.427 10.0702 68.4602 10.7918L62.2027 15.483L60.4247 13.0429L66.7424 8.43011ZM31.5748 36.2693C29.7751 33.7989 29.0946 30.7235 29.6588 27.6098C30.2271 24.4712 31.9889 21.6703 34.6186 19.7247C36.9969 17.9644 39.8665 17.0982 43.3906 17.0763C48.5065 17.0435 52.6014 15.9726 56.6691 13.6024C57.117 13.3418 57.6462 13.3801 57.9831 13.6735C57.9879 13.6777 57.9927 13.6814 57.9975 13.6856C58.044 13.7281 58.0873 13.7755 58.1253 13.8278L60.7713 17.4602C60.808 17.5106 60.8412 17.5671 60.8683 17.6285C60.8695 17.6309 60.8707 17.6327 60.8719 17.6345C61.0539 18.0482 60.9322 18.573 60.5483 18.9278C57.0868 22.1289 54.8459 25.7462 53.2837 30.6554C52.2072 34.0376 50.5274 36.5372 48.1491 38.2969C47.2619 38.9536 46.2945 39.4936 45.2729 39.9024H36.182C34.3347 39.1285 32.7453 37.876 31.5748 36.2693ZM75.6971 44.2279H24.6791C24.0402 44.2279 23.5218 44.7497 23.5218 45.3942C23.5218 46.0381 24.0402 46.5604 24.6791 46.5604H68.8936L68.4765 47.5906C67.9648 48.8523 66.7605 49.6675 65.408 49.6675H13.592C12.2395 49.6675 11.0352 48.8523 10.5235 47.5906L10.1064 46.5604H19.2949C19.9338 46.5604 20.4522 46.0381 20.4522 45.3942C20.4522 44.7497 19.9338 44.2279 19.2949 44.2279H3.30292C2.75745 44.2279 2.31445 43.7808 2.31445 43.2311C2.31445 42.682 2.75745 42.2349 3.30292 42.2349H75.6971C76.2419 42.2349 76.6855 42.682 76.6855 43.2311C76.6855 43.7808 76.2419 44.2279 75.6971 44.2279Z" fill="white"/>
</svg>
