<svg width="131" height="133" viewBox="0 0 131 133" fill="none" xmlns="http://www.w3.org/2000/svg">
<g clip-path="url(#clip0_3107_521)">
<path d="M5.44293 133C4.92635 132.781 4.40116 132.583 3.89319 132.337C1.09504 130.956 -0.00872803 128.624 -0.00872803 125.656C-0.00872803 96.5651 -0.00528424 67.4744 0.00160352 38.3844C0.00160352 33.6753 2.77737 31.0002 7.59191 30.9934C18.7443 30.9799 29.8979 30.9799 41.0526 30.9934C41.536 30.9916 42.0182 31.0374 42.4922 31.1301C43.6631 31.3664 44.1866 32.185 44.2279 33.2736C44.2692 34.3623 43.4255 35.2096 42.2769 35.3598C41.7516 35.4169 41.2229 35.4395 40.6945 35.4273C29.8049 35.4273 18.9154 35.4273 8.02584 35.4273C5.12093 35.4273 4.53891 36.0012 4.53547 38.8553C4.53547 42.0942 4.53547 45.3348 4.53547 48.7644H39.1327C39.4771 48.7644 39.837 48.7644 40.19 48.7644C41.9928 48.7965 43.0191 49.6083 42.9984 50.989C42.9778 52.3696 41.9274 53.1831 40.1297 53.1916C28.8441 53.2017 17.5585 53.2017 6.27291 53.1916H4.60779C4.58024 53.7705 4.53719 54.2313 4.53719 54.6904C4.53719 78.1983 4.53719 101.705 4.53719 125.211C4.53719 127.938 5.1812 128.566 7.96385 128.566H123.026C125.808 128.566 126.452 127.938 126.452 125.211C126.452 101.705 126.452 78.1983 126.452 54.6904V53.1916H124.846C113.691 53.1916 102.537 53.1916 91.3849 53.1916C90.7262 53.2154 90.0675 53.1397 89.4323 52.9671C88.4507 52.6532 87.9479 51.8717 88.0065 50.8624C88.0668 49.8041 88.666 49.0733 89.7439 48.8556C90.3135 48.7704 90.8904 48.7416 91.4659 48.7695C102.531 48.7695 113.596 48.7695 124.661 48.7695H126.356C126.395 48.2547 126.456 47.8429 126.456 47.4311C126.464 44.4875 126.464 41.5439 126.456 38.6004C126.456 36.1227 125.753 35.4341 123.23 35.4341C112.254 35.4341 101.276 35.4341 90.2984 35.4341C89.723 35.4481 89.1474 35.4194 88.5765 35.348C87.3952 35.1792 86.796 34.364 86.7598 33.2821C86.7254 32.2542 87.2626 31.4373 88.3526 31.1723C88.9107 31.0492 89.4819 30.9926 90.0539 31.0035C101.119 30.9934 112.184 30.9934 123.249 31.0035C128.229 31.0035 130.972 33.6635 130.974 38.5261C130.984 67.5296 130.991 96.5336 130.995 125.538C130.995 129.386 129.138 131.775 125.54 133.012L5.44293 133Z" fill="#1C2B5C"/>
<path d="M66.2878 0C69.1789 3.57311 72.3817 6.94874 74.9078 10.7565C84.1908 24.7468 87.1766 40.1836 85.2239 56.6651C85.1893 57.2895 85.3714 57.907 85.7405 58.417C89.9306 64.1432 94.1545 69.8453 98.4123 75.5231C99.3266 76.7366 99.5057 77.8269 98.8893 79.2363C97.5324 82.3317 96.3253 85.4896 95.0459 88.6172C94.0351 91.0915 92.8074 91.4713 90.5878 90.0029C87.0796 87.6861 83.5715 85.3653 80.0633 83.0406C79.6673 82.779 79.2695 82.5225 78.734 82.1731C78.1692 83.6027 77.6078 84.9057 77.1394 86.2407C76.6022 87.7665 75.8549 88.948 73.6164 88.5058C74.3533 89.9775 74.9595 91.1928 75.569 92.4063C75.8618 92.9886 76.182 93.5574 76.4472 94.1498C77.2445 95.9271 76.3405 97.409 74.3809 97.4934C73.0602 97.5508 71.736 97.5137 70.4204 97.5137C66.0553 97.5137 61.6902 97.5137 57.3337 97.5137C54.4804 97.5137 53.5799 96.0908 54.83 93.608C55.5888 92.0958 56.3465 90.5835 57.103 89.0712C57.1402 88.9281 57.1621 88.7816 57.1684 88.634C54.8059 88.9952 54.2308 87.3192 53.6315 85.6382C53.2286 84.509 52.7602 83.4018 52.2746 82.1663C48.4864 84.6744 44.7721 87.0002 41.2077 89.5269C38.2081 91.6535 36.8495 91.1894 35.6028 87.7817C34.5318 84.855 33.323 81.9739 32.0746 79.1164C31.4994 77.8016 31.6734 76.7535 32.5205 75.6311C36.7795 69.9522 40.9999 64.2456 45.182 58.5116C45.5981 57.8882 45.7879 57.1456 45.7209 56.4035C43.4135 36.1649 48.7223 18.1845 62.1723 2.60261C62.961 1.68782 63.8547 0.86585 64.7002 0H66.2878ZM65.4922 5.60355C54.8283 18.0596 49.492 32.2221 49.6814 48.3307C49.8312 60.5758 53.2148 72.1424 57.6161 83.471C57.7487 83.8086 58.3703 84.1647 58.7664 84.1681C63.2193 84.217 67.6722 84.1833 72.1252 84.2153C72.8553 84.2153 73.1979 84.0077 73.4597 83.3191C76.7313 74.7112 79.471 65.9785 80.6574 56.8204C82.2932 44.2124 80.8123 32.0584 75.2901 20.4783C72.7451 15.1296 69.4837 10.2299 65.4922 5.60355ZM46.773 63.9413C43.4101 68.4798 40.0954 72.9441 36.8065 77.4286C36.718 77.5657 36.6599 77.7195 36.6359 77.88C36.6119 78.0404 36.6225 78.2041 36.667 78.3603C37.5555 80.6405 38.4922 82.9005 39.4617 85.2803L50.6354 77.8742L46.773 63.9413ZM80.3509 77.8759L91.5349 85.2787C92.4475 83.0254 93.2568 80.9241 94.1608 78.865C94.4897 78.1206 94.3761 77.6193 93.906 76.9932C90.8495 72.9222 87.8327 68.8208 84.7969 64.7329C84.6058 64.4746 84.3716 64.2468 84.1873 64.0392C82.9148 68.6402 81.6544 73.177 80.3509 77.8759ZM60.1852 92.9701H70.7958C70.1243 91.6451 69.5681 90.4383 68.9017 89.2872C68.7739 89.1125 68.6098 88.9663 68.4201 88.8584C68.2304 88.7504 68.0195 88.6832 67.8014 88.661C66.2706 88.5902 64.7311 88.5902 63.1986 88.661C62.9807 88.6821 62.7698 88.7482 62.5799 88.855C62.3899 88.9618 62.2252 89.1068 62.0966 89.2805C61.4181 90.4265 60.862 91.6485 60.1852 92.9701Z" fill="#1C2B5C"/>
<path d="M63.2468 111.84C63.2468 110.802 63.1934 109.759 63.2606 108.724C63.3536 107.296 64.2042 106.466 65.4595 106.449C66.7148 106.432 67.6619 107.244 67.7135 108.658C67.7945 110.82 67.7927 112.988 67.7135 115.15C67.667 116.586 66.7785 117.415 65.5198 117.432C64.2146 117.448 63.3346 116.588 63.2468 115.085C63.1848 114.007 63.2348 112.922 63.2348 111.84H63.2468Z" fill="#1C2B5C"/>
<path d="M58.6802 107.61C58.6802 108.692 58.7319 109.777 58.6665 110.854C58.589 112.13 57.7797 112.922 56.6173 113.001C55.412 113.082 54.3444 112.326 54.2807 111.028C54.1659 108.654 54.1733 106.275 54.3031 103.902C54.3719 102.643 55.3741 101.968 56.5674 102.018C57.7607 102.069 58.5287 102.847 58.6733 104.105C58.6903 104.233 58.6995 104.363 58.7009 104.493C58.7009 105.531 58.7009 106.57 58.7009 107.61H58.6802Z" fill="#1C2B5C"/>
<path d="M72.3111 107.494C72.3111 106.37 72.256 105.24 72.3266 104.118C72.4058 102.847 73.2272 102.074 74.4067 102.018C75.5863 101.963 76.6143 102.634 76.6797 103.885C76.8064 106.303 76.8064 108.725 76.6797 111.143C76.6143 112.37 75.5449 113.077 74.3912 112.999C73.2375 112.922 72.4058 112.135 72.3249 110.866C72.256 109.749 72.3094 108.619 72.3111 107.494Z" fill="#1C2B5C"/>
<path d="M11.184 44.263C9.92012 44.1955 9.02299 43.1794 9.11769 41.9153C9.20207 40.7169 10.1646 39.9051 11.4303 39.9625C11.7162 39.9694 11.9978 40.0319 12.259 40.1462C12.5201 40.2605 12.7556 40.4244 12.9517 40.6284C13.1479 40.8324 13.3008 41.0725 13.4017 41.3348C13.5026 41.5971 13.5495 41.8764 13.5396 42.1566C13.5282 42.4472 13.4579 42.7327 13.3329 42.9964C13.2079 43.2602 13.0306 43.4969 12.8115 43.6929C12.5923 43.8889 12.3355 44.0402 12.0561 44.1381C11.7767 44.236 11.4803 44.2784 11.184 44.263Z" fill="#1C2B5C"/>
<path d="M22.5712 42.0587C22.5671 42.6451 22.3272 43.2061 21.9036 43.6201C21.4799 44.0341 20.9068 44.2676 20.3086 44.2698C19.7319 44.2663 19.1798 44.0409 18.771 43.6421C18.3623 43.2434 18.1297 42.7032 18.1234 42.138C18.1094 41.8575 18.1537 41.5771 18.2536 41.3139C18.3534 41.0506 18.5068 40.81 18.7043 40.6066C18.9019 40.4032 19.1395 40.2412 19.4029 40.1304C19.6662 40.0197 19.9497 39.9626 20.2363 39.9625C21.5312 39.9152 22.5505 40.8266 22.5712 42.0587Z" fill="#1C2B5C"/>
<path d="M31.601 42.1296C31.5495 42.6799 31.2881 43.191 30.8689 43.5606C30.4497 43.9301 29.9037 44.1311 29.3399 44.1232C28.7761 44.1153 28.2362 43.8992 27.8279 43.518C27.4197 43.1368 27.1732 42.6187 27.1378 42.0671C27.1533 40.8182 28.1485 39.9152 29.4589 39.9591C29.7452 39.963 30.0278 40.0224 30.2906 40.1337C30.5534 40.2451 30.7912 40.4062 30.9902 40.6079C31.1893 40.8096 31.3457 41.0479 31.4505 41.309C31.5554 41.5701 31.6065 41.849 31.601 42.1296Z" fill="#1C2B5C"/>
<path d="M65.5318 50.9315C59.3724 50.9569 54.2686 45.993 54.2015 39.9135C54.1343 33.9183 59.2812 28.8465 65.4543 28.8211C71.6275 28.7958 76.7158 33.7563 76.7864 39.8325C76.8501 45.8293 71.6998 50.9045 65.5318 50.9315ZM65.4681 46.5061C66.8073 46.5114 68.118 46.127 69.2341 45.4015C70.3501 44.6759 71.2213 43.642 71.7373 42.4306C72.2533 41.2193 72.3907 39.8851 72.1323 38.5971C71.8739 37.3091 71.2312 36.1253 70.2857 35.1956C69.3402 34.266 68.1344 33.6324 66.8211 33.3752C65.5079 33.118 64.1463 33.2486 62.9089 33.7507C61.6715 34.2527 60.614 35.1035 59.8704 36.1952C59.1268 37.2869 58.7305 38.5704 58.7319 39.8831C58.7386 41.6341 59.4499 43.3118 60.7111 44.5518C61.9723 45.7918 63.6817 46.4941 65.4681 46.5061Z" fill="#1C2B5C"/>
</g>
<defs>
<clipPath id="clip0_3107_521">
<rect width="131" height="133" fill="white"/>
</clipPath>
</defs>
</svg>
