<svg width="184" height="173" viewBox="0 0 184 173" fill="none" xmlns="http://www.w3.org/2000/svg">
<g clip-path="url(#clip0_2089_1309)">
<path d="M170.09 132.35L178.344 133.647C181.138 130.246 183.064 126.211 183.955 121.892C177.919 126.859 168.74 124.219 161.422 126.931C159.145 127.794 157.092 129.161 155.412 130.931C153.733 132.701 152.472 134.828 151.721 137.154L147.688 141.517C151.339 142.97 155.261 143.61 159.182 143.393C163.103 143.176 166.931 142.107 170.402 140.26C172.339 139.204 174.136 137.907 175.751 136.4C172.862 134.572 170.09 132.35 170.09 132.35Z" fill="#F2F2F2"/>
<path d="M167.16 119.079L175.123 116.539C176.115 112.243 176.049 107.767 174.93 103.502C171.731 110.654 162.345 112.407 156.997 118.115C155.343 119.908 154.111 122.052 153.394 124.389C152.676 126.726 152.49 129.195 152.851 131.614L151.176 137.327C155.089 136.991 158.883 135.806 162.296 133.853C165.71 131.901 168.662 129.228 170.949 126.018C172.214 124.205 173.247 122.239 174.023 120.166C170.627 119.824 167.16 119.079 167.16 119.079Z" fill="#F2F2F2"/>
<path d="M184 144.16C184 144.203 183.992 144.245 183.976 144.285C183.959 144.324 183.935 144.36 183.905 144.391C183.875 144.421 183.839 144.445 183.8 144.461C183.761 144.478 183.719 144.486 183.676 144.486H0.324064C0.238117 144.486 0.155689 144.451 0.0949155 144.39C0.0341419 144.329 0 144.246 0 144.16C0 144.074 0.0341419 143.991 0.0949155 143.93C0.155689 143.869 0.238117 143.834 0.324064 143.834H183.676C183.719 143.834 183.761 143.842 183.8 143.859C183.839 143.875 183.875 143.899 183.905 143.929C183.935 143.96 183.959 143.996 183.976 144.035C183.992 144.075 184 144.117 184 144.16Z" fill="#CCCCCC"/>
<path d="M75.977 130.272C108.313 130.272 134.526 103.92 134.526 71.4139C134.526 38.9077 108.313 12.5562 75.977 12.5562C43.6411 12.5562 17.4277 38.9077 17.4277 71.4139C17.4277 103.92 43.6411 130.272 75.977 130.272Z" fill="#E6E6E6"/>
<path d="M126.357 71.4139C126.363 79.3164 124.526 87.1103 120.995 94.1706C117.464 101.231 112.336 107.361 106.023 112.07C105.6 112.387 105.17 112.696 104.737 112.998C96.2947 118.897 86.259 122.059 75.9773 122.059C65.6955 122.059 55.6598 118.897 47.2173 112.998C46.7843 112.696 46.354 112.387 45.9319 112.07C39.6229 107.357 34.4982 101.226 30.9674 94.1665C27.4366 87.1072 25.5977 79.3153 25.5977 71.4139C25.5977 63.5124 27.4366 55.7206 30.9674 48.6612C34.4982 41.6018 39.6229 35.4708 45.9319 30.7582C46.354 30.4406 46.7843 30.1313 47.2173 29.8302C55.6598 23.9307 65.6955 20.7688 75.9773 20.7688C86.259 20.7688 96.2947 23.9307 104.737 29.8302C105.17 30.1313 105.6 30.4406 106.023 30.7582C112.336 35.4666 117.464 41.5968 120.995 48.6571C124.526 55.7174 126.363 63.5114 126.357 71.4139Z" fill="white"/>
<path d="M75.9775 117.679C101.395 117.679 122 96.9653 122 71.4139C122 45.8625 101.395 25.1489 75.9775 25.1489C50.56 25.1489 29.9551 45.8625 29.9551 71.4139C29.9551 96.9653 50.56 117.679 75.9775 117.679Z" fill="black"/>
<path opacity="0.2" d="M76.0964 25.2783C75.3987 25.2783 74.7054 25.2967 74.0153 25.3275C85.6472 26.3551 96.4557 31.789 104.251 40.5286C112.046 49.2681 116.245 60.6596 115.997 72.3952C115.75 84.1308 111.074 95.333 102.916 103.732C94.7593 112.131 83.7312 117.099 72.0664 117.63C73.3947 117.746 74.7382 117.808 76.0964 117.808C88.3023 117.808 100.008 112.934 108.639 104.258C117.27 95.5812 122.119 83.8135 122.119 71.5433C122.119 59.2731 117.27 47.5054 108.639 38.829C100.008 30.1527 88.3023 25.2783 76.0964 25.2783Z" fill="black"/>
<path d="M76.113 21.8639C75.716 21.8646 75.3354 22.0234 75.0547 22.3057C74.7739 22.5879 74.6159 22.9704 74.6152 23.3696V29.9397C74.6152 30.3391 74.773 30.722 75.0539 31.0044C75.3348 31.2868 75.7158 31.4454 76.113 31.4454C76.5102 31.4454 76.8912 31.2868 77.1721 31.0044C77.453 30.722 77.6108 30.3391 77.6108 29.9397V23.3696C77.6101 22.9704 77.452 22.5879 77.1713 22.3057C76.8906 22.0234 76.51 21.8646 76.113 21.8639Z" fill="white"/>
<path d="M106.023 30.7583C105.601 30.4407 105.171 30.1313 104.738 29.8302C104.478 29.8132 104.218 29.8646 103.984 29.9793C103.75 30.0941 103.55 30.2682 103.404 30.4845L99.7246 35.9131C99.501 36.2431 99.4171 36.6488 99.4911 37.0411C99.5652 37.4333 99.7912 37.7799 100.119 38.0046C100.448 38.2293 100.851 38.3137 101.241 38.2393C101.632 38.1648 101.976 37.9376 102.2 37.6077L105.879 32.1791C106.019 31.9731 106.106 31.7352 106.131 31.4871C106.156 31.2389 106.119 30.9884 106.023 30.7583Z" fill="white"/>
<path d="M122.738 55.5113C122.664 55.3283 122.555 55.1617 122.417 55.0211C122.279 54.8805 122.114 54.7686 121.933 54.6918C121.752 54.615 121.558 54.5749 121.361 54.5736C121.165 54.5724 120.97 54.6101 120.788 54.6846L114.731 57.1566C114.364 57.3072 114.071 57.5983 113.916 57.966C113.762 58.3337 113.76 58.7479 113.909 59.1176C114.058 59.4873 114.348 59.7822 114.713 59.9376C115.079 60.093 115.491 60.0961 115.859 59.9462L121.915 57.4742C122.283 57.3229 122.576 57.0314 122.73 56.6635C122.884 56.2956 122.887 55.8813 122.738 55.5113Z" fill="white"/>
<path d="M52.2303 35.9131L48.5512 30.4845C48.4046 30.2682 48.2044 30.0941 47.9704 29.9793C47.7364 29.8646 47.4767 29.8132 47.2169 29.8302C46.7839 30.1313 46.3536 30.4407 45.9315 30.7583C45.8358 30.9884 45.7989 31.2389 45.8241 31.4871C45.8493 31.7352 45.9358 31.9731 46.0758 32.1791L49.7549 37.6077C49.9784 37.9376 50.3232 38.1649 50.7134 38.2393C51.1036 38.3137 51.5072 38.2293 51.8354 38.0046C52.1637 37.7799 52.3897 37.4333 52.4638 37.0411C52.5378 36.6488 52.4538 36.2431 52.2303 35.9131Z" fill="white"/>
<path d="M37.223 57.1566L31.1665 54.6846C30.7986 54.5344 30.3863 54.5373 30.0205 54.6926C29.6546 54.8479 29.3651 55.1429 29.2156 55.5128C29.0661 55.8827 29.0689 56.2971 29.2233 56.6649C29.3778 57.0327 29.6712 57.3238 30.0391 57.4742L36.0956 59.9462C36.4635 60.0961 36.8755 60.093 37.2411 59.9376C37.6068 59.7822 37.8961 59.4872 38.0455 59.1175C38.1949 58.7478 38.1922 58.3336 38.038 57.9659C37.8837 57.5982 37.5906 57.3072 37.223 57.1566Z" fill="white"/>
<path d="M76.113 111.382C75.716 111.383 75.3354 111.542 75.0547 111.824C74.7739 112.106 74.6159 112.489 74.6152 112.888V119.458C74.6152 119.858 74.773 120.241 75.0539 120.523C75.3348 120.805 75.7158 120.964 76.113 120.964C76.5102 120.964 76.8912 120.805 77.1721 120.523C77.453 120.241 77.6108 119.858 77.6108 119.458V112.888C77.6101 112.489 77.452 112.106 77.1713 111.824C76.8906 111.542 76.51 111.383 76.113 111.382Z" fill="white"/>
<path d="M105.879 110.649L102.2 105.22C102.089 105.057 101.948 104.917 101.783 104.809C101.619 104.7 101.435 104.625 101.241 104.589C101.048 104.552 100.85 104.553 100.657 104.594C100.465 104.634 100.282 104.712 100.119 104.823C99.9569 104.934 99.8177 105.077 99.7099 105.242C99.6021 105.408 99.5278 105.593 99.4911 105.787C99.4544 105.981 99.4562 106.181 99.4962 106.374C99.5363 106.568 99.6139 106.751 99.7246 106.915L103.404 112.343C103.55 112.56 103.75 112.734 103.984 112.849C104.218 112.963 104.478 113.015 104.738 112.998C105.171 112.696 105.601 112.387 106.023 112.07C106.119 111.839 106.156 111.589 106.131 111.341C106.106 111.093 106.019 110.855 105.879 110.649Z" fill="white"/>
<path d="M121.914 85.3536L115.858 82.8816C115.49 82.7314 115.078 82.7343 114.712 82.8896C114.346 83.0449 114.057 83.3399 113.907 83.7098C113.758 84.0797 113.76 84.4941 113.915 84.8619C114.069 85.2297 114.363 85.5208 114.731 85.6712L120.787 88.1432C121.155 88.2931 121.567 88.29 121.933 88.1346C122.298 87.9792 122.587 87.6843 122.737 87.3146C122.886 86.9449 122.884 86.5307 122.729 86.163C122.575 85.7953 122.282 85.5042 121.914 85.3536Z" fill="white"/>
<path d="M51.8354 104.823C51.5071 104.599 51.1036 104.514 50.7134 104.589C50.3233 104.663 49.9785 104.89 49.7549 105.22L46.0758 110.649C45.9358 110.855 45.8493 111.093 45.8241 111.341C45.7989 111.589 45.8358 111.839 45.9315 112.07C46.3536 112.387 46.7839 112.696 47.2169 112.998C47.4767 113.015 47.7364 112.963 47.9704 112.848C48.2044 112.734 48.4046 112.56 48.5512 112.343L52.2303 106.915C52.341 106.751 52.4186 106.568 52.4587 106.374C52.4987 106.181 52.5005 105.981 52.4638 105.787C52.4271 105.593 52.3528 105.407 52.245 105.242C52.1371 105.077 51.998 104.934 51.8354 104.823Z" fill="white"/>
<path d="M38.0463 83.7084C37.9724 83.5253 37.8632 83.3587 37.7252 83.2181C37.5872 83.0775 37.4229 82.9656 37.2418 82.8888C37.0608 82.8121 36.8664 82.7719 36.6699 82.7707C36.4734 82.7694 36.2785 82.8071 36.0965 82.8816L30.0401 85.3536C29.6724 85.5042 29.3793 85.7953 29.2251 86.163C29.0708 86.5307 29.0681 86.9449 29.2176 87.3146C29.367 87.6843 29.6563 87.9792 30.0219 88.1346C30.3875 88.29 30.7996 88.2931 31.1675 88.1432L37.2239 85.6712C37.5914 85.5199 37.8842 85.2284 38.0384 84.8605C38.1925 84.4926 38.1954 84.0784 38.0463 83.7084Z" fill="white"/>
<path d="M78.057 70.6669C78.1953 71.4899 78.0032 72.3344 77.5228 73.0152C77.0425 73.696 76.3131 74.1575 75.4948 74.2984L48.9166 78.8431C48.5112 78.9125 48.0961 78.9008 47.6952 78.8089C47.2942 78.717 46.9152 78.5466 46.5797 78.3074C46.2443 78.0682 45.959 77.765 45.7401 77.415C45.5212 77.0649 45.3731 76.675 45.3041 76.2674C45.2351 75.8599 45.2467 75.4426 45.3382 75.0395C45.4296 74.6365 45.5991 74.2554 45.837 73.9182C46.075 73.581 46.3766 73.2942 46.7248 73.0742C47.073 72.8541 47.4609 72.7052 47.8663 72.6359L74.4445 68.0912C75.2632 67.9521 76.1033 68.1452 76.7805 68.6281C77.4578 69.111 77.9168 69.8442 78.057 70.6669Z" fill="#3F3D56"/>
<path d="M106.03 100.268C105.648 100.654 105.129 100.872 104.588 100.875C104.046 100.877 103.526 100.663 103.141 100.28L74.5303 71.7437C74.1464 71.3601 73.9296 70.8389 73.9277 70.2947C73.9259 69.7505 74.139 69.2278 74.5203 68.8415C74.9016 68.4551 75.4198 68.2368 75.9612 68.2344C76.5025 68.232 77.0227 68.4458 77.4073 68.8287L106.018 97.3649C106.402 97.7487 106.619 98.27 106.621 98.8143C106.623 99.3587 106.411 99.8816 106.03 100.268Z" fill="#3F3D56"/>
<path d="M75.9777 74.9728C77.9329 74.9728 79.5179 73.3794 79.5179 71.4139C79.5179 69.4485 77.9329 67.8551 75.9777 67.8551C74.0225 67.8551 72.4375 69.4485 72.4375 71.4139C72.4375 73.3794 74.0225 74.9728 75.9777 74.9728Z" fill="#CCCCCC"/>
<path d="M51.5933 9.70327C46.1592 18.2917 37.8679 23.9914 27.6427 27.7358C27.4406 27.8879 27.2107 27.9985 26.9661 28.0613C26.7216 28.1242 26.4671 28.1379 26.2172 28.1019C25.9673 28.0658 25.7269 27.9806 25.5098 27.8512C25.2927 27.7218 25.103 27.5506 24.9517 27.3475C19.3974 19.8924 20.6516 9.23759 27.982 3.54104C29.7543 2.1662 31.7806 1.15895 33.9432 0.577772C36.1058 -0.00340801 38.3618 -0.146946 40.5801 0.155495C42.7984 0.457936 44.9348 1.20033 46.8653 2.33957C48.7958 3.47882 50.482 4.99223 51.826 6.79193L51.9796 6.99813C52.1309 7.20125 52.241 7.43234 52.3035 7.67821C52.366 7.92408 52.3797 8.17992 52.3438 8.43112C52.3079 8.68231 52.2232 8.92395 52.0944 9.14223C51.9657 9.3605 51.7954 9.55114 51.5933 9.70327Z" fill="#E6E6E6"/>
<path d="M100.129 6.79193C101.473 4.99222 103.159 3.47882 105.09 2.33957C107.02 1.20033 109.157 0.457937 111.375 0.155496C113.593 -0.146945 115.849 -0.00341101 118.012 0.577769C120.175 1.15895 122.201 2.1662 123.973 3.54103C131.304 9.23758 132.558 19.8924 127.003 27.3475C126.852 27.5506 126.662 27.7218 126.445 27.8512C126.228 27.9806 125.988 28.0658 125.738 28.1019C125.488 28.1379 125.234 28.1242 124.989 28.0613C124.744 27.9985 124.514 27.8879 124.312 27.7358C114.82 24.0824 107.036 17.7602 100.362 9.70327C99.9537 9.39603 99.6837 8.93842 99.6113 8.43111C99.5389 7.92379 99.6699 7.40833 99.9755 6.99812L100.129 6.79193Z" fill="#E6E6E6"/>
<path d="M97.7478 122.406C97.4017 122.602 97.1468 122.927 97.0389 123.311C96.931 123.695 96.9789 124.107 97.1722 124.455L105.816 139.984C106.01 140.332 106.334 140.589 106.716 140.697C107.098 140.805 107.508 140.757 107.855 140.562C108.201 140.367 108.456 140.042 108.564 139.657C108.672 139.273 108.624 138.861 108.43 138.513L99.7863 122.985C99.5918 122.637 99.2681 122.381 98.886 122.272C98.5039 122.164 98.0946 122.212 97.7478 122.406Z" fill="#E6E6E6"/>
<path d="M52.1686 122.985L43.5246 138.513C43.3307 138.861 43.2824 139.273 43.3904 139.657C43.4984 140.042 43.7537 140.367 44.1003 140.562C44.4469 140.757 44.8564 140.805 45.2386 140.697C45.6209 140.589 45.9446 140.332 46.1386 139.984L54.7827 124.455C54.8788 124.283 54.9401 124.093 54.9632 123.897C54.9863 123.7 54.9707 123.501 54.9172 123.311C54.8638 123.12 54.7736 122.943 54.6518 122.787C54.5299 122.632 54.3789 122.502 54.2072 122.406C54.0355 122.309 53.8466 122.248 53.6513 122.224C53.4559 122.201 53.2579 122.217 53.0686 122.271C52.8793 122.325 52.7024 122.415 52.5479 122.538C52.3935 122.66 52.2646 122.812 52.1686 122.985Z" fill="#E6E6E6"/>
<path d="M107.567 143.96C110.124 143.96 112.196 141.876 112.196 139.306C112.196 136.735 110.124 134.652 107.567 134.652C105.01 134.652 102.938 136.735 102.938 139.306C102.938 141.876 105.01 143.96 107.567 143.96Z" fill="#E6E6E6"/>
<path d="M110.835 24.8752C113.391 24.8752 115.464 22.7916 115.464 20.2214C115.464 17.6511 113.391 15.5675 110.835 15.5675C108.278 15.5675 106.205 17.6511 106.205 20.2214C106.205 22.7916 108.278 24.8752 110.835 24.8752Z" fill="#E6E6E6"/>
<path d="M75.7057 13.9249C78.2624 13.9249 80.3351 11.8413 80.3351 9.27106C80.3351 6.7008 78.2624 4.61719 75.7057 4.61719C73.1489 4.61719 71.0762 6.7008 71.0762 9.27106C71.0762 11.8413 73.1489 13.9249 75.7057 13.9249Z" fill="#E6E6E6"/>
<path d="M42.2096 24.3276C44.7663 24.3276 46.839 22.244 46.839 19.6738C46.839 17.1035 44.7663 15.0199 42.2096 15.0199C39.6528 15.0199 37.5801 17.1035 37.5801 19.6738C37.5801 22.244 39.6528 24.3276 42.2096 24.3276Z" fill="#E6E6E6"/>
<path d="M45.2057 143.96C47.7624 143.96 49.8351 141.876 49.8351 139.306C49.8351 136.735 47.7624 134.652 45.2057 134.652C42.6489 134.652 40.5762 136.735 40.5762 139.306C40.5762 141.876 42.6489 143.96 45.2057 143.96Z" fill="#E6E6E6"/>
<path d="M103.935 97.651C104.118 97.9383 104.361 98.1818 104.647 98.3644C104.933 98.5471 105.256 98.6644 105.592 98.7082C105.928 98.752 106.27 98.7211 106.593 98.6178C106.916 98.5144 107.213 98.3411 107.462 98.1101L114.726 102.023L114.337 97.7356L107.498 94.6771C107.084 94.2819 106.541 94.053 105.97 94.0339C105.4 94.0148 104.842 94.2067 104.403 94.5732C103.964 94.9398 103.673 95.4556 103.587 96.0228C103.501 96.5901 103.625 97.1694 103.935 97.651Z" fill="#FFB7B7"/>
<path d="M109.229 99.1473L112.075 95.197L125.789 101.714L142.855 98.4953C143.699 98.3362 144.567 98.3658 145.397 98.5819C146.228 98.7979 147.002 99.1953 147.663 99.7456C148.324 100.296 148.856 100.986 149.222 101.766C149.588 102.547 149.779 103.399 149.78 104.261C149.781 105.82 149.168 107.315 148.073 108.419C146.979 109.523 145.494 110.145 143.944 110.15L124.387 110.186L109.229 99.1473Z" fill="#3F3D56"/>
<path d="M104.843 167.375L101.963 165.99L105.919 153.888L110.17 155.932L104.843 167.375Z" fill="#FFB7B7"/>
<path d="M124.152 165.424C123.943 165.556 123.733 165.685 123.522 165.815C123.101 166.075 122.676 166.33 122.25 166.581C122.037 166.706 121.821 166.832 121.607 166.955V166.961L121.595 166.964L121.59 166.966L121.265 167.047L120.797 165.805L120.581 165.232L120.277 164.422L119.718 162.94L116.777 155.135L121.349 154.001L121.521 154.705H121.523L121.607 155.054L123.205 161.566L123.53 162.897L123.541 162.938L123.738 163.733L123.907 164.422L124.095 165.192L124.152 165.424Z" fill="#FFB7B7"/>
<path d="M151.426 138.014C151.136 138.482 150.84 138.948 150.542 139.409C149.987 140.268 149.418 141.115 148.834 141.948C148.834 141.951 148.832 141.951 148.83 141.953C148.489 142.27 148.113 142.546 147.709 142.776C147.692 142.788 147.673 142.797 147.656 142.808C147.358 142.973 147.041 143.101 146.712 143.188C146.594 143.218 146.473 143.248 146.355 143.278C145.928 143.38 145.504 143.467 145.083 143.543C144.335 143.677 143.594 143.773 142.858 143.833C142.799 143.839 142.739 143.843 142.68 143.848C139.653 144.071 136.706 143.711 133.63 143.122C132.111 142.833 130.56 142.486 128.954 142.127C128.429 142.008 127.903 141.891 127.37 141.774C127.329 141.765 127.287 141.755 127.245 141.746C126.483 141.578 125.709 141.412 124.915 141.249C123.917 141.042 122.887 140.842 121.816 140.653L121.892 142.17C121.956 143.336 122.197 144.486 122.607 145.579C123.064 146.923 123.426 147.986 122.662 150.2L122.294 151.272C122.485 151.804 122.551 152.374 122.486 152.936C122.421 153.498 122.227 154.037 121.92 154.511L121.846 154.624L124.915 162.431L125.114 162.937H123.542L121.609 162.939H118.332L113.603 153.403L113.377 152.948V152.925L113.866 134.598C113.872 134.437 113.885 134.273 113.906 134.111C113.992 133.377 114.223 132.666 114.585 132.022C114.947 131.378 115.433 130.813 116.015 130.36C116.573 129.922 117.211 129.6 117.894 129.412C118.576 129.224 119.289 129.175 119.99 129.267L121.609 129.477L124.915 129.907L127.245 130.211L127.291 130.217L134.161 131.11L134.654 129.09L134.745 129.056L137.637 127.991L147.639 124.305L147.664 124.296L148.322 124.054L148.401 124.182C148.424 124.22 148.447 124.258 148.468 124.296C149.119 125.468 149.648 126.704 150.049 127.984C150.722 130.075 151.277 132.203 151.709 134.358C151.729 134.452 151.745 134.537 151.76 134.613L151.767 134.637C151.773 134.673 151.777 134.696 151.779 134.703C152.01 135.668 151.849 136.846 151.426 138.014Z" fill="#2F2E41"/>
<path d="M151.849 131.26C151.817 131.124 151.777 130.986 151.734 130.852C151.398 129.837 151.007 128.842 150.562 127.87C150.063 126.764 149.464 125.58 148.751 124.297C148.406 123.676 148.036 123.03 147.639 122.36C147.44 122.024 147.233 121.681 147.019 121.333C147.01 121.317 147.001 121.301 146.991 121.286L146.93 121.184L137.033 122.515L133.348 123.011L133.128 124.857L133.075 125.314C133.073 125.314 133.073 125.314 133.075 125.316L132.927 126.562V126.564L132.73 128.21L132.713 128.208L127.244 127.496L121.608 126.762L118.581 126.369C117.879 126.277 117.166 126.326 116.484 126.514C115.801 126.701 115.163 127.024 114.606 127.462C114.024 127.915 113.538 128.48 113.176 129.124C112.814 129.769 112.583 130.479 112.496 131.213C112.477 131.362 112.465 131.515 112.458 131.666L109.602 138.47C107.893 142.539 106.805 146.844 106.374 151.239L104.279 157.97L104.578 157.998L109.016 158.412L110.188 158.523L112.769 154.735C113.063 154.304 113.343 153.859 113.603 153.404C114.031 152.661 114.412 151.891 114.743 151.099L120.326 137.743C120.758 137.817 121.185 137.888 121.608 137.955C123.565 138.274 125.444 138.534 127.244 138.736C133.098 139.393 138.167 139.444 142.68 138.887C143.947 138.732 145.172 138.527 146.354 138.274C146.788 138.183 147.216 138.084 147.639 137.979C147.738 137.955 147.835 137.932 147.933 137.906C148.807 137.68 149.611 137.236 150.27 136.616C150.93 135.997 151.425 135.22 151.709 134.359C152.048 133.36 152.097 132.285 151.849 131.26Z" fill="#2F2E41"/>
<path d="M105.764 165.399L102.647 163.897L102.159 163.661L101.378 165.588L95.9283 166.794C95.6589 166.853 95.4154 166.998 95.2334 167.206C95.0514 167.415 94.9405 167.676 94.9169 167.952C94.8932 168.229 94.9581 168.505 95.102 168.742C95.2459 168.978 95.4614 169.162 95.7168 169.267L101.042 171.451L102.732 169.922L102.317 171.975L104.323 172.798L106.521 165.764L105.764 165.399Z" fill="#2F2E41"/>
<path d="M124.916 162.431L125.115 162.937H124.916V162.431Z" fill="#2F2E41"/>
<path d="M123.829 163.045L120.564 164.183L120.052 164.361L120.845 166.282L117.817 170.994C117.667 171.226 117.595 171.501 117.612 171.778C117.628 172.055 117.732 172.319 117.909 172.532C118.086 172.745 118.325 172.896 118.593 172.962C118.861 173.029 119.143 173.007 119.398 172.901L124.71 170.686L124.841 168.404L125.983 170.156L127.984 169.322L124.624 162.77L123.829 163.045Z" fill="#2F2E41"/>
<path d="M151.034 134.341C150.84 134.341 150.649 134.294 150.477 134.203L133.246 125.152L133.047 124.332L132.672 121.739L132.677 121.715L134.316 114.12C134.286 114.055 134.223 113.948 134.152 113.827C133.42 112.581 131.194 108.788 135.443 103.567L142.904 94.8229L149.307 94.5459L149.38 94.6384C151.092 96.7987 152.246 99.3507 152.741 102.068C153.235 104.785 153.055 107.582 152.214 110.212L151.548 122.317L152.263 124.761C152.681 126.198 152.612 127.733 152.066 129.126L152.23 133.084C152.237 133.247 152.21 133.409 152.153 133.56C152.096 133.712 152.009 133.851 151.897 133.968C151.786 134.086 151.652 134.179 151.503 134.243C151.355 134.307 151.195 134.341 151.034 134.341Z" fill="#3F3D56"/>
<path d="M136.087 144.324C136.379 144.151 136.63 143.915 136.821 143.634C137.013 143.353 137.141 143.033 137.196 142.697C137.251 142.36 137.232 142.016 137.141 141.688C137.049 141.36 136.887 141.056 136.666 140.797L140.809 133.635L136.533 133.877L133.255 140.641C132.847 141.043 132.601 141.582 132.562 142.154C132.523 142.727 132.695 143.294 133.044 143.748C133.393 144.202 133.896 144.511 134.456 144.617C135.017 144.724 135.598 144.619 136.087 144.324Z" fill="#FFB7B7"/>
<path d="M137.758 139.059L133.93 136.061L140.886 122.51L138.279 105.253C138.151 104.4 138.21 103.529 138.454 102.701C138.698 101.874 139.119 101.111 139.69 100.466C140.26 99.8211 140.964 99.3103 141.753 98.9698C142.541 98.6293 143.395 98.4675 144.253 98.4959C145.802 98.5489 147.267 99.2176 148.326 100.355C149.386 101.493 149.953 103.006 149.904 104.564L149.26 124.214L137.758 139.059Z" fill="#3F3D56"/>
<path d="M138.797 91.1897V84.8202C138.795 82.5566 139.689 80.3851 141.28 78.7835C142.871 77.1819 145.03 76.2812 147.282 76.2798C149.533 76.2783 151.693 77.1762 153.287 78.7757C154.88 80.3753 155.776 82.5456 155.777 84.8092V84.8202C157.274 87.9549 156.338 89.4452 155.777 91.1897C155.777 91.4934 155.656 91.7846 155.443 91.9994C155.229 92.2142 154.939 92.3351 154.637 92.3356H139.937C139.635 92.3353 139.345 92.2144 139.132 91.9996C138.918 91.7848 138.797 91.4935 138.797 91.1897Z" fill="#2F2E41"/>
<path d="M144.504 91.9217C148.014 91.9217 150.859 89.0614 150.859 85.533C150.859 82.0046 148.014 79.1443 144.504 79.1443C140.994 79.1443 138.148 82.0046 138.148 85.533C138.148 89.0614 140.994 91.9217 144.504 91.9217Z" fill="#FFB7B7"/>
<path d="M151.154 87.2079C151.096 87.1987 151.039 87.1865 150.981 87.1774C149.99 87.0006 148.998 86.8269 148.01 86.6471L147.919 84.395L146.722 86.4124C143.99 87.3236 141.435 86.8086 139.031 85.6719C138.238 85.2935 137.468 84.867 136.727 84.395C136.929 83.1494 137.405 81.965 138.121 80.9283C138.837 79.8917 139.774 79.0291 140.865 78.4035C140.956 78.3517 141.044 78.306 141.134 78.2603L141.136 78.2601L141.137 78.2594L141.137 78.2584L141.137 78.2572C141.292 78.1841 141.45 78.114 141.607 78.05C142.842 77.5652 144.187 77.4424 145.488 77.6959C146.789 77.9495 147.991 78.5689 148.956 79.4823C150.896 81.3444 151.769 84.4194 151.154 87.2079Z" fill="#2F2E41"/>
</g>
<defs>
<clipPath id="clip0_2089_1309">
<rect width="184" height="173" fill="white"/>
</clipPath>
</defs>
</svg>
