<svg width="242" height="160" viewBox="0 0 242 160" fill="none" xmlns="http://www.w3.org/2000/svg">
<g clip-path="url(#clip0_2089_710)">
<path d="M226.207 141.371H165.056C162.831 141.368 160.698 140.456 159.125 138.835C157.551 137.213 156.667 135.015 156.664 132.721V33.3001C156.667 31.007 157.551 28.8085 159.125 27.187C160.698 25.5655 162.831 24.6535 165.056 24.6509H226.207C228.432 24.6535 230.565 25.5655 232.138 27.187C233.711 28.8085 234.596 31.007 234.599 33.3001V132.721C234.596 135.015 233.711 137.213 232.138 138.835C230.565 140.456 228.432 141.368 226.207 141.371Z" fill="#E6E6E6"/>
<path d="M227.222 29.812H164.941C164.245 29.8129 163.577 30.0984 163.085 30.606C162.592 31.1136 162.315 31.8018 162.314 32.5196V133.237C162.316 133.955 162.593 134.643 163.085 135.151C163.577 135.658 164.245 135.944 164.941 135.945H227.222C227.919 135.944 228.586 135.658 229.079 135.151C229.571 134.643 229.848 133.955 229.849 133.237V32.5196C229.848 31.8018 229.571 31.1136 229.079 30.606C228.586 30.0984 227.919 29.8129 227.222 29.812Z" fill="white"/>
<path d="M166.551 24.6509C166.551 24.4755 166.619 24.3073 166.739 24.1833C166.859 24.0592 167.023 23.9895 167.193 23.9893H171.558C171.728 23.9893 171.892 24.059 172.012 24.1831C172.132 24.3071 172.2 24.4754 172.2 24.6509C172.2 24.8264 172.132 24.9947 172.012 25.1188C171.892 25.2429 171.728 25.3126 171.558 25.3126H167.193C167.023 25.3124 166.859 25.2426 166.739 25.1186C166.619 24.9945 166.551 24.8264 166.551 24.6509Z" fill="#E6E6E6"/>
<path d="M173.74 24.6509C173.74 24.4755 173.808 24.3073 173.928 24.1833C174.049 24.0592 174.212 23.9895 174.382 23.9893H178.748C178.918 23.9893 179.081 24.059 179.201 24.1831C179.322 24.3071 179.39 24.4754 179.39 24.6509C179.39 24.8264 179.322 24.9947 179.201 25.1188C179.081 25.2429 178.918 25.3126 178.748 25.3126H174.382C174.212 25.3124 174.049 25.2426 173.928 25.1186C173.808 24.9945 173.74 24.8264 173.74 24.6509Z" fill="#E6E6E6"/>
<path d="M216.881 24.6509C216.881 24.4755 216.949 24.3073 217.069 24.1833C217.189 24.0592 217.353 23.9895 217.523 23.9893H221.888C222.058 23.9893 222.222 24.059 222.342 24.1831C222.463 24.3071 222.53 24.4754 222.53 24.6509C222.53 24.8264 222.463 24.9947 222.342 25.1188C222.222 25.2429 222.058 25.3126 221.888 25.3126H217.523C217.353 25.3124 217.189 25.2426 217.069 25.1186C216.949 24.9945 216.881 24.8264 216.881 24.6509Z" fill="#E6E6E6"/>
<path d="M204.712 133.87C204.712 134.566 204.7 135.259 204.669 135.945H164.941C164.245 135.944 163.577 135.658 163.085 135.151C162.593 134.643 162.316 133.955 162.314 133.237V82.5422C174.145 84.5123 184.909 90.7593 192.677 100.164C200.446 109.569 204.713 121.518 204.712 133.87Z" fill="#F2F2F2"/>
<path d="M203.363 55.6945H188.547C187.873 55.6945 187.326 56.2578 187.326 56.9527V58.5229C187.326 59.2178 187.873 59.7811 188.547 59.7811H203.363C204.037 59.7811 204.584 59.2178 204.584 58.5229V56.9527C204.584 56.2578 204.037 55.6945 203.363 55.6945Z" fill="black"/>
<path d="M212.779 63.8678H179.129C178.455 63.8678 177.908 64.4311 177.908 65.1261V66.6962C177.908 67.3911 178.455 67.9545 179.129 67.9545H212.779C213.453 67.9545 213.999 67.3911 213.999 66.6962V65.1261C213.999 64.4311 213.453 63.8678 212.779 63.8678Z" fill="#E6E6E6"/>
<path d="M212.779 72.0411H179.129C178.455 72.0411 177.908 72.6045 177.908 73.2994V74.8695C177.908 75.5645 178.455 76.1278 179.129 76.1278H212.779C213.453 76.1278 213.999 75.5645 213.999 74.8695V73.2994C213.999 72.6045 213.453 72.0411 212.779 72.0411Z" fill="#E6E6E6"/>
<path d="M207.017 129.062C206.824 129.071 206.633 129.019 206.47 128.912C206.307 128.806 206.179 128.65 206.105 128.466C206.03 128.283 206.012 128.08 206.053 127.885C206.094 127.691 206.192 127.514 206.334 127.379L206.399 127.114C206.39 127.093 206.382 127.072 206.373 127.051C206.179 126.578 205.853 126.174 205.437 125.891C205.021 125.608 204.533 125.458 204.034 125.46C203.536 125.462 203.049 125.616 202.635 125.902C202.221 126.188 201.898 126.594 201.707 127.069C200.944 128.963 199.972 130.861 199.733 132.864C199.628 133.749 199.672 134.647 199.864 135.517C198.072 131.487 197.141 127.107 197.135 122.673C197.135 121.561 197.195 120.449 197.315 119.344C197.414 118.437 197.552 117.537 197.728 116.644C198.689 111.796 200.751 107.253 203.746 103.386C205.196 102.571 206.368 101.317 207.106 99.7939C207.373 99.2464 207.561 98.6619 207.666 98.0586C207.502 98.0807 207.336 98.0945 207.173 98.1056C207.122 98.1083 207.068 98.1111 207.017 98.1139L206.998 98.1147C206.818 98.1231 206.64 98.0776 206.485 97.984C206.329 97.8903 206.204 97.7524 206.123 97.5868C206.042 97.4212 206.009 97.235 206.028 97.0507C206.047 96.8663 206.118 96.6916 206.231 96.5476C206.302 96.4581 206.373 96.3685 206.443 96.2791C206.551 96.1409 206.661 96.0055 206.768 95.8674C206.78 95.8542 206.792 95.8404 206.803 95.8259C206.926 95.6684 207.049 95.5136 207.173 95.3561C206.948 94.996 206.645 94.6944 206.288 94.4747C205.052 93.7286 203.347 94.2454 202.454 95.3976C201.559 96.5498 201.39 98.1663 201.701 99.606C202.007 100.831 202.513 101.993 203.197 103.043C203.13 103.132 203.06 103.217 202.993 103.306C201.768 104.93 200.7 106.673 199.805 108.512C200.023 106.452 199.763 104.369 199.047 102.433C198.321 100.628 196.961 99.109 195.763 97.5492C194.325 95.6757 191.375 96.4934 191.121 98.8683C191.119 98.8913 191.116 98.9143 191.114 98.9373C191.292 99.0407 191.466 99.1505 191.637 99.2667C191.851 99.4141 192.016 99.6247 192.112 99.8709C192.208 100.117 192.23 100.387 192.174 100.646C192.118 100.906 191.988 101.141 191.8 101.323C191.612 101.504 191.376 101.623 191.121 101.663L191.095 101.667C191.159 102.328 191.271 102.983 191.43 103.626C191.893 105.422 192.711 107.101 193.832 108.556C194.954 110.011 196.355 111.211 197.948 112.082C198.052 112.137 198.154 112.192 198.259 112.245C197.359 114.872 196.795 117.608 196.58 120.385C196.459 122.024 196.466 123.669 196.602 125.307L196.594 125.249C196.251 123.428 195.308 121.785 193.926 120.598C191.874 118.86 188.973 118.22 186.759 116.823C186.523 116.667 186.25 116.584 185.97 116.583C185.69 116.583 185.416 116.664 185.18 116.819C184.944 116.974 184.756 117.194 184.638 117.456C184.519 117.717 184.476 118.008 184.513 118.293C184.516 118.314 184.519 118.334 184.522 118.354C184.852 118.493 185.173 118.653 185.484 118.832C185.662 118.936 185.836 119.046 186.007 119.162C186.221 119.309 186.387 119.52 186.482 119.766C186.578 120.012 186.6 120.283 186.544 120.542C186.489 120.801 186.358 121.036 186.17 121.218C185.983 121.399 185.746 121.518 185.491 121.558L185.465 121.562C185.447 121.565 185.431 121.568 185.412 121.571C185.976 122.959 186.768 124.237 187.752 125.348C188.969 126.693 190.439 127.768 192.072 128.507C193.706 129.246 195.469 129.633 197.253 129.645H197.256C197.74 131.814 198.442 133.925 199.35 135.945H206.829C206.856 135.859 206.88 135.771 206.905 135.685C206.212 135.73 205.517 135.687 204.835 135.558C205.39 134.856 205.945 134.149 206.5 133.447C206.512 133.434 206.524 133.42 206.535 133.406C206.816 133.046 207.1 132.69 207.382 132.331L207.382 132.33C207.397 131.229 207.274 130.13 207.017 129.062ZM198.452 111.695L198.456 111.69L198.452 111.701V111.695ZM196.795 127.089L196.731 126.94C196.733 126.832 196.733 126.724 196.731 126.614C196.731 126.583 196.725 126.553 196.725 126.522C196.749 126.713 196.771 126.904 196.798 127.094L196.795 127.089Z" fill="#CCCCCC"/>
<path d="M224.108 38.704H168.053C167.932 38.7012 167.817 38.6497 167.732 38.5603C167.647 38.4709 167.6 38.3509 167.6 38.2258C167.6 38.1008 167.647 37.9808 167.732 37.8914C167.817 37.802 167.932 37.7504 168.053 37.7477H224.108C224.229 37.7504 224.345 37.802 224.43 37.8914C224.514 37.9808 224.562 38.1008 224.562 38.2258C224.562 38.3509 224.514 38.4709 224.43 38.5603C224.345 38.6497 224.229 38.7012 224.108 38.704Z" fill="#CACACA"/>
<path d="M171.045 36.3651C171.798 36.3651 172.409 35.7218 172.409 34.9284C172.409 34.1349 171.798 33.4917 171.045 33.4917C170.292 33.4917 169.682 34.1349 169.682 34.9284C169.682 35.7218 170.292 36.3651 171.045 36.3651Z" fill="#3F3D56"/>
<path d="M175.754 36.3651C176.507 36.3651 177.118 35.7218 177.118 34.9284C177.118 34.1349 176.507 33.4917 175.754 33.4917C175.001 33.4917 174.391 34.1349 174.391 34.9284C174.391 35.7218 175.001 36.3651 175.754 36.3651Z" fill="#3F3D56"/>
<path d="M180.465 36.3651C181.218 36.3651 181.829 35.7218 181.829 34.9284C181.829 34.1349 181.218 33.4917 180.465 33.4917C179.712 33.4917 179.102 34.1349 179.102 34.9284C179.102 35.7218 179.712 36.3651 180.465 36.3651Z" fill="#3F3D56"/>
<path d="M221.917 34.0468H218.865C218.805 34.048 218.747 34.0736 218.705 34.1181C218.662 34.1627 218.639 34.2225 218.639 34.2849C218.639 34.3472 218.662 34.4071 218.705 34.4516C218.747 34.4962 218.805 34.5218 218.865 34.523H221.917C221.977 34.5218 222.035 34.4962 222.077 34.4516C222.119 34.4071 222.143 34.3472 222.143 34.2849C222.143 34.2225 222.119 34.1627 222.077 34.1181C222.035 34.0736 221.977 34.048 221.917 34.0468Z" fill="#3F3D56"/>
<path d="M221.917 34.9406H218.865C218.805 34.9418 218.747 34.9674 218.705 35.0119C218.662 35.0565 218.639 35.1163 218.639 35.1787C218.639 35.241 218.662 35.3009 218.705 35.3454C218.747 35.39 218.805 35.4156 218.865 35.4168H221.917C221.977 35.4156 222.035 35.39 222.077 35.3454C222.119 35.3009 222.143 35.241 222.143 35.1787C222.143 35.1163 222.119 35.0565 222.077 35.0119C222.035 34.9674 221.977 34.9418 221.917 34.9406Z" fill="#3F3D56"/>
<path d="M221.917 35.8333H218.865C218.805 35.8345 218.747 35.8601 218.705 35.9046C218.662 35.9492 218.639 36.009 218.639 36.0714C218.639 36.1337 218.662 36.1936 218.705 36.2381C218.747 36.2827 218.805 36.3083 218.865 36.3095H221.917C221.977 36.3083 222.035 36.2827 222.077 36.2381C222.119 36.1936 222.143 36.1337 222.143 36.0714C222.143 36.009 222.119 35.9492 222.077 35.9046C222.035 35.8601 221.977 35.8345 221.917 35.8333Z" fill="#3F3D56"/>
<path d="M130.969 82.5801H98.4697C98.0099 82.5808 97.5692 82.7697 97.2446 83.1052C96.9199 83.4407 96.7378 83.8954 96.7383 84.3692V137.284H132.705V84.3692C132.705 84.1342 132.66 83.9015 132.573 83.6844C132.485 83.4673 132.358 83.27 132.196 83.1038C132.035 82.9377 131.844 82.8059 131.633 82.716C131.422 82.6261 131.197 82.58 130.969 82.5801ZM114.828 112.646C113.812 112.641 112.839 112.223 112.12 111.482C111.401 110.741 110.996 109.738 110.991 108.69V102.587C110.992 101.539 111.396 100.533 112.116 99.7924C112.836 99.0514 113.811 98.6351 114.828 98.6351C115.846 98.6351 116.821 99.0514 117.541 99.7924C118.261 100.533 118.665 101.539 118.666 102.587V108.69C118.661 109.738 118.256 110.741 117.537 111.482C116.818 112.223 115.845 112.641 114.828 112.646Z" fill="#E6E6E6"/>
<path d="M96.627 135.592V140.697C96.6275 140.962 96.7297 141.215 96.9112 141.402C97.0926 141.589 97.3386 141.695 97.5953 141.695H131.848C132.104 141.694 132.35 141.588 132.531 141.401C132.713 141.215 132.815 140.961 132.816 140.697V135.592L96.627 135.592Z" fill="#CCCCCC"/>
<path d="M184.784 0H45.8638C44.6703 0.0019571 43.5261 0.491515 42.6822 1.36139C41.8382 2.23127 41.3632 3.41051 41.3613 4.6407V101.263C41.3625 102.494 41.8372 103.673 42.6813 104.543C43.5255 105.413 44.67 105.903 45.8638 105.904H184.784C185.978 105.903 187.123 105.413 187.967 104.543C188.811 103.673 189.286 102.494 189.287 101.263V4.6407C189.285 3.41051 188.81 2.23127 187.966 1.36139C187.122 0.491515 185.978 0.00195633 184.784 0Z" fill="#E6E6E6"/>
<path d="M183.625 3.35193H47.0251C46.386 3.35336 45.7736 3.61601 45.3222 4.08225C44.8708 4.54849 44.6172 5.18026 44.6172 5.83894V100.067C44.6183 100.724 44.8723 101.355 45.3237 101.82C45.775 102.285 46.3868 102.547 47.0251 102.548H183.625C184.264 102.547 184.876 102.285 185.327 101.82C185.778 101.355 186.032 100.724 186.033 100.067V5.83894C186.033 5.18026 185.78 4.54849 185.328 4.08225C184.877 3.61601 184.265 3.35336 183.625 3.35193Z" fill="white"/>
<path d="M186.033 5.83894V100.067C186.032 100.724 185.778 101.355 185.327 101.82C184.876 102.285 184.264 102.547 183.625 102.548H135.457C130.129 97.4549 125.757 91.3923 122.562 84.6647C122.351 84.2313 122.151 83.7927 121.961 83.349C119.049 76.8373 117.286 69.8432 116.754 62.6944C116.719 62.2558 116.689 61.8172 116.669 61.3735C116.604 60.2383 116.574 59.0877 116.574 57.9319C116.565 50.2451 117.973 42.6264 120.724 35.4818C120.889 35.038 121.065 34.5994 121.245 34.1609C126.782 20.7521 136.787 9.82505 149.454 3.35193H183.625C184.265 3.35336 184.877 3.61601 185.328 4.08225C185.78 4.54849 186.033 5.18026 186.033 5.83894Z" fill="black"/>
<path d="M176.757 16.3344H48.9409C48.808 16.3315 48.6815 16.275 48.5885 16.1771C48.4954 16.0792 48.4434 15.9476 48.4434 15.8105C48.4434 15.6735 48.4954 15.5419 48.5885 15.4439C48.6815 15.346 48.808 15.2895 48.9409 15.2866H176.757C176.89 15.2895 177.017 15.346 177.11 15.4439C177.203 15.5419 177.255 15.6735 177.255 15.8105C177.255 15.9476 177.203 16.0792 177.11 16.1771C177.017 16.275 176.89 16.3315 176.757 16.3344Z" fill="#CACACA"/>
<path d="M57.6429 12.6116C59.288 12.6116 60.6217 11.2064 60.6217 9.47293C60.6217 7.73947 59.288 6.33423 57.6429 6.33423C55.9977 6.33423 54.6641 7.73947 54.6641 9.47293C54.6641 11.2064 55.9977 12.6116 57.6429 12.6116Z" fill="#3F3D56"/>
<path d="M67.9339 12.6116C69.5791 12.6116 70.9127 11.2064 70.9127 9.47293C70.9127 7.73947 69.5791 6.33423 67.9339 6.33423C66.2887 6.33423 64.9551 7.73947 64.9551 9.47293C64.9551 11.2064 66.2887 12.6116 67.9339 12.6116Z" fill="#3F3D56"/>
<path d="M78.223 12.6116C79.8681 12.6116 81.2018 11.2064 81.2018 9.47293C81.2018 7.73947 79.8681 6.33423 78.223 6.33423C76.5778 6.33423 75.2441 7.73947 75.2441 9.47293C75.2441 11.2064 76.5778 12.6116 78.223 12.6116Z" fill="#3F3D56"/>
<path d="M170.563 7.11218H163.254C163.109 7.11514 162.971 7.17654 162.869 7.2832C162.768 7.38986 162.711 7.53328 162.711 7.68266C162.711 7.83203 162.768 7.97546 162.869 8.08212C162.971 8.18878 163.109 8.25018 163.254 8.25314H170.563C170.708 8.25018 170.846 8.18878 170.948 8.08212C171.049 7.97546 171.106 7.83203 171.106 7.68266C171.106 7.53328 171.049 7.38986 170.948 7.2832C170.846 7.17654 170.708 7.11514 170.563 7.11218Z" fill="#3F3D56"/>
<path d="M170.563 9.25366H163.254C163.109 9.25662 162.971 9.31802 162.869 9.42468C162.768 9.53135 162.711 9.67476 162.711 9.82414C162.711 9.97351 162.768 10.1169 162.869 10.2236C162.971 10.3303 163.109 10.3917 163.254 10.3946H170.563C170.708 10.3917 170.846 10.3303 170.948 10.2236C171.049 10.1169 171.106 9.97351 171.106 9.82414C171.106 9.67476 171.049 9.53135 170.948 9.42468C170.846 9.31802 170.708 9.25662 170.563 9.25366Z" fill="#3F3D56"/>
<path d="M170.563 11.3922H163.254C163.109 11.3952 162.971 11.4566 162.869 11.5632C162.768 11.6699 162.711 11.8133 162.711 11.9627C162.711 12.1121 162.768 12.2555 162.869 12.3621C162.971 12.4688 163.109 12.5302 163.254 12.5332H170.563C170.708 12.5302 170.846 12.4688 170.948 12.3621C171.049 12.2555 171.106 12.1121 171.106 11.9627C171.106 11.8133 171.049 11.6699 170.948 11.5632C170.846 11.4566 170.708 11.3952 170.563 11.3922Z" fill="#3F3D56"/>
<path d="M88.0772 46.941H70.2032C69.529 46.941 68.9824 47.5044 68.9824 48.1993V50.1604C68.9824 50.8553 69.529 51.4187 70.2032 51.4187H88.0772C88.7514 51.4187 89.298 50.8553 89.298 50.1604V48.1993C89.298 47.5044 88.7514 46.941 88.0772 46.941Z" fill="black"/>
<path d="M98.3959 55.8962H59.8868C59.2126 55.8962 58.666 56.4596 58.666 57.1545V59.1156C58.666 59.8105 59.2126 60.3739 59.8868 60.3739H98.3959C99.0702 60.3739 99.6167 59.8105 99.6167 59.1156V57.1545C99.6167 56.4596 99.0702 55.8962 98.3959 55.8962Z" fill="#E6E6E6"/>
<path d="M98.3959 64.8516H59.8868C59.2126 64.8516 58.666 65.4149 58.666 66.1098V68.0709C58.666 68.7658 59.2126 69.3292 59.8868 69.3292H98.3959C99.0702 69.3292 99.6167 68.7658 99.6167 68.0709V66.1098C99.6167 65.4149 99.0702 64.8516 98.3959 64.8516Z" fill="#E6E6E6"/>
<path d="M62.0082 97.1462C62.0112 98.9905 61.6925 100.82 61.0671 102.548H47.0251C46.3868 102.547 45.775 102.285 45.3237 101.82C44.8723 101.355 44.6183 100.724 44.6172 100.067V81.8629C45.4018 81.7322 46.1953 81.6666 46.9901 81.6669C48.9623 81.6667 50.9153 82.067 52.7374 82.8449C54.5596 83.6228 56.2152 84.763 57.6098 86.2004C59.0044 87.6378 60.1106 89.3443 60.8653 91.2223C61.62 93.1004 62.0084 95.1134 62.0082 97.1462Z" fill="black"/>
<path opacity="0.2" d="M186.157 35.4818V34.1609H164.676V18.8519H163.4V34.1609H138.78V18.8519H137.503V34.1609H121.244C121.063 34.5995 120.888 35.0381 120.723 35.4819H137.503V61.3736H116.668C116.688 61.8173 116.718 62.2559 116.753 62.6945H137.503V83.349H121.959C122.15 83.7928 122.35 84.2313 122.56 84.6648H137.503V102.027H138.78V84.6647H163.4V102.027H164.676V84.6647H186.157V83.349H164.676C164.676 80.6366 165.194 77.9508 166.201 75.4448C167.209 72.9389 168.685 70.662 170.545 68.744C172.406 66.8261 174.615 65.3047 177.047 64.2667C179.478 63.2287 182.084 62.6944 184.715 62.6944H186.157V61.3735H164.676V35.4818H186.157ZM163.4 83.349H138.78V62.6944H163.4V83.349ZM163.4 61.3735H138.78V60.8576C138.78 54.1275 141.374 47.6731 145.991 42.9142C150.608 38.1553 156.87 35.4818 163.4 35.4818L163.4 61.3735Z" fill="black"/>
<path d="M168.862 92.7726C168.588 92.7856 168.317 92.7114 168.085 92.5602C167.853 92.409 167.672 92.188 167.567 91.9271C167.461 91.6663 167.435 91.3783 167.494 91.102C167.552 90.8258 167.691 90.5747 167.893 90.3827C167.926 90.2446 167.951 90.1453 167.984 90.0071C167.972 89.9771 167.96 89.947 167.948 89.917C166.716 86.8901 162.542 86.911 161.321 89.9424C160.237 92.6329 158.857 95.328 158.518 98.1728C158.368 99.4302 158.431 100.705 158.704 101.94C156.159 96.2166 154.837 89.9959 154.828 83.6997C154.828 82.1198 154.913 80.541 155.083 78.9709C155.224 77.6837 155.42 76.4056 155.67 75.1368C157.034 68.252 159.964 61.799 164.217 56.3077C166.276 55.1499 167.941 53.3693 168.988 51.2061C169.367 50.4285 169.635 49.5984 169.784 48.7416C169.552 48.773 169.316 48.7926 169.083 48.8083C169.011 48.8122 168.935 48.8161 168.862 48.8201L168.835 48.8213C168.58 48.8331 168.327 48.7686 168.106 48.6356C167.886 48.5026 167.707 48.3067 167.592 48.0715C167.477 47.8364 167.431 47.572 167.458 47.3101C167.485 47.0483 167.586 46.8002 167.747 46.5957C167.847 46.4685 167.947 46.3414 168.048 46.2143C168.2 46.0181 168.356 45.8258 168.508 45.6296C168.526 45.6109 168.542 45.5913 168.558 45.5707C168.733 45.347 168.908 45.1272 169.083 44.9035C168.764 44.3921 168.334 43.9637 167.827 43.6517C166.072 42.5921 163.65 43.326 162.382 44.9624C161.11 46.5988 160.871 48.8946 161.312 50.9392C161.689 52.6895 162.512 54.2945 163.437 55.8211C163.342 55.9467 163.243 56.0683 163.147 56.1939C161.407 58.5001 159.891 60.9764 158.62 63.5875C158.929 60.6623 158.56 57.7033 157.543 54.9538C156.512 52.3914 154.581 50.2334 152.88 48.0182C150.837 45.3574 146.647 46.5186 146.287 49.8916C146.283 49.9242 146.28 49.9569 146.277 49.9895C146.529 50.1364 146.777 50.2924 147.019 50.4573C147.323 50.6667 147.558 50.9658 147.694 51.3154C147.831 51.6651 147.861 52.0491 147.782 52.417C147.703 52.7849 147.518 53.1196 147.251 53.3772C146.984 53.6349 146.648 53.8035 146.287 53.8609L146.25 53.8668C146.34 54.8053 146.499 55.7355 146.726 56.6491C147.383 59.1999 148.545 61.5832 150.137 63.6496C151.73 65.716 153.72 67.421 155.982 68.6577C156.13 68.7362 156.275 68.8146 156.424 68.8892C155.146 72.6202 154.345 76.5064 154.04 80.4503C153.867 82.7771 153.878 85.1145 154.071 87.4396L154.059 87.3572C153.572 84.7717 152.234 82.4389 150.271 80.7525C147.355 78.2841 143.236 77.3751 140.091 75.391C138.577 74.4359 136.637 75.6701 136.901 77.4793C136.906 77.5082 136.91 77.5371 136.914 77.566C137.383 77.7628 137.84 77.9895 138.281 78.2449C138.534 78.3918 138.781 78.5477 139.023 78.7126C139.327 78.922 139.563 79.2211 139.699 79.5708C139.835 79.9205 139.866 80.3044 139.787 80.6723C139.707 81.0402 139.522 81.3749 139.256 81.6326C138.989 81.8903 138.653 82.0588 138.291 82.1162L138.254 82.1221C138.228 82.126 138.205 82.13 138.178 82.1339C138.979 84.1054 140.104 85.9201 141.502 87.4985C143.23 89.4091 145.318 90.9358 147.638 91.9852C149.958 93.0345 152.462 93.5843 154.996 93.6008H155C155.687 96.6815 156.684 99.6801 157.973 102.548H168.596C168.634 102.427 168.668 102.301 168.703 102.179C167.719 102.243 166.732 102.183 165.763 101.999C166.551 101.002 167.339 99.9975 168.128 99.0007C168.145 98.9821 168.162 98.9625 168.177 98.9419C168.577 98.4317 168.98 97.9255 169.38 97.4153L169.38 97.4147C169.402 95.8509 169.228 94.2908 168.862 92.7728L168.862 92.7726ZM156.698 68.1083L156.703 68.1005L156.698 68.1161V68.1083ZM154.345 89.9708L154.253 89.7589C154.257 89.6059 154.257 89.4528 154.253 89.2959C154.253 89.2527 154.246 89.2095 154.246 89.1663C154.28 89.4371 154.31 89.7079 154.348 89.9787L154.345 89.9708Z" fill="#2F2E41"/>
<path d="M74.2713 67.1653V52.4502C74.2713 50.1914 73.4007 48.0251 71.8511 46.428C70.3015 44.8308 68.1998 43.9335 66.0083 43.9335H35.761C33.5696 43.9335 31.4678 44.8308 29.9182 46.428C28.3686 48.0251 27.498 50.1914 27.498 52.4502V133.178C27.498 135.437 28.3686 137.603 29.9182 139.201C31.4678 140.798 33.5695 141.695 35.761 141.695H66.0083C67.0934 141.695 68.1679 141.475 69.1704 141.047C70.1729 140.619 71.0839 139.992 71.8511 139.201C72.6184 138.41 73.2271 137.471 73.6423 136.438C74.0576 135.404 74.2713 134.297 74.2713 133.178V77.6398C74.4095 77.6398 74.5421 77.5832 74.6398 77.4824C74.7375 77.3817 74.7925 77.2451 74.7925 77.1026V67.7025C74.7925 67.56 74.7376 67.4234 74.6398 67.3226C74.5421 67.2219 74.4095 67.1653 74.2713 67.1653Z" fill="#E6E6E6"/>
<path d="M72.512 52.5087V133.12C72.5122 134.795 71.8713 136.402 70.7287 137.592C69.586 138.782 68.0339 139.46 66.4094 139.477C66.387 139.479 66.3644 139.48 66.3419 139.48H35.9474C34.311 139.48 32.7418 138.81 31.5847 137.617C30.4276 136.424 29.7775 134.807 29.7773 133.12V52.5087C29.7775 50.8221 30.4276 49.2046 31.5847 48.012C32.7418 46.8194 34.311 46.1493 35.9474 46.1492H39.6359C39.4546 46.6081 39.3855 47.106 39.4347 47.599C39.4839 48.0919 39.6499 48.5649 39.918 48.9762C40.1862 49.3875 40.5484 49.7246 40.9726 49.9578C41.3968 50.1909 41.8702 50.3131 42.351 50.3134H59.6795C60.1598 50.3121 60.6326 50.1892 61.0561 49.9557C61.4797 49.7222 61.8412 49.3851 62.109 48.974C62.3767 48.5629 62.5425 48.0904 62.5918 47.5979C62.6411 47.1054 62.5724 46.6079 62.3917 46.1492H66.3419C67.9783 46.1493 69.5476 46.8194 70.7046 48.012C71.8617 49.2046 72.5118 50.8221 72.512 52.5087Z" fill="white"/>
<path d="M66.4854 136.992C66.4854 137.827 66.4601 138.655 66.4094 139.477C66.387 139.479 66.3644 139.48 66.3419 139.48H35.9474C34.311 139.48 32.7418 138.81 31.5847 137.617C30.4276 136.424 29.7775 134.807 29.7773 133.12V97.1963C39.6804 97.7109 49.0128 102.128 55.845 109.535C62.6772 116.942 66.4865 126.772 66.4854 136.992Z" fill="#F2F2F2"/>
<path d="M27.6643 75.3975C27.4778 75.3973 27.2991 75.3208 27.1672 75.1849C27.0353 75.049 26.9612 74.8647 26.9609 74.6725V69.7427C26.9609 69.5504 27.035 69.366 27.167 69.23C27.2989 69.0941 27.4778 69.0177 27.6643 69.0177C27.8509 69.0177 28.0298 69.0941 28.1617 69.23C28.2936 69.366 28.3677 69.5504 28.3677 69.7427V74.6725C28.3675 74.8647 28.2933 75.049 28.1614 75.1849C28.0296 75.3208 27.8508 75.3973 27.6643 75.3975Z" fill="#E6E6E6"/>
<path d="M54.8761 71.4612H47.4122C46.738 71.4612 46.1914 72.0245 46.1914 72.7194V74.6805C46.1914 75.3755 46.738 75.9388 47.4122 75.9388H54.8761C55.5504 75.9388 56.0969 75.3755 56.0969 74.6805V72.7194C56.0969 72.0245 55.5504 71.4612 54.8761 71.4612Z" fill="black"/>
<path d="M65.1949 80.4165H37.0958C36.4216 80.4165 35.875 80.9799 35.875 81.6748V83.6359C35.875 84.3308 36.4216 84.8941 37.0958 84.8941H65.1949C65.8691 84.8941 66.4157 84.3308 66.4157 83.6359V81.6748C66.4157 80.9799 65.8691 80.4165 65.1949 80.4165Z" fill="#E6E6E6"/>
<path d="M65.1949 89.3718H37.0958C36.4216 89.3718 35.875 89.9352 35.875 90.6301V92.5912C35.875 93.2861 36.4216 93.8494 37.0958 93.8494H65.1949C65.8691 93.8494 66.4157 93.2861 66.4157 92.5912V90.6301C66.4157 89.9352 65.8691 89.3718 65.1949 89.3718Z" fill="#E6E6E6"/>
<path d="M58.4324 134.892C58.3038 134.899 58.1765 134.864 58.0678 134.793C57.959 134.722 57.874 134.618 57.8244 134.496C57.7747 134.373 57.7628 134.238 57.7902 134.108C57.8175 133.979 57.8829 133.861 57.9774 133.771L58.0204 133.595C58.0148 133.581 58.0091 133.566 58.0033 133.552C57.8738 133.237 57.6567 132.968 57.3794 132.78C57.1021 132.591 56.7769 132.491 56.4447 132.492C56.1124 132.494 55.7879 132.596 55.512 132.787C55.236 132.977 55.0209 133.248 54.8937 133.564C54.385 134.827 53.7375 136.092 53.5781 137.427C53.5078 138.017 53.5375 138.615 53.6656 139.194C52.471 136.509 51.8507 133.589 51.8467 130.635C51.8465 129.893 51.8865 129.153 51.9664 128.416C52.0326 127.812 52.1243 127.212 52.2416 126.617C52.8819 123.386 54.2566 120.358 56.2528 117.781C57.2189 117.237 58.0003 116.402 58.4915 115.387C58.6695 115.022 58.7952 114.632 58.8649 114.23C58.7559 114.245 58.6452 114.254 58.5362 114.261C58.5022 114.263 58.4665 114.265 58.4325 114.267L58.4197 114.268C58.3 114.273 58.1812 114.243 58.0777 114.18C57.9742 114.118 57.8904 114.026 57.8365 113.916C57.7825 113.805 57.7606 113.681 57.7735 113.558C57.7863 113.436 57.8334 113.319 57.9089 113.223C57.956 113.163 58.0031 113.104 58.0502 113.044C58.1217 112.952 58.1949 112.862 58.2664 112.77C58.2746 112.761 58.2824 112.752 58.2896 112.742C58.3718 112.637 58.454 112.534 58.5362 112.429C58.3862 112.189 58.1844 111.988 57.9466 111.842C57.1229 111.344 55.9865 111.689 55.3916 112.457C54.7948 113.225 54.6823 114.302 54.8895 115.261C55.0933 116.078 55.4305 116.852 55.8865 117.552C55.8418 117.611 55.7954 117.668 55.7507 117.727C54.9342 118.809 54.2225 119.972 53.6259 121.197C53.771 119.824 53.5978 118.436 53.1207 117.145C52.6371 115.943 51.7306 114.93 50.9324 113.891C50.7213 113.611 50.4346 113.403 50.1085 113.292C49.7825 113.18 49.4317 113.171 49.1006 113.265C48.7695 113.359 48.4729 113.552 48.2482 113.82C48.0236 114.088 47.881 114.418 47.8386 114.77C47.8369 114.785 47.8353 114.8 47.8338 114.816C47.9524 114.885 48.0684 114.958 48.182 115.035C48.3246 115.134 48.4352 115.274 48.4991 115.438C48.563 115.602 48.5774 115.782 48.5403 115.955C48.5032 116.128 48.4163 116.285 48.2911 116.406C48.1659 116.526 48.0082 116.606 47.8387 116.632L47.8213 116.635C47.8635 117.076 47.9382 117.512 48.0446 117.941C48.353 119.138 48.898 120.256 49.6455 121.226C50.3929 122.196 51.3266 122.996 52.3881 123.576C52.4578 123.613 52.5257 123.65 52.5954 123.685C51.996 125.436 51.62 127.259 51.4769 129.11C51.3959 130.202 51.4007 131.299 51.4912 132.39L51.4858 132.351C51.2571 131.138 50.6292 130.043 49.708 129.252C48.3399 128.093 46.4071 127.667 44.9311 126.736C44.7743 126.632 44.5919 126.577 44.4055 126.576C44.2191 126.576 44.0364 126.63 43.8791 126.733C43.7218 126.836 43.5963 126.983 43.5175 127.158C43.4386 127.332 43.4098 127.525 43.4343 127.716L43.4403 127.756C43.6603 127.849 43.8745 127.955 44.0817 128.075C44.2003 128.144 44.3163 128.217 44.4299 128.295C44.5725 128.393 44.6831 128.533 44.747 128.697C44.8109 128.861 44.8253 129.042 44.7882 129.214C44.7511 129.387 44.6642 129.544 44.539 129.665C44.4138 129.786 44.2561 129.865 44.0866 129.892L44.0692 129.895C44.0567 129.896 44.046 129.898 44.0335 129.9C44.4094 130.825 44.937 131.677 45.5932 132.417C46.4039 133.314 47.3837 134.03 48.4725 134.523C49.5614 135.015 50.7363 135.273 51.9253 135.281H51.9271C52.2499 136.727 52.7175 138.134 53.3226 139.48H58.3075C58.3253 139.423 58.3414 139.364 58.3575 139.307C57.8961 139.337 57.4329 139.308 56.9781 139.222C57.348 138.754 57.7178 138.283 58.0877 137.815C58.0959 137.806 58.1037 137.797 58.1109 137.787C58.2985 137.548 58.4879 137.311 58.6755 137.071L58.6756 137.071C58.6856 136.337 58.6038 135.605 58.4324 134.892ZM52.724 123.318L52.7266 123.315L52.724 123.322V123.318ZM51.6198 133.578L51.5769 133.478C51.5787 133.406 51.5787 133.335 51.5769 133.261C51.5769 133.241 51.5734 133.22 51.5734 133.2C51.5894 133.327 51.6037 133.454 51.6216 133.581L51.6198 133.578Z" fill="#CCCCCC"/>
<path d="M27.5237 65.8278C27.3372 65.8276 27.1584 65.7511 27.0266 65.6152C26.8947 65.4793 26.8205 65.295 26.8203 65.1028V60.173C26.8203 59.9807 26.8944 59.7963 27.0263 59.6603C27.1582 59.5244 27.3371 59.448 27.5237 59.448C27.7102 59.448 27.8891 59.5244 28.0211 59.6603C28.153 59.7963 28.2271 59.9807 28.2271 60.173V65.1028C28.2269 65.295 28.1527 65.4793 28.0208 65.6152C27.889 65.7511 27.7102 65.8276 27.5237 65.8278Z" fill="#E6E6E6"/>
<path d="M46.2344 46.9784C46.2346 46.7862 46.3088 46.6019 46.4406 46.466C46.5725 46.3301 46.7513 46.2536 46.9378 46.2534H51.7207C51.9073 46.2534 52.0862 46.3298 52.2181 46.4658C52.35 46.6017 52.4241 46.7861 52.4241 46.9784C52.4241 47.1707 52.35 47.3551 52.2181 47.491C52.0862 47.627 51.9073 47.7034 51.7207 47.7034H46.9378C46.7513 47.7031 46.5725 47.6267 46.4406 47.4908C46.3088 47.3549 46.2346 47.1706 46.2344 46.9784Z" fill="white"/>
<path d="M27.6643 83.8073C27.4778 83.8071 27.2991 83.7306 27.1672 83.5947C27.0353 83.4588 26.9612 83.2745 26.9609 83.0823V78.1525C26.9609 77.9602 27.035 77.7758 27.167 77.6398C27.2989 77.5039 27.4778 77.4275 27.6643 77.4275C27.8509 77.4275 28.0298 77.5039 28.1617 77.6398C28.2936 77.7758 28.3677 77.9602 28.3677 78.1525V83.0823C28.3675 83.2745 28.2933 83.4588 28.1614 83.5947C28.0296 83.7306 27.8508 83.8071 27.6643 83.8073Z" fill="#E6E6E6"/>
<path d="M54.3928 47.7034C54.7813 47.7034 55.0962 47.3788 55.0962 46.9784C55.0962 46.578 54.7813 46.2534 54.3928 46.2534C54.0044 46.2534 53.6895 46.578 53.6895 46.9784C53.6895 47.3788 54.0044 47.7034 54.3928 47.7034Z" fill="white"/>
<path d="M241.664 141.693L0.334033 141.782C0.245353 141.782 0.160395 141.746 0.0977796 141.681C0.0351641 141.616 0 141.528 0 141.437C0 141.346 0.0351641 141.258 0.0977796 141.193C0.160395 141.129 0.245353 141.092 0.334033 141.092L241.664 141.003C241.753 141.003 241.838 141.039 241.901 141.104C241.964 141.169 241.999 141.256 241.999 141.348C241.999 141.44 241.964 141.527 241.901 141.592C241.838 141.657 241.753 141.693 241.664 141.693Z" fill="#CACACA"/>
<path d="M103.192 65.5687L101.922 65.8491C101.914 65.3018 101.848 64.7571 101.725 64.2246C101.61 64.8767 101.366 65.4978 101.01 66.0498L93.73 67.6523L86.7403 60.0494C86.7296 56.248 88.7777 53.3591 92.4499 53.3591C92.6712 53.3591 92.9006 53.3701 93.1326 53.3921C95.1166 53.0498 97.1521 53.5144 98.8105 54.6879C100.469 55.8615 101.621 57.6524 102.024 59.6838C104.627 62.3253 103.682 63.8783 103.192 65.5687Z" fill="#2F2E41"/>
<path d="M106.772 154.481H109.413L110.669 143.982L106.771 143.983L106.772 154.481Z" fill="#FFB6B6"/>
<path d="M106.116 153.139L110.291 152.882V154.725L114.26 157.551C114.456 157.69 114.603 157.891 114.681 158.123C114.759 158.355 114.762 158.606 114.692 158.841C114.621 159.075 114.479 159.28 114.287 159.426C114.095 159.571 113.863 159.65 113.625 159.65H108.655L107.798 157.826L107.464 159.65H105.59L106.116 153.139Z" fill="#2F2E41"/>
<path d="M75.834 151.519L78.1309 152.862L84.2504 144.369L80.8603 142.387L75.834 151.519Z" fill="#FFB6B6"/>
<path d="M75.9073 150.018L79.6611 151.918L78.7785 153.521L80.8777 157.997C80.9814 158.218 81.0139 158.468 80.9703 158.709C80.9267 158.95 80.8094 159.171 80.6355 159.339C80.4616 159.507 80.2402 159.613 80.0037 159.642C79.7671 159.671 79.5277 159.621 79.3205 159.5L74.9979 156.972L75.1259 154.95L73.9619 156.366L72.332 155.413L75.9073 150.018Z" fill="#2F2E41"/>
<path d="M116.534 67.4081C116.195 67.4586 115.872 67.5849 115.586 67.7782C115.3 67.9715 115.059 68.227 114.879 68.5268C114.699 68.8266 114.585 69.1634 114.546 69.5134C114.506 69.8634 114.541 70.2182 114.648 70.5527L110.607 74.1578L112.134 77.2233L117.771 72.0495C118.305 71.8259 118.74 71.4085 118.994 70.8763C119.249 70.3442 119.305 69.7343 119.153 69.1621C119 68.59 118.649 68.0955 118.167 67.7722C117.684 67.4489 117.103 67.3194 116.534 67.4081Z" fill="#FFB6B6"/>
<path d="M112.463 79.8053C111.115 81.9096 108.094 83.9418 103.61 85.7435C103.363 85.8457 103.098 85.8938 102.831 85.8848C102.565 85.8759 102.304 85.81 102.063 85.6914C100.371 84.8977 99.2868 81.9471 99.185 81.6608L95.9078 77.1043C95.8497 77.0379 94.3172 75.2453 94.4925 73.483C94.532 73.1137 94.6485 72.7576 94.8342 72.4391C95.0198 72.1206 95.2702 71.8474 95.568 71.6381C98.0488 69.7426 103.609 76.3258 104.33 77.2011L107.959 74.9223L110.603 73.7065L112.737 71.0297L115.742 74.1965L113.039 78.6285C112.895 79.0438 112.702 79.4391 112.463 79.8053Z" fill="#2F2E41"/>
<path d="M103.039 87.8787C103.039 87.8787 110.804 100.627 109.398 102.077C107.991 103.527 105.802 103.908 105.802 103.908L100.957 97.4369L103.039 87.8787Z" fill="#2F2E41"/>
<path d="M96.1738 70.4678L99.8335 73.0194C101.534 74.2054 102.814 75.9308 103.478 77.9339C104.141 79.937 104.153 82.1085 103.511 84.1192L102.481 87.3469L96.1738 70.4678Z" fill="#2F2E41"/>
<path d="M89.7029 105.267L89.2136 107.023L87.5441 128.204L79.2031 144.226L83.184 147.157L94.5582 131.917L99.057 116.784L106.122 150.284L111.43 149.893L107.744 103.446L100.748 90.3726L89.7029 105.267Z" fill="#2F2E41"/>
<path d="M95.5503 71.1095L100.644 75.4C101.762 76.3416 102.567 77.6192 102.946 79.0548C103.119 79.7067 103.201 80.3805 103.19 81.056L103.038 90.3726L107.708 103.237C107.708 103.237 95.0473 108.167 93.3591 103.817C91.671 99.4669 95.5503 71.1095 95.5503 71.1095Z" fill="black"/>
<path d="M97.074 106.075C90.7491 106.075 89.2077 106.124 89.1079 106.103L89.0078 106.082V102.161L90.5459 95.1171C90.3661 92.9302 89.945 90.0465 89.9832 87.5774C90.121 78.6528 89.6954 69.9351 89.6954 69.9351L93.043 66.7502L94.5637 67.7703L97.3847 70.6777C100.664 78.9951 103.266 86.8254 103.282 87.3286L103.488 95.9871L102.644 99.467C98.8257 102.245 102.315 106.075 97.074 106.075Z" fill="#2F2E41"/>
<path opacity="0.2" d="M91.1146 77.7097L90.3457 82.6564L95.551 84.8693L91.1146 77.7097Z" fill="black"/>
<path d="M96.358 65.8223C99.1727 65.8223 101.454 63.4705 101.454 60.5694C101.454 57.6684 99.1727 55.3167 96.358 55.3167C93.5434 55.3167 91.2617 57.6684 91.2617 60.5694C91.2617 63.4705 93.5434 65.8223 96.358 65.8223Z" fill="#FFB6B6"/>
<path opacity="0.2" d="M87.8184 87.2216C89.1747 88.8403 91.0145 89.9487 93.0485 90.3724C95.0826 90.7962 97.1956 90.5113 99.0555 89.5626L100.165 88.9968L87.8184 87.2216Z" fill="black"/>
<path d="M105.552 86.0123C105.325 85.7491 105.045 85.5404 104.731 85.401C104.416 85.2616 104.077 85.1949 103.735 85.2056C103.393 85.2162 103.058 85.3039 102.752 85.4626C102.447 85.6213 102.179 85.847 101.968 86.1239L96.8222 84.635L95.1816 87.6373L102.477 89.6348C102.952 89.9702 103.53 90.1144 104.101 90.04C104.672 89.9657 105.197 89.6781 105.576 89.2315C105.955 88.785 106.162 88.2107 106.158 87.6174C106.153 87.0241 105.938 86.453 105.552 86.0123Z" fill="#FFB6B6"/>
<path d="M93.2742 89.3442C90.8277 89.3445 87.5176 87.866 83.5881 85.0025C83.3691 84.8461 83.1839 84.6446 83.0445 84.4106C82.905 84.1766 82.8142 83.9154 82.7778 83.6433C82.4879 81.7506 84.2791 79.1919 84.4547 78.9466L86.3376 73.617C86.3593 73.5304 86.9661 71.2245 88.4895 70.404C88.8102 70.2345 89.1628 70.1385 89.5229 70.1227C89.8831 70.1069 90.2423 70.1716 90.5758 70.3124C93.4775 71.4015 91.2117 79.8112 90.9007 80.9141L94.7452 82.7792L97.1865 84.3832L100.53 84.7437L99.6221 89.0736L94.5446 89.1913C94.1289 89.2962 93.7022 89.3475 93.2742 89.3442Z" fill="#2F2E41"/>
<path d="M102.469 57.1138C102.061 57.6607 100.656 58.1445 98.9863 58.5348C98.989 58.4991 98.989 58.4634 98.989 58.4276C98.9807 57.8804 98.9145 57.3356 98.7917 56.8032C98.6762 57.4553 98.433 58.0763 98.0769 58.6283C98.0503 58.6695 98.0236 58.7107 97.9943 58.752C96.5622 59.0433 95.0475 59.2687 93.8607 59.4199C94.6768 62.449 97.8049 64.9338 97.4663 66.7754L88.3004 68.705C88.3568 67.9397 88.2974 67.17 88.1244 66.4236C87.9491 67.4087 87.4857 68.3151 86.7964 69.0211L86.0177 69.186L85.7857 68.0068C83.7749 63.0289 86.5777 57.9329 91.1699 55.2969C91.9887 54.0318 93.26 53.1523 94.7061 52.8505L95.8502 52.6087C96.5718 52.4565 97.3154 52.4523 98.0386 52.5964C98.7618 52.7404 99.4503 53.0299 100.065 53.4482C100.68 53.8665 101.208 54.4056 101.621 55.0345C102.033 55.6635 102.322 56.37 102.469 57.1138Z" fill="#2F2E41"/>
<path d="M124.365 152.343L124.5 149.202C125.913 148.423 127.489 148.012 129.091 148.004C126.886 149.862 127.162 153.444 125.667 155.942C125.195 156.718 124.559 157.374 123.808 157.862C123.056 158.35 122.208 158.658 121.325 158.762L119.48 159.927C119.227 158.472 119.283 156.978 119.644 155.547C120.005 154.117 120.662 152.784 121.571 151.641C122.087 151.005 122.679 150.438 123.332 149.954C123.774 151.155 124.365 152.343 124.365 152.343Z" fill="#F2F2F2"/>
<path d="M128.838 160H64.5821C64.4934 160 64.4084 159.963 64.3458 159.899C64.2832 159.834 64.248 159.746 64.248 159.655C64.248 159.563 64.2832 159.476 64.3458 159.411C64.4084 159.346 64.4934 159.31 64.5821 159.309H128.838C128.882 159.309 128.926 159.318 128.966 159.335C129.007 159.353 129.044 159.378 129.075 159.41C129.107 159.442 129.131 159.48 129.148 159.522C129.165 159.564 129.174 159.609 129.174 159.655C129.174 159.7 129.165 159.745 129.148 159.787C129.131 159.829 129.107 159.867 129.075 159.899C129.044 159.931 129.007 159.957 128.966 159.974C128.926 159.991 128.882 160 128.838 160Z" fill="#CACACA"/>
</g>
<defs>
<clipPath id="clip0_2089_710">
<rect width="242" height="160" fill="white"/>
</clipPath>
</defs>
</svg>
