<svg width="395" height="256" viewBox="0 0 395 256" fill="none" xmlns="http://www.w3.org/2000/svg">
<g clip-path="url(#clip0_2089_215)">
<path d="M64.1691 119.208C69.9514 119.208 74.639 114.517 74.639 108.73C74.639 102.943 69.9514 98.2523 64.1691 98.2523C58.3867 98.2523 53.6992 102.943 53.6992 108.73C53.6992 114.517 58.3867 119.208 64.1691 119.208Z" fill="#FFB8B8"/>
<path d="M28.793 234.291L31.444 238.798L50.0775 230.71L46.1647 224.058L28.793 234.291Z" fill="#FFB8B8"/>
<path d="M29.5862 232.275L34.807 241.152C35.2439 241.894 35.5305 242.717 35.6501 243.57C35.7697 244.424 35.7201 245.293 35.5041 246.127C35.2882 246.962 34.9101 247.745 34.3915 248.434C33.8729 249.122 33.2239 249.701 32.4816 250.138L32.2979 250.246L23.75 235.713L29.5862 232.275Z" fill="#2F2E41"/>
<path d="M59.5087 250.529L64.7349 250.528L67.2209 230.355L59.5078 230.355L59.5087 250.529Z" fill="#FFB8B8"/>
<path d="M58.1758 248.821L68.4678 248.821C69.3291 248.821 70.1825 248.99 70.9782 249.32C71.774 249.65 72.4971 250.134 73.1061 250.743C73.7152 251.353 74.1983 252.076 74.5279 252.873C74.8575 253.669 75.0272 254.523 75.0272 255.385V255.598L58.1761 255.599L58.1758 248.821Z" fill="#2F2E41"/>
<path d="M38.4977 238.306C38.1969 238.307 37.9004 238.236 37.632 238.1C37.3636 237.964 37.1309 237.767 36.9529 237.524L31.9127 230.674C31.7589 230.465 31.6491 230.227 31.5898 229.974C31.5306 229.721 31.5231 229.459 31.5679 229.204C31.6127 228.948 31.7089 228.704 31.8505 228.487C31.9921 228.27 32.1764 228.083 32.392 227.939L54.8203 212.948L41.2874 177.337L70.2271 179.727L71.2019 210.329C71.2933 213.116 70.6259 215.875 69.2709 218.311C67.9159 220.748 65.9244 222.77 63.5096 224.161L39.4561 238.049C39.1649 238.217 38.8343 238.306 38.4977 238.306Z" fill="#2F2E41"/>
<path d="M59.6655 246.433C59.1691 246.432 58.6925 246.239 58.3357 245.894C57.9789 245.548 57.7696 245.078 57.752 244.582L56.6914 214.77L69.8244 214.077L68.7787 244.104C68.7633 244.579 68.5714 245.032 68.2404 245.374C67.9094 245.716 67.463 245.922 66.9884 245.952L59.7959 246.429C59.7523 246.432 59.7088 246.433 59.6655 246.433Z" fill="#2F2E41"/>
<path d="M73.5768 185.647C70.2355 185.647 58.5647 181.886 54.5131 180.545C53.907 181.03 50.5772 183.522 46.6904 183.067C44.2922 182.785 42.1809 181.427 40.4152 179.029C36.516 173.733 41.3319 151.021 46.0587 132.901C47.0063 129.239 49.3359 126.086 52.5577 124.107C55.7796 122.128 59.6428 121.475 63.3352 122.287C66.0114 122.879 68.4698 124.205 70.4343 126.118C72.3988 128.03 73.7914 130.453 74.4558 133.114C75.3457 136.739 74.5802 141.004 74.0212 144.118C73.7584 145.582 73.5508 146.738 73.6218 147.306C73.8961 149.503 75.4202 183.948 74.4402 185.419C74.3358 185.576 74.034 185.647 73.5768 185.647Z" fill="#0027A8"/>
<path d="M61.3539 185.708C61.8909 185.308 62.3337 184.795 62.6512 184.205C62.9686 183.615 63.153 182.963 63.1913 182.294C63.2295 181.625 63.1208 180.956 62.8727 180.333C62.6246 179.711 62.2432 179.151 61.7553 178.692L61.9622 136.951L52.1387 138.588L55.0243 179.103C54.3084 179.975 53.9368 181.078 53.9799 182.206C54.0229 183.333 54.4776 184.405 55.2578 185.219C56.038 186.033 57.0895 186.533 58.2131 186.623C59.3366 186.713 60.4542 186.387 61.3539 185.708Z" fill="#FFB8B8"/>
<path d="M63.6246 163.757H53.0436C52.5383 163.756 52.0539 163.556 51.6949 163.2C51.336 162.844 51.1314 162.361 51.1253 161.855L50.8655 133.148C50.8565 132.155 51.0443 131.171 51.4179 130.251C51.7915 129.332 52.3436 128.495 53.0423 127.791C53.7409 127.086 54.5722 126.527 55.4881 126.146C56.404 125.765 57.3863 125.569 58.3782 125.57C59.3701 125.572 60.3519 125.77 61.2669 126.153C62.1819 126.536 63.0118 127.097 63.7087 127.804C64.4056 128.51 64.9556 129.348 65.327 130.268C65.6984 131.189 65.8838 132.174 65.8723 133.166L65.5427 161.86C65.5352 162.364 65.33 162.846 64.9713 163.201C64.6126 163.556 64.129 163.756 63.6246 163.757Z" fill="#0027A8"/>
<path d="M61.504 119.164C56.7103 119.173 52.188 115.381 51.3573 110.657C51.0599 108.8 51.194 106.901 51.7492 105.105C52.3519 103.06 53.3857 101.169 54.7807 99.5584C56.1757 97.9477 57.8995 96.655 59.836 95.7675C61.7725 94.88 63.8766 94.4182 66.0065 94.4134C68.1364 94.4086 70.2425 94.8608 72.183 95.7396C73.4654 96.3203 74.7285 97.1544 75.3157 98.4347C75.9029 99.7149 75.5354 101.504 74.2509 102.08C73.4115 102.457 72.3581 102.272 71.6134 102.812C70.5438 103.588 70.8191 105.24 71.2967 106.473C71.7744 107.706 72.3146 109.198 71.5139 110.249C70.7678 111.23 69.2765 111.199 68.1018 110.83C66.9272 110.461 65.7677 109.844 64.543 109.969C62.7567 110.153 61.473 111.931 61.2354 113.712C60.9978 115.493 61.5572 117.274 62.1094 118.984L61.504 119.164Z" fill="#2F2E41"/>
<path d="M110.406 256H0.42628C0.313223 256 0.204797 255.955 0.124854 255.875C0.0449112 255.795 0 255.687 0 255.573C0 255.46 0.0449112 255.352 0.124854 255.272C0.204797 255.192 0.313223 255.147 0.42628 255.147H110.406C110.52 255.147 110.628 255.192 110.708 255.272C110.788 255.352 110.833 255.46 110.833 255.573C110.833 255.687 110.788 255.795 110.708 255.875C110.628 255.955 110.52 256 110.406 256Z" fill="#CCCCCC"/>
<path d="M387.966 185.381H114.789C112.925 185.379 111.137 184.636 109.818 183.317C108.5 181.997 107.758 180.208 107.756 178.342V9.76673C107.757 8.39952 108.301 7.08874 109.267 6.12196C110.233 5.15517 111.543 4.61133 112.909 4.60976H389.758C391.147 4.61134 392.48 5.16457 393.462 6.14807C394.445 7.13157 394.998 8.46502 395 9.85589V178.342C394.997 180.208 394.256 181.997 392.937 183.317C391.619 184.636 389.831 185.379 387.966 185.381Z" fill="#F2F2F2"/>
<path d="M379.133 176.494H124.54C120.808 176.494 117.771 173.648 117.771 170.151V23.3534C117.771 20.7596 120.021 18.6493 122.787 18.6493H380.803C383.614 18.6493 385.901 20.7944 385.901 23.4309V170.151C385.901 173.648 382.865 176.494 379.133 176.494Z" fill="white"/>
<path d="M394.903 10.6439H107.658V7.06024C107.661 5.18783 108.406 3.39294 109.729 2.06935C111.052 0.745757 112.846 0.00155258 114.717 0H387.843C389.714 0.00153679 391.508 0.745734 392.832 2.06933C394.155 3.39292 394.9 5.18782 394.903 7.06024V10.6439Z" fill="#3F3D56"/>
<path d="M120.486 7.15992C121.495 7.15992 122.312 6.34179 122.312 5.33258C122.312 4.32337 121.495 3.50525 120.486 3.50525C119.478 3.50525 118.66 4.32337 118.66 5.33258C118.66 6.34179 119.478 7.15992 120.486 7.15992Z" fill="white"/>
<path d="M127.418 7.15992C128.426 7.15992 129.244 6.34179 129.244 5.33258C129.244 4.32337 128.426 3.50525 127.418 3.50525C126.409 3.50525 125.592 4.32337 125.592 5.33258C125.592 6.34179 126.409 7.15992 127.418 7.15992Z" fill="white"/>
<path d="M134.347 7.15992C135.356 7.15992 136.173 6.34179 136.173 5.33258C136.173 4.32337 135.356 3.50525 134.347 3.50525C133.339 3.50525 132.521 4.32337 132.521 5.33258C132.521 6.34179 133.339 7.15992 134.347 7.15992Z" fill="white"/>
<path d="M245.797 50.7467H196.004C195.262 50.7467 194.55 50.4516 194.025 49.9263C193.5 49.401 193.205 48.6885 193.205 47.9456C193.205 47.2026 193.5 46.4902 194.025 45.9649C194.55 45.4395 195.262 45.1444 196.004 45.1444H245.797C246.539 45.1444 247.251 45.4395 247.776 45.9649C248.301 46.4902 248.596 47.2026 248.596 47.9456C248.596 48.6885 248.301 49.401 247.776 49.9263C247.251 50.4516 246.539 50.7467 245.797 50.7467Z" fill="#CCCCCC"/>
<path d="M307.67 50.7467H257.877C257.135 50.7467 256.423 50.4516 255.898 49.9263C255.373 49.401 255.078 48.6885 255.078 47.9456C255.078 47.2026 255.373 46.4902 255.898 45.9649C256.423 45.4395 257.135 45.1444 257.877 45.1444H307.67C308.412 45.1444 309.124 45.4395 309.649 45.9649C310.174 46.4902 310.469 47.2026 310.469 47.9456C310.469 48.6885 310.174 49.401 309.649 49.9263C309.124 50.4516 308.412 50.7467 307.67 50.7467Z" fill="#CCCCCC"/>
<path d="M307.671 61.3616H221.049C220.307 61.3616 219.595 61.0665 219.07 60.5412C218.545 60.0159 218.25 59.3034 218.25 58.5605C218.25 57.8175 218.545 57.1051 219.07 56.5797C219.595 56.0544 220.307 55.7593 221.049 55.7593H307.671C308.413 55.7593 309.125 56.0544 309.65 56.5797C310.175 57.1051 310.47 57.8175 310.47 58.5605C310.47 59.3034 310.175 60.0159 309.65 60.5412C309.125 61.0665 308.413 61.3616 307.671 61.3616Z" fill="#CCCCCC"/>
<path d="M245.797 39.9844H196.005C195.263 39.9835 194.552 39.6879 194.028 39.1627C193.503 38.6375 193.209 37.9255 193.209 37.1832C193.209 36.4409 193.503 35.729 194.028 35.2037C194.552 34.6785 195.263 34.383 196.005 34.3821H245.797C246.165 34.3816 246.53 34.4537 246.87 34.5943C247.21 34.7349 247.519 34.9411 247.779 35.2013C248.039 35.4615 248.246 35.7704 248.387 36.1105C248.527 36.4506 248.6 36.8151 248.6 37.1832C248.6 37.5514 248.527 37.9159 248.387 38.256C248.246 38.5961 248.039 38.905 247.779 39.1652C247.519 39.4253 247.21 39.6316 246.87 39.7722C246.53 39.9127 246.165 39.9848 245.797 39.9844Z" fill="#CCCCCC"/>
<path d="M273.197 40.1318H259.055C258.313 40.1318 257.601 39.8367 257.076 39.3114C256.551 38.7861 256.256 38.0736 256.256 37.3307C256.256 36.5877 256.551 35.8753 257.076 35.3499C257.601 34.8246 258.313 34.5295 259.055 34.5295H273.197C273.94 34.5295 274.652 34.8246 275.176 35.3499C275.701 35.8753 275.996 36.5877 275.996 37.3307C275.996 38.0736 275.701 38.7861 275.176 39.3114C274.652 39.8367 273.94 40.1318 273.197 40.1318Z" fill="#CCCCCC"/>
<path d="M210.147 61.3616H196.005C195.263 61.3607 194.552 61.0652 194.028 60.54C193.503 60.0147 193.209 59.3028 193.209 58.5605C193.209 57.8181 193.503 57.1062 194.028 56.581C194.552 56.0557 195.263 55.7602 196.005 55.7593H210.147C210.515 55.7589 210.879 55.831 211.219 55.9715C211.559 56.1121 211.868 56.3184 212.128 56.5785C212.389 56.8387 212.595 57.1476 212.736 57.4877C212.877 57.8278 212.949 58.1923 212.949 58.5605C212.949 58.9286 212.877 59.2931 212.736 59.6332C212.595 59.9733 212.389 60.2822 212.128 60.5424C211.868 60.8026 211.559 61.0088 211.219 61.1494C210.879 61.2899 210.515 61.3621 210.147 61.3616Z" fill="#CCCCCC"/>
<path d="M245.797 150.146H196.004C195.262 150.146 194.55 149.851 194.025 149.326C193.5 148.8 193.205 148.088 193.205 147.345C193.205 146.602 193.5 145.889 194.025 145.364C194.55 144.839 195.262 144.544 196.004 144.544H245.797C246.165 144.544 246.529 144.616 246.868 144.757C247.208 144.898 247.516 145.104 247.776 145.364C248.036 145.624 248.242 145.933 248.383 146.273C248.524 146.613 248.596 146.977 248.596 147.345C248.596 147.713 248.524 148.077 248.383 148.417C248.242 148.757 248.036 149.065 247.776 149.326C247.516 149.586 247.208 149.792 246.868 149.933C246.529 150.074 246.165 150.146 245.797 150.146Z" fill="#CCCCCC"/>
<path d="M307.67 150.146H257.877C257.135 150.146 256.423 149.851 255.898 149.326C255.373 148.8 255.078 148.088 255.078 147.345C255.078 146.602 255.373 145.889 255.898 145.364C256.423 144.839 257.135 144.544 257.877 144.544H307.67C308.038 144.544 308.402 144.616 308.741 144.757C309.081 144.898 309.389 145.104 309.649 145.364C309.909 145.624 310.115 145.933 310.256 146.273C310.397 146.613 310.469 146.977 310.469 147.345C310.469 147.713 310.397 148.077 310.256 148.417C310.115 148.757 309.909 149.065 309.649 149.326C309.389 149.586 309.081 149.792 308.741 149.933C308.402 150.074 308.038 150.146 307.67 150.146Z" fill="#CCCCCC"/>
<path d="M307.671 160.761H221.049C220.307 160.761 219.595 160.466 219.07 159.94C218.545 159.415 218.25 158.703 218.25 157.96C218.25 157.217 218.545 156.504 219.07 155.979C219.595 155.454 220.307 155.159 221.049 155.159H307.671C308.039 155.158 308.403 155.23 308.743 155.371C309.083 155.511 309.392 155.718 309.652 155.978C309.913 156.238 310.119 156.547 310.26 156.887C310.401 157.227 310.474 157.592 310.474 157.96C310.474 158.328 310.401 158.692 310.26 159.032C310.119 159.373 309.913 159.682 309.652 159.942C309.392 160.202 309.083 160.408 308.743 160.549C308.403 160.689 308.039 160.761 307.671 160.761Z" fill="#CCCCCC"/>
<path d="M245.797 139.384H196.004C195.262 139.384 194.55 139.089 194.025 138.563C193.5 138.038 193.205 137.325 193.205 136.582C193.205 135.84 193.5 135.127 194.025 134.602C194.55 134.076 195.262 133.781 196.004 133.781H245.797C246.539 133.781 247.251 134.076 247.776 134.602C248.301 135.127 248.596 135.84 248.596 136.582C248.596 137.325 248.301 138.038 247.776 138.563C247.251 139.089 246.539 139.384 245.797 139.384Z" fill="#CCCCCC"/>
<path d="M273.197 139.531H259.055C258.313 139.531 257.601 139.236 257.076 138.711C256.551 138.185 256.256 137.473 256.256 136.73C256.256 135.987 256.551 135.275 257.076 134.749C257.601 134.224 258.313 133.929 259.055 133.929H273.197C273.94 133.929 274.652 134.224 275.176 134.749C275.701 135.275 275.996 135.987 275.996 136.73C275.996 137.473 275.701 138.185 275.176 138.711C274.652 139.236 273.94 139.531 273.197 139.531Z" fill="#CCCCCC"/>
<path d="M210.146 160.761H196.004C195.262 160.761 194.55 160.466 194.025 159.94C193.5 159.415 193.205 158.703 193.205 157.96C193.205 157.217 193.5 156.504 194.025 155.979C194.55 155.454 195.262 155.159 196.004 155.159H210.146C210.514 155.158 210.879 155.23 211.219 155.371C211.559 155.511 211.868 155.718 212.128 155.978C212.388 156.238 212.595 156.547 212.736 156.887C212.876 157.227 212.949 157.592 212.949 157.96C212.949 158.328 212.876 158.692 212.736 159.032C212.595 159.373 212.388 159.682 212.128 159.942C211.868 160.202 211.559 160.408 211.219 160.549C210.879 160.689 210.514 160.761 210.146 160.761Z" fill="#CCCCCC"/>
<path d="M232.793 120.073C231.736 120.076 230.721 119.66 229.969 118.917L211.252 100.42C210.884 100.057 210.593 99.6241 210.393 99.1473C210.194 98.6704 210.092 98.1587 210.092 97.6419C210.092 97.1251 210.194 96.6134 210.393 96.1365C210.593 95.6597 210.884 95.2271 211.252 94.864L229.894 76.4413C230.67 75.6775 231.716 75.2511 232.805 75.2545C233.894 75.2579 234.938 75.691 235.709 76.4596C236.482 77.2345 236.916 78.2844 236.916 79.379C236.916 80.4736 236.482 81.5235 235.71 82.2984L221.857 96.1617C221.426 96.5946 221.183 97.1812 221.183 97.7927C221.183 98.4043 221.426 98.9908 221.857 99.4238L235.634 113.212C236.197 113.774 236.58 114.49 236.736 115.27C236.891 116.05 236.812 116.859 236.507 117.594C236.203 118.329 235.687 118.957 235.026 119.398C234.365 119.839 233.588 120.074 232.793 120.073Z" fill="#0027A8"/>
<path d="M262.617 120.073C261.823 120.074 261.045 119.839 260.384 119.398C259.723 118.957 259.207 118.329 258.903 117.594C258.599 116.859 258.519 116.05 258.674 115.27C258.83 114.49 259.213 113.774 259.776 113.212L273.553 99.4238C273.984 98.9908 274.227 98.4043 274.227 97.7927C274.227 97.1812 273.984 96.5946 273.553 96.1617L259.701 82.2984C259.317 81.915 259.014 81.4599 258.806 80.959C258.599 80.4581 258.492 79.9212 258.492 79.379C258.492 78.8368 258.599 78.2999 258.806 77.799C259.014 77.2981 259.317 76.843 259.701 76.4596C260.472 75.6909 261.516 75.2579 262.605 75.2545C263.694 75.251 264.74 75.6775 265.517 76.4413L284.158 94.864C284.526 95.2271 284.817 95.6597 285.017 96.1365C285.216 96.6134 285.318 97.1251 285.318 97.6419C285.318 98.1587 285.216 98.6704 285.017 99.1473C284.817 99.6241 284.526 100.057 284.158 100.42L265.441 118.917C264.689 119.66 263.674 120.076 262.617 120.073Z" fill="#0027A8"/>
</g>
<defs>
<clipPath id="clip0_2089_215">
<rect width="395" height="256" fill="white"/>
</clipPath>
</defs>
</svg>
