<svg width="143" height="155" viewBox="0 0 143 155" fill="none" xmlns="http://www.w3.org/2000/svg">
<g clip-path="url(#clip0_3108_534)">
<path d="M80.5736 155C72.2075 152.78 63.8399 150.561 55.4706 148.343C49.1381 146.652 42.849 144.791 36.4658 143.334C33.8637 142.74 31.0586 142.996 28.3453 142.948C28.0578 142.948 27.6688 143.431 27.4804 143.791C25.8544 146.817 23.3876 148.415 19.906 148.398C16.0693 148.381 12.2326 148.413 8.39343 148.398C3.41149 148.369 0.0289929 145.018 0.0169125 140.026C-0.0056375 129.683 -0.0056375 119.341 0.0169125 109C0.0169125 104.047 3.45015 100.618 8.39101 100.58C12.2277 100.549 16.0645 100.549 19.9012 100.58C23.2692 100.609 25.8278 102.077 27.3668 105.105C27.7413 105.844 28.1545 106.092 28.9735 106.124C31.8 106.251 34.6198 105.756 37.2341 104.675C41.4549 102.939 45.8715 101.872 50.4621 101.76C57.7828 101.587 64.0114 104.417 69.6288 108.867C70.3536 109.43 71.134 109.939 71.7018 110.627C73.2915 112.559 75.2534 113.069 77.7081 112.957C81.9411 112.769 86.1885 112.984 90.4287 112.883C94.0311 112.793 97.2179 113.667 99.8659 116.309C101.557 115.452 103.215 114.619 104.867 113.769C111.149 110.549 117.431 107.33 123.713 104.11C127.143 102.347 130.661 102.026 134.208 103.627C141.473 106.928 142.529 116.838 136.073 121.957C132.48 124.806 128.646 127.354 124.884 129.984C124.568 130.218 124.209 130.387 123.828 130.482C123.446 130.577 123.049 130.596 122.66 130.537C122.271 130.478 121.898 130.343 121.562 130.14C121.225 129.936 120.932 129.668 120.7 129.351C119.695 128.001 119.948 126.149 121.424 125.074C124.754 122.643 128.214 120.349 131.473 117.813C132.596 116.939 133.669 115.602 134.063 114.269C135.063 110.905 131.98 108.024 128.417 108.79C127.632 108.978 126.875 109.267 126.165 109.649C118.757 113.433 111.369 117.253 103.954 121.025C103.137 121.44 102.816 121.805 102.92 122.831C103.596 129.568 98.682 135.18 91.8977 135.269C83.1129 135.383 74.328 135.315 65.5408 135.298C63.4726 135.298 62.1099 134.04 62.1003 132.268C62.1003 130.411 63.4339 129.257 65.6664 129.257C74.1975 129.257 82.7311 129.257 91.2768 129.257C94.2751 129.257 96.4568 127.566 96.9038 125C97.4547 121.827 95.0797 119.016 91.7117 118.987C86.4108 118.939 81.1099 118.915 75.8091 118.987C73.1272 119.028 70.9286 118.219 68.9861 116.331C65.7365 113.192 62.1317 110.536 57.8117 108.995C52.192 106.993 46.6423 107.715 41.2182 109.671C37.2099 111.12 33.2451 112.569 28.8962 112.17C28.6887 112.191 28.4856 112.244 28.2946 112.327V136.648C28.4492 136.73 28.5362 136.82 28.6184 136.812C35.3834 136.177 41.6651 138.375 48.0218 140.096C58.0437 142.808 68.0752 145.472 78.085 148.239C82.8012 149.543 87.1888 148.963 91.2695 146.324C93.9272 144.595 96.5051 142.728 99.129 140.937C100.226 140.188 101.395 140.084 102.545 140.789C103.635 141.458 104.15 142.497 103.906 143.752C103.79 144.358 103.509 145.102 103.048 145.443C98.3389 148.987 93.7194 152.711 87.8894 154.358C87.0776 154.599 86.2586 154.792 85.4419 155.007L80.5736 155ZM22.1481 124.575C22.1481 119.538 22.1481 114.5 22.1481 109.461C22.1481 107.288 21.5296 106.636 19.4083 106.631C15.8776 106.62 12.3485 106.62 8.82107 106.631C6.75292 106.631 6.08367 107.293 6.08125 109.328C6.08125 119.455 6.08125 129.582 6.08125 139.708C6.08125 141.692 6.72876 142.337 8.69061 142.344C12.2213 142.357 15.7512 142.357 19.2802 142.344C21.6238 142.344 22.1457 141.833 22.1481 139.534C22.1481 134.551 22.1481 129.565 22.1481 124.575Z" fill="#1C2B5C"/>
<path d="M49.6913 62.7775C48.7902 62.7123 47.8141 62.7461 46.8863 62.5529C45.4132 62.2475 44.0866 61.4535 43.1217 60.2999C42.1569 59.1462 41.6104 57.7005 41.5709 56.1974C41.4815 52.5174 41.467 48.8301 41.5709 45.1501C41.6772 41.4339 44.5548 38.7343 48.3963 38.6908C49.5416 38.6763 50.0127 38.3552 50.3968 37.242C51.199 34.9166 52.2161 32.654 53.243 30.4204C53.6006 29.6381 53.6899 29.1624 53.0159 28.4621C49.8122 25.1274 49.9088 21.3749 53.1922 18.0789C55.4005 15.8622 57.6145 13.6511 59.834 11.4457C62.9169 8.40072 66.8285 8.33069 69.897 11.3467C70.6532 12.0904 71.1533 12.0928 72.0714 11.6485C74.2942 10.5884 76.5895 9.66603 78.9041 8.82088C79.8367 8.48041 80.2498 8.1351 80.2595 7.05331C80.2933 2.73341 83.0984 0.0361786 87.4328 0.016861C90.6639 0.00398254 93.895 0.00398254 97.1261 0.016861C101.374 0.0385933 104.212 2.75272 104.244 6.95673C104.244 8.08923 104.674 8.46833 105.66 8.82812C107.974 9.67327 110.25 10.6343 112.487 11.6726C113.338 12.0662 113.836 12.1121 114.556 11.4046C117.66 8.35243 121.543 8.36933 124.616 11.3877C126.969 13.6817 129.296 15.995 131.596 18.3276C134.57 21.3484 134.626 25.2505 131.688 28.2858C130.985 29.0102 130.85 29.5101 131.309 30.4736C132.389 32.7385 133.307 35.0881 134.208 37.4352C134.508 38.2127 134.756 38.6594 135.742 38.6811C140.403 38.7922 142.976 41.4822 142.99 46.1257C142.99 49.2648 143.01 52.3822 142.99 55.5116C142.964 59.8171 140.212 62.6326 135.916 62.6785C134.95 62.6785 134.546 62.9683 134.208 63.8858C133.324 66.3005 132.333 68.6621 131.258 70.9899C130.874 71.823 130.939 72.2818 131.572 72.9362C134.655 76.1187 134.614 79.9799 131.519 83.1093C129.285 85.363 127.035 87.6103 124.771 89.8512C121.601 92.9903 117.779 93.0386 114.585 89.9767C113.959 89.3755 113.512 89.2113 112.652 89.6145C110.282 90.7156 107.844 91.6815 105.404 92.6281C104.659 92.9154 104.307 93.2076 104.285 94.0962C104.171 98.7518 101.485 101.34 96.8555 101.372C93.7146 101.384 90.593 101.396 87.4642 101.372C83.137 101.331 80.3368 98.5948 80.2788 94.3087C80.2667 93.3742 80.0372 92.9275 79.0877 92.5846C76.6716 91.7153 74.3135 90.7011 71.9772 89.6411C71.1654 89.2716 70.6943 89.2861 70.0178 89.9284C66.7126 93.082 62.958 93.0072 59.7277 89.798C57.4727 87.5572 55.2233 85.3091 52.9796 83.0538C49.9547 79.9943 49.9185 76.0873 52.941 72.9917C53.6247 72.2914 53.6658 71.7964 53.2551 70.9223C52.0059 68.2854 50.8994 65.5834 49.6913 62.7775ZM104.295 86.9052C107.042 85.5409 109.458 84.4302 111.784 83.16C114.111 81.8899 115.061 81.9527 116.989 83.853C117.561 84.4229 118.153 84.9759 118.699 85.5699C119.308 86.2315 119.844 86.2291 120.482 85.5844C122.718 83.321 124.968 81.0753 127.233 78.8474C127.897 78.193 127.803 77.6593 127.167 77.0629C126.396 76.3385 125.647 75.5899 124.921 74.8172C123.713 73.535 123.524 72.3349 124.437 70.8329C126.635 67.208 128.273 63.2719 129.294 59.1578C129.738 57.4048 130.743 56.6997 132.594 56.6514C133.602 56.6272 134.614 56.62 135.621 56.6514C136.496 56.6804 136.933 56.3592 136.926 55.432C136.907 52.2542 136.907 49.0756 136.926 45.8963C136.926 44.9473 136.443 44.6768 135.602 44.6889C134.541 44.7131 133.478 44.73 132.422 44.6744C130.661 44.5827 129.716 43.8679 129.282 42.1511C128.257 38.0378 126.619 34.1021 124.423 30.476C123.514 28.9813 123.715 27.7956 124.93 26.4941C125.655 25.7198 126.404 24.9704 127.177 24.246C127.825 23.6375 127.858 23.1159 127.201 22.4712C124.943 20.2561 122.703 18.0145 120.482 15.7463C119.83 15.0822 119.315 15.1402 118.711 15.7849C117.986 16.5576 117.237 17.3062 116.462 18.0306C115.164 19.2379 113.964 19.4456 112.48 18.5377C108.859 16.3314 104.921 14.6914 100.803 13.6744C99.0468 13.235 98.322 12.2256 98.264 10.3953C98.2302 9.33763 98.2375 8.27757 98.264 7.21751C98.281 6.38203 97.9016 6.0488 97.0729 6.05604C93.8909 6.07536 90.7114 6.08019 87.5294 6.05604C86.5847 6.05604 86.2924 6.48827 86.3214 7.35515C86.3528 8.41279 86.3576 9.47527 86.3214 10.5329C86.2586 12.1049 85.541 13.2567 83.9512 13.643C79.7294 14.6624 75.6938 16.3376 71.9917 18.6077C70.6653 19.419 69.3727 19.2114 68.2492 18.1537C67.4036 17.3569 66.6522 16.4489 65.7437 15.739C65.4127 15.4831 64.5357 15.4251 64.2675 15.6714C61.8885 17.9251 59.5674 20.2424 57.3044 22.6233C57.0459 22.8938 57.0628 23.7752 57.3044 24.1036C57.9302 24.9439 58.7758 25.62 59.5078 26.3855C60.8608 27.8005 61.0638 28.9837 60.0732 30.6112C57.8846 34.1872 56.2574 38.0774 55.2483 42.1462C54.8207 43.8728 53.8832 44.5923 52.1243 44.6889C51.0178 44.7493 49.904 44.7227 48.7926 44.7082C47.9808 44.7082 47.5845 45.0318 47.5845 45.877C47.6023 49.0563 47.6023 52.2349 47.5845 55.4126C47.5845 56.323 47.9639 56.6876 48.8602 56.661C49.9185 56.6272 50.9815 56.6272 52.0398 56.661C53.7987 56.7214 54.8038 57.4458 55.2266 59.1361C56.2512 63.3019 57.9128 67.2848 60.1529 70.944C60.9986 72.318 60.7545 73.6509 59.6383 74.8076C58.9014 75.5706 58.1669 76.3361 57.3865 77.0532C56.6617 77.71 56.6617 78.2606 57.3865 78.9415C59.1309 80.6318 60.8101 82.3704 62.54 84.0655C65.2967 86.77 64.5357 86.8352 67.3045 84.0993C69.5635 81.8657 70.2618 81.8295 73.1176 83.3749C75.3524 84.5823 77.6864 85.6182 80.2474 86.8618C80.2474 82.7061 80.2087 78.9874 80.2716 75.2712C80.2909 74.0928 79.9889 73.4336 78.8533 72.8323C63.6683 64.7962 59.9427 44.6213 71.2451 31.6857C73.6805 28.8967 76.4131 26.3927 80.0855 25.3085C82.9268 24.4682 85.4009 25.8832 86.174 28.7301C86.424 29.6543 86.5499 30.6076 86.5485 31.565C86.5485 36.66 86.4688 41.7551 86.447 46.8477C86.4389 47.6542 86.5199 48.4591 86.6886 49.2479C87.2588 51.7809 89.7087 53.9203 92.1127 54.0652C94.2026 54.1884 96.7782 52.346 97.6117 49.9868C97.9231 49.0836 98.0863 48.1361 98.0949 47.1809C98.1432 42.7427 98.1118 38.302 98.1191 33.8614C98.1191 32.4126 98.0031 30.9251 98.2085 29.4932C98.6917 26.074 101.434 24.3957 104.732 25.3882C105.456 25.6047 106.154 25.8986 106.815 26.2647C115.95 31.3863 121.453 43.001 119.598 53.3239C118.008 62.1666 113.257 68.7523 105.343 73.081C104.899 73.3225 104.362 73.9117 104.355 74.3488C104.273 78.3668 104.295 82.3946 104.295 86.9052ZM80.3948 31.7292C80.0106 31.9707 79.8053 32.0866 79.6144 32.2266C73.3954 36.7663 70.2279 42.902 70.7836 50.5784C71.3949 58.926 75.7849 64.9073 83.4487 68.312C85.5168 69.2296 86.348 70.4852 86.3287 72.6923C86.2562 79.6008 86.348 86.5092 86.2682 93.4177C86.2489 94.9897 86.778 95.4147 88.2712 95.3495C90.9917 95.248 93.7218 95.2577 96.4447 95.3495C97.8364 95.3953 98.2834 94.9438 98.2689 93.5408C98.2085 86.6324 98.293 79.7239 98.2133 72.8154C98.1867 70.5625 98.9381 69.2272 101.113 68.312C105.819 66.35 109.633 62.7183 111.821 58.1154C114.01 53.5126 114.418 48.2635 112.968 43.3777C111.594 38.6087 108.52 34.5079 104.326 31.8499C104.203 31.99 104.145 32.0262 104.145 32.06C104.145 36.2423 104.176 40.4246 104.145 44.6165C104.145 46.3261 104.167 48.0623 103.903 49.7429C102.968 55.8738 97.5682 60.2976 91.9388 60.1117C86.1257 59.9233 81.0495 55.2219 80.6146 49.4121C80.2039 43.9452 80.4383 38.4324 80.3899 32.939C80.402 32.5912 80.4044 32.2628 80.4044 31.7364L80.3948 31.7292Z" fill="#1C2B5C"/>
<path d="M112.04 138.421C111.653 138.428 111.267 138.359 110.906 138.218C110.545 138.076 110.215 137.865 109.936 137.596C109.656 137.326 109.433 137.005 109.279 136.649C109.124 136.293 109.041 135.911 109.035 135.523C109.026 135.122 109.097 134.723 109.243 134.35C109.39 133.976 109.609 133.635 109.889 133.347C110.168 133.059 110.502 132.83 110.871 132.672C111.24 132.514 111.637 132.431 112.038 132.427C112.823 132.44 113.574 132.751 114.137 133.298C114.7 133.844 115.034 134.585 115.07 135.368C115.076 135.769 115.002 136.166 114.852 136.538C114.702 136.909 114.479 137.247 114.197 137.531C113.915 137.815 113.579 138.04 113.209 138.193C112.838 138.346 112.441 138.423 112.04 138.421Z" fill="#1C2B5C"/>
</g>
<defs>
<clipPath id="clip0_3108_534">
<rect width="143" height="155" fill="white"/>
</clipPath>
</defs>
</svg>
